<svg width="100" height="100" viewBox="0 0 100 100" fill="none" xmlns="http://www.w3.org/2000/svg">
<rect width="100" height="100" rx="50" fill="#F23966"/>
<path d="M63.9534 40.3056L65.05 39.2066C65.9231 38.3331 67.1075 37.8423 68.3425 37.8421C69.5775 37.8419 70.762 38.3323 71.6355 39.2054C72.509 40.0785 72.9998 41.2629 73 42.4979C73.0002 43.7329 72.5098 44.9175 71.6367 45.7909L70.5401 46.8899M63.9534 40.3056C63.9534 40.3056 64.0907 42.6361 66.1489 44.6943C68.2071 46.7525 70.5401 46.8899 70.5401 46.8899M63.9534 40.3056L53.8637 50.3952C53.1768 51.0774 52.8358 51.4208 52.5421 51.7974C52.1963 52.2426 51.9002 52.7211 51.6563 53.2327C51.4502 53.6637 51.2986 54.1208 50.9931 55.0374L49.6975 58.9241M70.5401 46.8899L60.4504 56.9796C59.7635 57.6664 59.4225 58.0075 59.0459 58.3012C58.6006 58.647 58.1222 58.943 57.6106 59.187C57.1795 59.3931 56.7224 59.5446 55.8058 59.8502L51.9192 61.1457M49.6975 58.9241L49.3825 59.8762C49.3092 60.0972 49.2987 60.3343 49.3524 60.5609C49.406 60.7875 49.5216 60.9947 49.6863 61.1594C49.8509 61.324 50.0581 61.4396 50.2847 61.4933C50.5114 61.5469 50.7484 61.5365 50.9694 61.4631L51.9192 61.1457M49.6975 58.9241L51.9192 61.1457M39.8423 52.0532H45.7635M39.8423 42.5793H55.2374M39.8423 61.527H43.3951M28 54.4216V44.9478C28 36.0163 28 31.5493 30.7758 28.7758C33.5493 26 38.0163 26 46.9478 26H51.6847C60.6162 26 65.0831 26 67.8566 28.7758M70.6325 54.4216C70.6325 63.3531 70.6324 67.8201 67.8566 70.5935M67.8566 70.5935C65.0831 73.3694 60.6162 73.3694 51.6847 73.3694H46.9478C38.0163 73.3694 33.5493 73.3694 30.7758 70.5935M67.8566 70.5935C70.0924 68.3601 70.5259 65.0324 70.6111 59.1586" stroke="white" stroke-width="2.5" stroke-linecap="round"/>
</svg>
