<svg width="100" height="100" viewBox="0 0 100 100" fill="none" xmlns="http://www.w3.org/2000/svg">
<rect width="100" height="100" rx="50" fill="#543EE8"/>
<path d="M68.3689 48.8235C65.879 46.1952 62.559 44.3969 59.1007 43.7052C57.579 43.2902 56.0574 43.0136 54.5357 42.8752C58.409 38.3103 57.7174 31.3937 53.1524 27.5204C48.5874 23.6471 41.6708 24.3387 37.7975 28.9037C33.9242 33.4687 34.6159 40.3853 39.1808 44.2586C40.0108 44.9502 40.8408 45.5036 41.6708 45.7802V48.8235L39.4575 46.7485C37.5209 44.8119 34.3392 44.8119 32.2642 46.7485C30.3276 48.6852 30.1892 51.7285 32.1259 53.6652L38.4892 61.1351C38.7658 63.0718 39.4575 64.8701 40.4258 66.5301C41.1175 67.7751 42.0858 69.02 43.0541 69.9884V72.6167C43.0541 73.4467 43.6075 74 44.4375 74H63.2507C63.9423 74 64.634 73.3083 64.634 72.6167V69.02C67.2623 65.8384 68.6456 61.8268 68.6456 57.8151V49.7919C68.7839 49.2385 68.6456 48.9619 68.3689 48.8235ZM37.9359 35.8203C37.9359 31.2553 41.6708 27.6587 46.2358 27.797C50.8007 27.797 54.3974 31.532 54.2591 36.097C54.2591 38.5869 53.1524 40.8003 51.2157 42.3219V35.4053C51.1451 34.2065 50.6186 33.0801 49.7441 32.257C48.8696 31.434 47.7134 30.9766 46.5125 30.9787C44.0225 30.8403 41.8092 32.9153 41.8092 35.4053V42.5986C39.4575 41.2153 38.0742 38.5869 37.9359 35.8203ZM66.0173 57.6768C66.1556 61.2734 64.9106 64.7317 62.559 67.4984C62.2823 67.7751 62.0057 68.0517 62.0057 68.4667V71.3717H45.9591V69.435C45.9591 69.02 45.6825 68.605 45.4058 68.3284C44.4375 67.4984 43.6075 66.5301 42.9158 65.2851C42.0858 63.9017 41.5325 62.2418 41.2558 60.5818C41.2558 60.3051 41.1175 60.0284 40.9792 59.7518L34.3392 51.8668C33.9242 51.4518 33.6476 50.8985 33.6476 50.2069C33.6476 49.6535 33.9242 48.9619 34.3392 48.5469C35.3075 47.7169 36.6909 47.7169 37.6592 48.5469L41.6708 52.5585V56.7085L44.2991 55.3251V35.4053C44.4375 34.437 45.2675 33.607 46.3741 33.7453C47.3424 33.7453 48.3108 34.437 48.3108 35.4053V51.3135L51.0774 51.8668V45.5036C51.2157 45.3652 51.3541 45.3652 51.4924 45.2269C52.4607 45.2269 53.4291 45.3652 54.3974 45.5036V52.5585L56.6107 52.9735V45.7802L58.2707 46.1952C58.9624 46.3336 59.654 46.6102 60.3457 46.8869V53.8035L62.559 54.2185V47.8552C63.804 48.4085 64.9106 49.2385 65.879 50.2069L66.0173 57.6768Z" fill="white"/>
</svg>
