<svg width="12" height="13" viewBox="0 0 12 13" fill="none" xmlns="http://www.w3.org/2000/svg">
<path d="M7.5 11.9375C7.5 12.1719 7.35938 12.3828 7.14844 12.4531C6.96094 12.5469 6.70312 12.5234 6.53906 12.3594L4.66406 10.6719C4.54688 10.5781 4.5 10.4141 4.5 10.25C4.5 10.1094 4.54688 9.94531 4.66406 9.85156L6.53906 8.16406C6.70312 8 6.96094 7.97656 7.14844 8.07031C7.35938 8.14062 7.5 8.35156 7.5 8.5625V9.5H7.875C8.69531 9.5 9.375 8.84375 9.375 8V4.10938C8.69531 3.80469 8.25 3.14844 8.25 2.375C8.25 1.34375 9.07031 0.5 10.125 0.5C11.1562 0.5 12 1.34375 12 2.375C12 3.14844 11.5312 3.80469 10.875 4.10938V8C10.875 9.66406 9.51562 11 7.875 11H7.5V11.9375ZM10.6875 2.375C10.6875 2.07031 10.4297 1.8125 10.125 1.8125C9.79688 1.8125 9.5625 2.07031 9.5625 2.375C9.5625 2.70312 9.79688 2.9375 10.125 2.9375C10.4297 2.9375 10.6875 2.70312 10.6875 2.375ZM4.5 1.0625C4.5 0.851562 4.61719 0.640625 4.82812 0.570312C5.01562 0.476562 5.27344 0.5 5.4375 0.664062L7.3125 2.35156C7.42969 2.44531 7.5 2.60938 7.5 2.75C7.5 2.91406 7.42969 3.07812 7.3125 3.17188L5.4375 4.85938C5.27344 5.02344 5.01562 5.04688 4.82812 4.95312C4.61719 4.88281 4.5 4.67188 4.5 4.4375V3.5H4.125C3.28125 3.5 2.625 4.17969 2.625 5V8.91406C3.28125 9.19531 3.75 9.875 3.75 10.625C3.75 11.6797 2.90625 12.5 1.875 12.5C0.820312 12.5 0 11.6797 0 10.625C0 9.875 0.445312 9.19531 1.125 8.91406V5C1.125 3.35938 2.46094 2 4.125 2H4.5V1.0625ZM1.3125 10.625C1.3125 10.9531 1.54688 11.1875 1.875 11.1875C2.17969 11.1875 2.4375 10.9531 2.4375 10.625C2.4375 10.3203 2.17969 10.0625 1.875 10.0625C1.54688 10.0625 1.3125 10.3203 1.3125 10.625Z" fill="#A5A3A3"/>
</svg>
