<svg width="17" height="16" viewBox="0 0 17 16" fill="none" xmlns="http://www.w3.org/2000/svg">
<path d="M2.875 0.875C3.19727 0.875 3.49023 1.13867 3.54883 1.46094L3.60742 1.8125H15.9121C16.5273 1.8125 16.9961 2.42773 16.8203 3.01367L15.2383 8.63867C15.1211 9.04883 14.7695 9.3125 14.3301 9.3125H5.04297L5.30664 10.7188H14.3594C14.7402 10.7188 15.0625 11.041 15.0625 11.4219C15.0625 11.832 14.7402 12.125 14.3594 12.125H4.7207C4.39844 12.125 4.10547 11.8906 4.04688 11.5684L2.28906 2.28125H0.765625C0.355469 2.28125 0.0625 1.98828 0.0625 1.57812C0.0625 1.19727 0.355469 0.875 0.765625 0.875H2.875ZM3.8125 14.4688C3.8125 13.707 4.42773 13.0625 5.21875 13.0625C5.98047 13.0625 6.625 13.707 6.625 14.4688C6.625 15.2598 5.98047 15.875 5.21875 15.875C4.42773 15.875 3.8125 15.2598 3.8125 14.4688ZM15.0625 14.4688C15.0625 15.2598 14.418 15.875 13.6562 15.875C12.8652 15.875 12.25 15.2598 12.25 14.4688C12.25 13.707 12.8652 13.0625 13.6562 13.0625C14.418 13.0625 15.0625 13.707 15.0625 14.4688Z" fill="#161619"/>
</svg>
