<svg width="22" height="16" viewBox="0 0 22 16" fill="none" xmlns="http://www.w3.org/2000/svg">
<path d="M7.5 0C11.0625 0 14 2.46875 14 5.5C14 8.5625 11.0625 11 7.5 11C6.90625 11 6.34375 10.9375 5.78125 10.8125C4.84375 11.4062 3.46875 12 1.75 12C1.4375 12 1.15625 11.8438 1.0625 11.5312C0.9375 11.25 0.96875 10.9375 1.1875 10.6875C1.21875 10.6875 1.90625 9.9375 2.40625 8.9375C1.53125 8 1 6.8125 1 5.5C1 2.46875 3.90625 0 7.5 0ZM6.125 9.34375C6.59375 9.46875 7.03125 9.5 7.5 9.5C10.25 9.5 12.5 7.71875 12.5 5.5C12.5 3.3125 10.25 1.5 7.5 1.5C4.71875 1.5 2.5 3.3125 2.5 5.5C2.5 6.625 3.03125 7.4375 3.5 7.90625L4.25 8.6875L3.75 9.65625C3.625 9.84375 3.5 10.0625 3.375 10.2812C3.9375 10.125 4.46875 9.875 5 9.53125L5.53125 9.21875L6.125 9.34375ZM14.7812 4.03125C18.25 4.15625 21 6.5625 21 9.5C21 10.8125 20.4375 12 19.5625 12.9375C20.0625 13.9375 20.75 14.6875 20.7812 14.6875C21 14.9375 21.0312 15.25 20.9062 15.5312C20.8125 15.8438 20.5312 16 20.2188 16C18.5 16 17.125 15.4062 16.1875 14.8125C15.625 14.9375 15.0625 15 14.5 15C11.9375 15 9.71875 13.75 8.65625 11.9375C9.1875 11.875 9.71875 11.75 10.1875 11.5625C11.0625 12.75 12.6562 13.5 14.5 13.5C14.9375 13.5 15.375 13.4688 15.8438 13.3438L16.4375 13.2188L16.9688 13.5312C17.5 13.875 18.0312 14.125 18.5938 14.2812C18.4688 14.0625 18.3438 13.8438 18.2188 13.6562L17.7188 12.6875L18.4688 11.9062C18.9375 11.4375 19.5 10.625 19.5 9.5C19.5 7.4375 17.5 5.75 14.9688 5.53125L15 5.5C15 5 14.9062 4.5 14.7812 4.03125Z" fill="#808080"/>
</svg>
