<svg width="16" height="15" viewBox="0 0 16 15" fill="none" xmlns="http://www.w3.org/2000/svg">
<path d="M15.2656 10.4219L12.9219 8.07812C12.4824 7.63867 11.75 7.93164 11.75 8.57617V9.71875H10.8125L9.25977 8.07812L7.67773 9.74805L9.75781 11.9746C9.81641 12.0332 9.9043 12.0625 10.0215 12.0625H11.75V13.2344C11.75 13.8789 12.4824 14.1719 12.9219 13.7324L15.2656 11.3887C15.5586 11.125 15.5586 10.6855 15.2656 10.4219ZM0.851562 5.03125H3.3125L4.83594 6.70117L6.41797 5.03125L4.33789 2.80469C4.2793 2.74609 4.19141 2.6875 4.07422 2.6875H0.851562C0.646484 2.6875 0.5 2.86328 0.5 3.03906V4.67969C0.5 4.88477 0.646484 5.03125 0.851562 5.03125ZM11.75 5.03125V6.20312C11.75 6.84766 12.4824 7.14062 12.9219 6.70117L15.2656 4.35742C15.5586 4.09375 15.5586 3.6543 15.2656 3.39062L12.9219 1.04688C12.4824 0.607422 11.75 0.900391 11.75 1.54492V2.6875H10.0215C9.9043 2.6875 9.81641 2.74609 9.75781 2.80469L3.3125 9.71875H0.851562C0.646484 9.71875 0.5 9.89453 0.5 10.0703V11.7109C0.5 11.916 0.646484 12.0625 0.851562 12.0625H4.07422C4.19141 12.0625 4.2793 12.0332 4.33789 11.9746L10.8125 5.03125H11.75Z" fill="#161619"/>
</svg>
