<svg width="18" height="21" viewBox="0 0 18 21" fill="none" xmlns="http://www.w3.org/2000/svg">
<path d="M5.27344 1.61475C5.46875 1.18506 5.89844 0.911621 6.36719 0.911621H11.0938C11.5625 0.911621 11.9922 1.18506 12.1875 1.61475L12.5 2.16162H16.25C16.9141 2.16162 17.5 2.74756 17.5 3.41162C17.5 4.11475 16.9141 4.66162 16.25 4.66162H1.25C0.546875 4.66162 0 4.11475 0 3.41162C0 2.74756 0.546875 2.16162 1.25 2.16162H5L5.27344 1.61475ZM15.3906 19.1538C15.3516 20.1694 14.5312 20.9116 13.5156 20.9116H3.94531C2.92969 20.9116 2.10938 20.1694 2.07031 19.1538L1.21094 5.91162H16.25L15.3906 19.1538Z" fill="black"/>
</svg>
