<svg width="20" height="17" viewBox="0 0 20 17" fill="none" xmlns="http://www.w3.org/2000/svg">
<path d="M7 1C7 0.46875 7.4375 0 8 0H12C12.5312 0 13 0.46875 13 1V2H14.5C15.3125 2 16 2.6875 16 3.5V7.5L17.375 7.96875C18.0938 8.21875 18.2812 9.15625 17.7188 9.65625L14.5625 12.5625C14.0625 12.8438 13.5 13.0312 13 13.0312C12.375 13.0312 11.7188 12.7812 11.125 12.4062C10.4375 11.9062 9.53125 11.9062 8.84375 12.4062C8.3125 12.75 7.65625 13.0312 7 13.0312C6.46875 13.0312 5.90625 12.8438 5.40625 12.5625L2.25 9.65625C1.6875 9.15625 1.875 8.21875 2.59375 7.96875L4 7.5V3.5C4 2.6875 4.65625 2 5.5 2H7V1ZM6 6.84375L9.34375 5.71875C9.75 5.59375 10.2188 5.59375 10.625 5.71875L14 6.84375V4H6V6.84375ZM13 14C13.8125 14 14.7188 13.6875 15.4062 13.1875C15.7812 12.9375 16.2812 12.9688 16.625 13.25C17.0938 13.625 17.6562 13.9062 18.2188 14.0312C18.75 14.1562 19.0938 14.7188 18.9688 15.25C18.8438 15.7812 18.2812 16.125 17.75 16C17 15.8125 16.3438 15.4688 15.9375 15.2188C15.0312 15.6875 14.0312 16 13 16C12 16 11.0938 15.7188 10.4688 15.4375C10.2812 15.3438 10.125 15.25 10 15.1875C9.84375 15.25 9.6875 15.3438 9.5 15.4375C8.875 15.7188 7.96875 16 7 16C5.9375 16 4.9375 15.6875 4.03125 15.2188C3.625 15.4688 2.96875 15.8125 2.21875 16C1.6875 16.125 1.125 15.7812 1 15.25C0.875 14.7188 1.21875 14.1562 1.75 14.0312C2.3125 13.9062 2.875 13.625 3.34375 13.25C3.6875 12.9688 4.1875 12.9375 4.5625 13.1875C5.25 13.6875 6.15625 14 7 14C7.84375 14 8.71875 13.6875 9.40625 13.1875C9.75 12.9375 10.2188 12.9375 10.5625 13.1875C11.25 13.6875 12.125 14 13 14Z" fill="#B8B8B8"/>
</svg>
