<svg width="15" height="14" viewBox="0 0 15 14" fill="none" xmlns="http://www.w3.org/2000/svg">
<path d="M7.14844 2.33594L7.4707 2.6875L7.82227 2.36523C8.78906 1.39844 10.166 0.958984 11.4844 1.19336C13.5059 1.51562 15 3.27344 15 5.32422V5.4707C15 6.70117 14.4727 7.87305 13.5938 8.69336L8.29102 13.6445C8.08594 13.8496 7.79297 13.9375 7.5 13.9375C7.17773 13.9375 6.88477 13.8496 6.67969 13.6445L1.37695 8.69336C0.498047 7.87305 0 6.70117 0 5.4707V5.32422C0 3.27344 1.46484 1.51562 3.48633 1.19336C4.80469 0.958984 6.18164 1.39844 7.14844 2.33594C7.14844 2.36523 7.11914 2.33594 7.14844 2.33594ZM7.4707 4.67969L6.15234 3.33203C5.50781 2.7168 4.59961 2.42383 3.7207 2.57031C2.37305 2.80469 1.40625 3.94727 1.40625 5.32422V5.4707C1.40625 6.32031 1.72852 7.11133 2.34375 7.66797L7.5 12.4727L12.627 7.66797C13.2422 7.11133 13.5938 6.32031 13.5938 5.4707V5.32422C13.5938 3.94727 12.5977 2.80469 11.25 2.57031C10.3711 2.42383 9.46289 2.7168 8.81836 3.33203L7.4707 4.67969Z" fill="black"/>
</svg>
