<svg width="16" height="15" viewBox="0 0 16 15" fill="none" xmlns="http://www.w3.org/2000/svg">
<path d="M15.7227 7.75C15.7227 8.24219 15.3125 8.625 14.8477 8.625H13.9727L14 13C14 13.082 14 13.1641 14 13.2188V13.6562C14 14.2852 13.5078 14.75 12.9062 14.75H12.4688C12.4141 14.75 12.3867 14.75 12.3594 14.75C12.332 14.75 12.2773 14.75 12.25 14.75H10.7188C10.0898 14.75 9.625 14.2852 9.625 13.6562V11.25C9.625 10.7852 9.21484 10.375 8.75 10.375H7C6.50781 10.375 6.125 10.7852 6.125 11.25V13.6562C6.125 14.2852 5.63281 14.75 5.03125 14.75H3.5C3.44531 14.75 3.41797 14.75 3.36328 14.75C3.33594 14.75 3.30859 14.75 3.28125 14.75H2.84375C2.21484 14.75 1.75 14.2852 1.75 13.6562V10.5938C1.75 10.5938 1.75 10.5664 1.75 10.5391V8.625H0.875C0.382812 8.625 0 8.24219 0 7.75C0 7.50391 0.0820312 7.28516 0.273438 7.09375L7.27344 0.996094C7.46484 0.804688 7.68359 0.75 7.875 0.75C8.06641 0.75 8.28516 0.832031 8.44922 0.96875L15.4219 7.09375C15.6406 7.28516 15.75 7.50391 15.7227 7.75Z" fill="#414141"/>
</svg>
