<svg width="10" height="10" viewBox="0 0 10 10" fill="none" xmlns="http://www.w3.org/2000/svg">
<path d="M5.375 3.00391C4.125 3.00391 3.12891 4.01953 3.12891 5.25C3.12891 6.5 4.125 7.49609 5.375 7.49609C6.60547 7.49609 7.62109 6.5 7.62109 5.25C7.62109 4.01953 6.60547 3.00391 5.375 3.00391ZM5.375 6.71484C4.57422 6.71484 3.91016 6.07031 3.91016 5.25C3.91016 4.44922 4.55469 3.80469 5.375 3.80469C6.17578 3.80469 6.82031 4.44922 6.82031 5.25C6.82031 6.07031 6.17578 6.71484 5.375 6.71484ZM8.22656 2.92578C8.22656 3.21875 7.99219 3.45312 7.69922 3.45312C7.40625 3.45312 7.17188 3.21875 7.17188 2.92578C7.17188 2.63281 7.40625 2.39844 7.69922 2.39844C7.99219 2.39844 8.22656 2.63281 8.22656 2.92578ZM9.71094 3.45312C9.67188 2.75 9.51562 2.125 9.00781 1.61719C8.5 1.10938 7.875 0.953125 7.17188 0.914062C6.44922 0.875 4.28125 0.875 3.55859 0.914062C2.85547 0.953125 2.25 1.10938 1.72266 1.61719C1.21484 2.125 1.05859 2.75 1.01953 3.45312C0.980469 4.17578 0.980469 6.34375 1.01953 7.06641C1.05859 7.76953 1.21484 8.375 1.72266 8.90234C2.25 9.41016 2.85547 9.56641 3.55859 9.60547C4.28125 9.64453 6.44922 9.64453 7.17188 9.60547C7.875 9.56641 8.5 9.41016 9.00781 8.90234C9.51562 8.375 9.67188 7.76953 9.71094 7.06641C9.75 6.34375 9.75 4.17578 9.71094 3.45312ZM8.77344 7.82812C8.63672 8.21875 8.32422 8.51172 7.95312 8.66797C7.36719 8.90234 6 8.84375 5.375 8.84375C4.73047 8.84375 3.36328 8.90234 2.79688 8.66797C2.40625 8.51172 2.11328 8.21875 1.95703 7.82812C1.72266 7.26172 1.78125 5.89453 1.78125 5.25C1.78125 4.625 1.72266 3.25781 1.95703 2.67188C2.11328 2.30078 2.40625 2.00781 2.79688 1.85156C3.36328 1.61719 4.73047 1.67578 5.375 1.67578C6 1.67578 7.36719 1.61719 7.95312 1.85156C8.32422 1.98828 8.61719 2.30078 8.77344 2.67188C9.00781 3.25781 8.94922 4.625 8.94922 5.25C8.94922 5.89453 9.00781 7.26172 8.77344 7.82812Z" fill="#7D7D7D"/>
</svg>
