<svg width="9" height="10" viewBox="0 0 9 10" fill="none" xmlns="http://www.w3.org/2000/svg">
<path d="M1.95312 10H0.136719V4.16016H1.95312V10ZM1.03516 3.37891C0.46875 3.37891 0 2.89062 0 2.30469C0 1.50391 0.859375 0.996094 1.5625 1.40625C1.89453 1.58203 2.08984 1.93359 2.08984 2.30469C2.08984 2.89062 1.62109 3.37891 1.03516 3.37891ZM8.73047 10H6.93359V7.16797C6.93359 6.48438 6.91406 5.625 5.97656 5.625C5.03906 5.625 4.90234 6.34766 4.90234 7.10938V10H3.08594V4.16016H4.82422V4.96094H4.84375C5.09766 4.51172 5.68359 4.02344 6.5625 4.02344C8.39844 4.02344 8.75 5.23438 8.75 6.79688V10H8.73047Z" fill="#7D7D7D"/>
</svg>
