<svg width="12" height="16" viewBox="0 0 12 16" fill="none" xmlns="http://www.w3.org/2000/svg">
<path d="M4.92188 15.5234C3.39844 13.6191 0 9.07812 0 6.5C0 3.39453 2.49023 0.875 5.625 0.875C8.73047 0.875 11.25 3.39453 11.25 6.5C11.25 9.07812 7.82227 13.6191 6.29883 15.5234C5.94727 15.9629 5.27344 15.9629 4.92188 15.5234ZM5.625 8.375C6.65039 8.375 7.5 7.55469 7.5 6.5C7.5 5.47461 6.65039 4.625 5.625 4.625C4.57031 4.625 3.75 5.47461 3.75 6.5C3.75 7.55469 4.57031 8.375 5.625 8.375Z" fill="#858585"/>
</svg>
