<svg width="20" height="14" viewBox="0 0 20 14" fill="none" xmlns="http://www.w3.org/2000/svg">
<path d="M2.34375 0.0625L10 1L17.625 0.0625C17.8438 0.03125 18.0625 0.15625 18.1562 0.34375L19.4375 2.9375C19.7188 3.5 19.4375 4.1875 18.8125 4.34375L13.7188 5.8125C13.2812 5.9375 12.8125 5.75 12.5938 5.34375L10 1L7.375 5.34375C7.15625 5.75 6.6875 5.9375 6.25 5.8125L1.15625 4.34375C0.53125 4.1875 0.25 3.5 0.53125 2.9375L1.8125 0.34375C1.90625 0.15625 2.125 0.03125 2.34375 0.0625ZM10.0312 3L11.7188 5.875C12.1875 6.65625 13.125 7 14 6.75L18 5.625V10.8438C18 11.5312 17.5312 12.125 16.8438 12.3125L10.4688 13.9062C10.1562 13.9688 9.8125 13.9688 9.5 13.9062L3.125 12.3125C2.4375 12.125 2 11.5312 2 10.8438V5.625L5.96875 6.75C6.84375 7 7.78125 6.65625 8.25 5.875L9.9375 3H10.0312Z" fill="#B8B8B8"/>
</svg>
