<svg width="18" height="19" viewBox="0 0 18 19" fill="none" xmlns="http://www.w3.org/2000/svg">
<path d="M17.5 14.5C17.5 16.6094 15.8203 18.25 13.75 18.25C11.6406 18.25 10 16.6094 10 14.5C10 14.3828 10 14.2266 10.0391 14.0703L6.32812 12.2344C5.66406 12.8594 4.72656 13.25 3.75 13.25C1.64062 13.25 0 11.6094 0 9.5C0 7.42969 1.64062 5.75 3.75 5.75C4.72656 5.75 5.66406 6.17969 6.32812 6.80469L10.0391 4.96875C10 4.8125 10 4.65625 10 4.5C10 2.42969 11.6406 0.75 13.75 0.75C15.8203 0.75 17.5 2.42969 17.5 4.5C17.5 6.60938 15.8203 8.25 13.75 8.25C12.7344 8.25 11.7969 7.85938 11.1328 7.23438L7.42188 9.07031C7.46094 9.22656 7.5 9.34375 7.5 9.5C7.5 9.65625 7.46094 9.8125 7.42188 9.96875L11.1328 11.8047C11.7969 11.1797 12.7344 10.75 13.75 10.75C15.8203 10.75 17.5 12.4297 17.5 14.5Z" fill="#161619"/>
</svg>
