<svg width="17" height="16" viewBox="0 0 17 16" fill="none" xmlns="http://www.w3.org/2000/svg">
<path d="M15.4688 5.91406C16.2305 6.03125 16.5527 6.96875 15.9961 7.55469L12.8906 10.543L13.623 14.791C13.7109 15.4062 13.2422 15.9043 12.6855 15.9043C12.5391 15.9043 12.3926 15.8457 12.2461 15.7871L8.4375 13.7656L4.59961 15.7871C4.45312 15.8457 4.30664 15.875 4.16016 15.875C3.60352 15.875 3.13477 15.4062 3.22266 14.791L3.95508 10.5137L0.849609 7.52539C0.292969 6.96875 0.615234 6.03125 1.37695 5.91406L5.6543 5.29883L7.58789 1.40234C7.76367 1.05078 8.08594 0.875 8.4082 0.875C8.75977 0.875 9.08203 1.05078 9.25781 1.40234L11.1914 5.29883L15.4688 5.91406ZM11.4258 10.2793C11.3965 10.1328 11.4551 9.98633 11.543 9.86914L14.3262 7.17383L10.4883 6.61719C10.3418 6.58789 10.1953 6.5 10.1367 6.35352L8.4375 2.86719L6.70898 6.35352C6.65039 6.5 6.50391 6.58789 6.35742 6.61719L2.51953 7.17383L5.30273 9.86914C5.39062 9.98633 5.44922 10.1328 5.41992 10.2793L4.77539 14.0879L8.20312 12.3008C8.34961 12.2129 8.49609 12.2129 8.64258 12.3008L12.0703 14.0879L11.4258 10.2793Z" fill="black"/>
</svg>
