<svg width="15" height="16" viewBox="0 0 15 16" fill="none" xmlns="http://www.w3.org/2000/svg">
<path d="M7.11914 10.8359C6.79688 11.1582 6.29883 11.1582 5.97656 10.8359L4.10156 8.96094C3.7793 8.63867 3.7793 8.14062 4.10156 7.81836C4.42383 7.49609 4.92188 7.49609 5.24414 7.81836L6.5625 9.10742L9.72656 5.94336C10.0488 5.62109 10.5469 5.62109 10.8691 5.94336C11.1914 6.26562 11.1914 6.76367 10.8691 7.08594L7.11914 10.8359ZM15 8.375C15 12.5352 11.6309 15.875 7.5 15.875C3.33984 15.875 0 12.5352 0 8.375C0 4.24414 3.33984 0.875 7.5 0.875C11.6309 0.875 15 4.24414 15 8.375ZM7.5 2.28125C4.13086 2.28125 1.40625 5.03516 1.40625 8.375C1.40625 11.7441 4.13086 14.4688 7.5 14.4688C10.8398 14.4688 13.5938 11.7441 13.5938 8.375C13.5938 5.03516 10.8398 2.28125 7.5 2.28125Z" fill="black"/>
</svg>
