<svg width="19" height="16" viewBox="0 0 19 16" fill="none" xmlns="http://www.w3.org/2000/svg">
<path d="M10.7812 0.875C11.543 0.875 12.1875 1.51953 12.1875 2.28125V3.6875H13.6523C14.1504 3.6875 14.6191 3.89258 15 4.24414L17.2559 6.5C17.6074 6.85156 17.8125 7.34961 17.8125 7.84766V11.1875C18.3105 11.1875 18.75 11.627 18.75 12.125C18.75 12.6523 18.3105 13.0625 17.8125 13.0625H16.875C16.875 14.6152 15.6152 15.875 14.0625 15.875C12.4805 15.875 11.25 14.6152 11.25 13.0625H7.5C7.5 14.6152 6.24023 15.875 4.6875 15.875C3.10547 15.875 1.875 14.6152 1.875 13.0625H1.40625C0.615234 13.0625 0 12.4473 0 11.6562V2.28125C0 1.51953 0.615234 0.875 1.40625 0.875H10.7812ZM12.1875 5.5625V8.375H15.9375V7.84766L13.6523 5.5625H12.1875ZM4.6875 11.6562C3.89648 11.6562 3.28125 12.3008 3.28125 13.0625C3.28125 13.8535 3.89648 14.4688 4.6875 14.4688C5.44922 14.4688 6.09375 13.8535 6.09375 13.0625C6.09375 12.3008 5.44922 11.6562 4.6875 11.6562ZM14.0625 14.4688C14.8242 14.4688 15.4688 13.8535 15.4688 13.0625C15.4688 12.3008 14.8242 11.6562 14.0625 11.6562C13.2715 11.6562 12.6562 12.3008 12.6562 13.0625C12.6562 13.8535 13.2715 14.4688 14.0625 14.4688Z" fill="#858585"/>
</svg>
