<svg width="10" height="9" viewBox="0 0 10 9" fill="none" xmlns="http://www.w3.org/2000/svg">
<path d="M8.96484 2.21875C8.96484 2.31641 8.96484 2.39453 8.96484 2.49219C8.96484 5.20703 6.91406 8.3125 3.14453 8.3125C1.97266 8.3125 0.898438 7.98047 0 7.39453C0.15625 7.41406 0.3125 7.43359 0.488281 7.43359C1.44531 7.43359 2.32422 7.10156 3.02734 6.55469C2.12891 6.53516 1.36719 5.94922 1.11328 5.12891C1.25 5.14844 1.36719 5.16797 1.50391 5.16797C1.67969 5.16797 1.875 5.12891 2.03125 5.08984C1.09375 4.89453 0.390625 4.07422 0.390625 3.07812V3.05859C0.664062 3.21484 0.996094 3.29297 1.32812 3.3125C0.761719 2.94141 0.410156 2.31641 0.410156 1.61328C0.410156 1.22266 0.507812 0.871094 0.683594 0.578125C1.69922 1.80859 3.22266 2.62891 4.92188 2.72656C4.88281 2.57031 4.86328 2.41406 4.86328 2.25781C4.86328 1.125 5.78125 0.207031 6.91406 0.207031C7.5 0.207031 8.02734 0.441406 8.41797 0.851562C8.86719 0.753906 9.31641 0.578125 9.70703 0.34375C9.55078 0.832031 9.23828 1.22266 8.80859 1.47656C9.21875 1.4375 9.62891 1.32031 9.98047 1.16406C9.70703 1.57422 9.35547 1.92578 8.96484 2.21875Z" fill="#7D7D7D"/>
</svg>
