<svg width="20" height="20" viewBox="0 0 20 20" fill="none" xmlns="http://www.w3.org/2000/svg">
<path d="M10.1302 9.05866C10.0469 9.05033 9.94688 9.05033 9.85521 9.05866C7.87188 8.99199 6.29688 7.36699 6.29688 5.36699C6.29687 3.32533 7.94688 1.66699 9.99688 1.66699C12.0385 1.66699 13.6969 3.32533 13.6969 5.36699C13.6885 7.36699 12.1135 8.99199 10.1302 9.05866Z" stroke="black" stroke-width="1.5" stroke-linecap="round" stroke-linejoin="round"/>
<path d="M5.96562 12.133C3.94896 13.483 3.94896 15.683 5.96562 17.0247C8.25729 18.558 12.0156 18.558 14.3073 17.0247C16.324 15.6747 16.324 13.4747 14.3073 12.133C12.024 10.608 8.26562 10.608 5.96562 12.133Z" stroke="black" stroke-width="1.5" stroke-linecap="round" stroke-linejoin="round"/>
</svg>
