<svg width="17" height="12" viewBox="0 0 17 12" fill="none" xmlns="http://www.w3.org/2000/svg">
<path d="M16.8203 5.96484C16.8789 6.08203 16.9082 6.22852 16.9082 6.4043C16.9082 6.55078 16.8789 6.69727 16.8203 6.81445C15.2383 9.91992 12.0742 12 8.5 12C4.89648 12 1.73242 9.91992 0.150391 6.81445C0.0917969 6.69727 0.0625 6.55078 0.0625 6.375C0.0625 6.22852 0.0917969 6.08203 0.150391 5.96484C1.73242 2.85938 4.89648 0.75 8.5 0.75C12.0742 0.75 15.2383 2.85938 16.8203 5.96484ZM8.5 10.5938V10.623C10.8145 10.623 12.7188 8.71875 12.7188 6.4043V6.375C12.7188 4.06055 10.8145 2.15625 8.5 2.15625C6.15625 2.15625 4.28125 4.06055 4.28125 6.375C4.28125 8.71875 6.15625 10.5938 8.5 10.5938ZM8.5 3.5625V3.5918C10.0527 3.5918 11.3125 4.82227 11.3125 6.375C11.3125 7.92773 10.0527 9.1875 8.5 9.1875C6.94727 9.1875 5.6875 7.92773 5.6875 6.375C5.6875 6.14062 5.7168 5.87695 5.77539 5.64258C6.00977 5.81836 6.30273 5.90625 6.625 5.90625C7.38672 5.90625 8.00195 5.29102 8.00195 4.5293C8.00195 4.20703 7.91406 3.91406 7.73828 3.67969C7.97266 3.62109 8.23633 3.5918 8.5 3.5625Z" fill="black"/>
</svg>
