<svg width="17" height="12" viewBox="0 0 17 12" fill="none" xmlns="http://www.w3.org/2000/svg">
<path d="M16.1465 2.53711C15.9707 1.83398 15.4141 1.27734 14.7402 1.10156C13.4805 0.75 8.5 0.75 8.5 0.75C8.5 0.75 3.49023 0.75 2.23047 1.10156C1.55664 1.27734 1 1.83398 0.824219 2.53711C0.472656 3.76758 0.472656 6.4043 0.472656 6.4043C0.472656 6.4043 0.472656 9.01172 0.824219 10.2715C1 10.9746 1.55664 11.502 2.23047 11.6777C3.49023 12 8.5 12 8.5 12C8.5 12 13.4805 12 14.7402 11.6777C15.4141 11.502 15.9707 10.9746 16.1465 10.2715C16.498 9.01172 16.498 6.4043 16.498 6.4043C16.498 6.4043 16.498 3.76758 16.1465 2.53711ZM6.85938 8.77734V4.03125L11.0195 6.4043L6.85938 8.77734Z" fill="#494949"/>
</svg>
