<svg width="159" height="158" viewBox="0 0 159 158" fill="none" xmlns="http://www.w3.org/2000/svg">
<path d="M3.45264 1.71529C3.45264 2.05453 3.35139 2.38616 3.1617 2.66823C2.97201 2.9503 2.7024 3.17015 2.38695 3.29997C2.07151 3.42979 1.72441 3.46376 1.38953 3.39758C1.05466 3.33139 0.747059 3.16803 0.505629 2.92815C0.264199 2.68827 0.0997827 2.38264 0.0331723 2.04991C-0.0334381 1.71719 0.000748783 1.37231 0.13141 1.05889C0.262071 0.745469 0.483337 0.477584 0.767229 0.28911C1.05112 0.100636 1.38489 3.88992e-05 1.72632 3.88992e-05C1.95333 -0.00103773 2.1783 0.0425935 2.38823 0.128411C2.59817 0.214229 2.78891 0.340533 2.94943 0.500023C3.10995 0.659513 3.23707 0.849028 3.32344 1.05762C3.40981 1.26621 3.45372 1.48974 3.45264 1.71529Z" fill="#EF8BB6"/>
<path d="M25.9684 1.71527C25.9684 2.05451 25.8672 2.38614 25.6775 2.66821C25.4878 2.95028 25.2182 3.17013 24.9027 3.29995C24.5873 3.42977 24.2402 3.46374 23.9053 3.39756C23.5704 3.33137 23.2628 3.16801 23.0214 2.92813C22.78 2.68825 22.6156 2.38262 22.549 2.0499C22.4823 1.71717 22.5165 1.37229 22.6472 1.05887C22.7779 0.74545 22.9991 0.477565 23.283 0.289091C23.5669 0.100617 23.9007 1.94496e-05 24.2421 1.94496e-05C24.4691 -0.00105718 24.6941 0.042574 24.904 0.128392C25.1139 0.21421 25.3047 0.340513 25.4652 0.500003C25.6257 0.659494 25.7528 0.849009 25.8392 1.0576C25.9256 1.26619 25.9695 1.48972 25.9684 1.71527Z" fill="#EF8BB6"/>
<path d="M48.4842 1.71527C48.4842 2.05451 48.383 2.38614 48.1933 2.66821C48.0036 2.95028 47.734 3.17013 47.4185 3.29995C47.1031 3.42977 46.756 3.46374 46.4211 3.39756C46.0862 3.33137 45.7786 3.16801 45.5372 2.92813C45.2958 2.68825 45.1313 2.38262 45.0647 2.0499C44.9981 1.71717 45.0323 1.37229 45.163 1.05887C45.2936 0.74545 45.5149 0.477565 45.7988 0.289091C46.0827 0.100617 46.4165 1.94496e-05 46.7579 1.94496e-05C46.9849 -0.00105718 47.2099 0.042574 47.4198 0.128392C47.6297 0.21421 47.8205 0.340513 47.981 0.500003C48.1415 0.659494 48.2686 0.849009 48.355 1.0576C48.4414 1.26619 48.4853 1.48972 48.4842 1.71527Z" fill="#EF8BB6"/>
<path d="M69.2737 3.43051C70.2271 3.43051 71 2.66257 71 1.71527C71 0.767962 70.2271 1.94496e-05 69.2737 1.94496e-05C68.3202 1.94496e-05 67.5473 0.767962 67.5473 1.71527C67.5473 2.66257 68.3202 3.43051 69.2737 3.43051Z" fill="#EF8BB6"/>
<path d="M3.45264 23.8915C3.45264 24.2308 3.35139 24.5624 3.1617 24.8445C2.97201 25.1266 2.7024 25.3464 2.38695 25.4762C2.07151 25.6061 1.7244 25.64 1.38953 25.5738C1.05466 25.5077 0.747058 25.3443 0.505628 25.1044C0.264198 24.8645 0.0997819 24.5589 0.0331715 24.2262C-0.0334389 23.8934 0.000747994 23.5486 0.131409 23.2351C0.26207 22.9217 0.483337 22.6538 0.767228 22.4654C1.05112 22.2769 1.38489 22.1763 1.72632 22.1763C1.95333 22.1752 2.1783 22.2189 2.38823 22.3047C2.59817 22.3905 2.78891 22.5168 2.94943 22.6763C3.10995 22.8358 3.23707 23.0253 3.32344 23.2339C3.40981 23.4425 3.45372 23.666 3.45264 23.8915Z" fill="#EF8BB6"/>
<path d="M25.9684 23.8915C25.9684 24.2308 25.8672 24.5624 25.6775 24.8445C25.4878 25.1266 25.2182 25.3464 24.9027 25.4762C24.5873 25.6061 24.2402 25.64 23.9053 25.5738C23.5704 25.5077 23.2628 25.3443 23.0214 25.1044C22.78 24.8645 22.6156 24.5589 22.549 24.2262C22.4823 23.8934 22.5165 23.5486 22.6472 23.2351C22.7779 22.9217 22.9991 22.6538 23.283 22.4654C23.5669 22.2769 23.9007 22.1763 24.2421 22.1763C24.4691 22.1752 24.6941 22.2189 24.904 22.3047C25.1139 22.3905 25.3047 22.5168 25.4652 22.6763C25.6257 22.8358 25.7528 23.0253 25.8392 23.2339C25.9256 23.4425 25.9695 23.666 25.9684 23.8915Z" fill="#EF8BB6"/>
<path d="M48.4842 23.8915C48.4842 24.2308 48.383 24.5624 48.1933 24.8445C48.0036 25.1266 47.734 25.3464 47.4185 25.4762C47.1031 25.6061 46.756 25.64 46.4211 25.5738C46.0862 25.5077 45.7786 25.3443 45.5372 25.1044C45.2958 24.8645 45.1313 24.5589 45.0647 24.2262C44.9981 23.8934 45.0323 23.5486 45.163 23.2351C45.2936 22.9217 45.5149 22.6538 45.7988 22.4654C46.0827 22.2769 46.4165 22.1763 46.7579 22.1763C46.9849 22.1752 47.2099 22.2189 47.4198 22.3047C47.6297 22.3905 47.8205 22.5168 47.981 22.6763C48.1415 22.8358 48.2686 23.0253 48.355 23.2339C48.4414 23.4425 48.4853 23.666 48.4842 23.8915Z" fill="#EF8BB6"/>
<path d="M69.2737 25.6068C70.2271 25.6068 71 24.8389 71 23.8915C71 22.9442 70.2271 22.1763 69.2737 22.1763C68.3202 22.1763 67.5473 22.9442 67.5473 23.8915C67.5473 24.8389 68.3202 25.6068 69.2737 25.6068Z" fill="#EF8BB6"/>
<path d="M3.45264 46.0678C3.45264 46.4071 3.35139 46.7387 3.1617 47.0208C2.97201 47.3028 2.7024 47.5227 2.38695 47.6525C2.07151 47.7823 1.7244 47.8163 1.38953 47.7501C1.05466 47.6839 0.747058 47.5206 0.505628 47.2807C0.264198 47.0408 0.0997819 46.7352 0.0331715 46.4025C-0.0334389 46.0697 0.000747994 45.7248 0.131409 45.4114C0.26207 45.098 0.483337 44.8301 0.767228 44.6417C1.05112 44.4532 1.38489 44.3526 1.72632 44.3526C1.95333 44.3515 2.1783 44.3951 2.38823 44.481C2.59817 44.5668 2.78891 44.6931 2.94943 44.8526C3.10995 45.0121 3.23707 45.2016 3.32344 45.4102C3.40981 45.6187 3.45372 45.8423 3.45264 46.0678Z" fill="#EF8BB6"/>
<path d="M25.9684 46.0678C25.9684 46.4071 25.8672 46.7387 25.6775 47.0208C25.4878 47.3028 25.2182 47.5227 24.9027 47.6525C24.5873 47.7823 24.2402 47.8163 23.9053 47.7501C23.5704 47.6839 23.2628 47.5206 23.0214 47.2807C22.78 47.0408 22.6156 46.7352 22.549 46.4025C22.4823 46.0697 22.5165 45.7248 22.6472 45.4114C22.7779 45.098 22.9991 44.8301 23.283 44.6417C23.5669 44.4532 23.9007 44.3526 24.2421 44.3526C24.4691 44.3515 24.6941 44.3951 24.904 44.481C25.1139 44.5668 25.3047 44.6931 25.4652 44.8526C25.6257 45.0121 25.7528 45.2016 25.8392 45.4102C25.9256 45.6187 25.9695 45.8423 25.9684 46.0678Z" fill="#EF8BB6"/>
<path d="M48.4842 46.0678C48.4842 46.4071 48.383 46.7387 48.1933 47.0208C48.0036 47.3028 47.734 47.5227 47.4185 47.6525C47.1031 47.7823 46.756 47.8163 46.4211 47.7501C46.0862 47.6839 45.7786 47.5206 45.5372 47.2807C45.2958 47.0408 45.1313 46.7352 45.0647 46.4025C44.9981 46.0697 45.0323 45.7248 45.163 45.4114C45.2936 45.098 45.5149 44.8301 45.7988 44.6417C46.0827 44.4532 46.4165 44.3526 46.7579 44.3526C46.9849 44.3515 47.2099 44.3951 47.4198 44.481C47.6297 44.5668 47.8205 44.6931 47.981 44.8526C48.1415 45.0121 48.2686 45.2016 48.355 45.4102C48.4414 45.6187 48.4853 45.8423 48.4842 46.0678Z" fill="#EF8BB6"/>
<path d="M71 46.0678C71 46.4071 70.8987 46.7387 70.709 47.0208C70.5194 47.3028 70.2497 47.5227 69.9343 47.6525C69.6189 47.7823 69.2717 47.8163 68.9369 47.7501C68.602 47.6839 68.2944 47.5206 68.053 47.2807C67.8115 47.0408 67.6471 46.7352 67.5805 46.4025C67.5139 46.0697 67.5481 45.7248 67.6787 45.4114C67.8094 45.098 68.0307 44.8301 68.3146 44.6417C68.5985 44.4532 68.9322 44.3526 69.2737 44.3526C69.5007 44.3515 69.7256 44.3951 69.9356 44.481C70.1455 44.5668 70.3363 44.6931 70.4968 44.8526C70.6573 45.0121 70.7844 45.2016 70.8708 45.4102C70.9572 45.6187 71.0011 45.8423 71 46.0678Z" fill="#EF8BB6"/>
<path d="M3.45264 68.2848C3.45264 68.624 3.35139 68.9556 3.1617 69.2377C2.97201 69.5198 2.7024 69.7396 2.38695 69.8694C2.07151 69.9993 1.7244 70.0332 1.38953 69.967C1.05466 69.9009 0.747058 69.7375 0.505628 69.4976C0.264198 69.2577 0.0997819 68.9521 0.0331715 68.6194C-0.0334389 68.2867 0.000747994 67.9418 0.131409 67.6283C0.26207 67.3149 0.483337 67.0471 0.767228 66.8586C1.05112 66.6701 1.38489 66.5695 1.72632 66.5695C1.95333 66.5684 2.1783 66.6121 2.38823 66.6979C2.59817 66.7837 2.78891 66.91 2.94943 67.0695C3.10995 67.229 3.23707 67.4185 3.32344 67.6271C3.40981 67.8357 3.45372 68.0592 3.45264 68.2848Z" fill="#EF8BB6"/>
<path d="M25.9684 68.2848C25.9684 68.624 25.8672 68.9556 25.6775 69.2377C25.4878 69.5198 25.2182 69.7396 24.9027 69.8694C24.5873 69.9993 24.2402 70.0332 23.9053 69.967C23.5704 69.9009 23.2628 69.7375 23.0214 69.4976C22.78 69.2577 22.6156 68.9521 22.549 68.6194C22.4823 68.2867 22.5165 67.9418 22.6472 67.6283C22.7779 67.3149 22.9991 67.0471 23.283 66.8586C23.5669 66.6701 23.9007 66.5695 24.2421 66.5695C24.4691 66.5684 24.6941 66.6121 24.904 66.6979C25.1139 66.7837 25.3047 66.91 25.4652 67.0695C25.6257 67.229 25.7528 67.4185 25.8392 67.6271C25.9256 67.8357 25.9695 68.0592 25.9684 68.2848Z" fill="#EF8BB6"/>
<path d="M48.4842 68.2848C48.4842 68.624 48.383 68.9556 48.1933 69.2377C48.0036 69.5198 47.734 69.7396 47.4185 69.8694C47.1031 69.9993 46.756 70.0332 46.4211 69.967C46.0862 69.9009 45.7786 69.7375 45.5372 69.4976C45.2958 69.2577 45.1313 68.9521 45.0647 68.6194C44.9981 68.2867 45.0323 67.9418 45.163 67.6283C45.2936 67.3149 45.5149 67.0471 45.7988 66.8586C46.0827 66.6701 46.4165 66.5695 46.7579 66.5695C46.9849 66.5684 47.2099 66.6121 47.4198 66.6979C47.6297 66.7837 47.8205 66.91 47.981 67.0695C48.1415 67.229 48.2686 67.4185 48.355 67.6271C48.4414 67.8357 48.4853 68.0592 48.4842 68.2848Z" fill="#EF8BB6"/>
<path d="M69.2737 69.9594C70.2271 69.9594 71 69.1914 71 68.2441C71 67.2968 70.2271 66.5289 69.2737 66.5289C68.3202 66.5289 67.5473 67.2968 67.5473 68.2441C67.5473 69.1914 68.3202 69.9594 69.2737 69.9594Z" fill="#EF8BB6"/>
<path d="M91.4526 1.71529C91.4526 2.05453 91.3514 2.38616 91.1617 2.66823C90.972 2.9503 90.7024 3.17015 90.387 3.29997C90.0715 3.42979 89.7244 3.46376 89.3895 3.39758C89.0547 3.33139 88.7471 3.16803 88.5056 2.92815C88.2642 2.68827 88.0998 2.38264 88.0332 2.04991C87.9666 1.71719 88.0007 1.37231 88.1314 1.05889C88.2621 0.745469 88.4833 0.477584 88.7672 0.28911C89.0511 0.100636 89.3849 3.88992e-05 89.7263 3.88992e-05C89.9533 -0.00103773 90.1783 0.0425935 90.3882 0.128411C90.5982 0.214229 90.7889 0.340533 90.9494 0.500023C91.1099 0.659513 91.2371 0.849028 91.3234 1.05762C91.4098 1.26621 91.4537 1.48974 91.4526 1.71529Z" fill="#EF8BB6"/>
<path d="M113.968 1.71527C113.968 2.05451 113.867 2.38614 113.677 2.66821C113.488 2.95028 113.218 3.17013 112.903 3.29995C112.587 3.42977 112.24 3.46374 111.905 3.39756C111.57 3.33137 111.263 3.16801 111.021 2.92813C110.78 2.68825 110.616 2.38262 110.549 2.0499C110.482 1.71717 110.517 1.37229 110.647 1.05887C110.778 0.74545 110.999 0.477565 111.283 0.289091C111.567 0.100617 111.901 1.94496e-05 112.242 1.94496e-05C112.469 -0.00105718 112.694 0.042574 112.904 0.128392C113.114 0.21421 113.305 0.340513 113.465 0.500003C113.626 0.659494 113.753 0.849009 113.839 1.0576C113.926 1.26619 113.97 1.48972 113.968 1.71527Z" fill="#EF8BB6"/>
<path d="M136.484 1.71527C136.484 2.05451 136.383 2.38614 136.193 2.66821C136.004 2.95028 135.734 3.17013 135.419 3.29995C135.103 3.42977 134.756 3.46374 134.421 3.39756C134.086 3.33137 133.779 3.16801 133.537 2.92813C133.296 2.68825 133.131 2.38262 133.065 2.0499C132.998 1.71717 133.032 1.37229 133.163 1.05887C133.294 0.74545 133.515 0.477565 133.799 0.289091C134.083 0.100617 134.416 1.94496e-05 134.758 1.94496e-05C134.985 -0.00105718 135.21 0.042574 135.42 0.128392C135.63 0.21421 135.82 0.340513 135.981 0.500003C136.142 0.659494 136.269 0.849009 136.355 1.0576C136.441 1.26619 136.485 1.48972 136.484 1.71527Z" fill="#EF8BB6"/>
<path d="M157.274 3.43051C158.227 3.43051 159 2.66257 159 1.71527C159 0.767962 158.227 1.94496e-05 157.274 1.94496e-05C156.32 1.94496e-05 155.547 0.767962 155.547 1.71527C155.547 2.66257 156.32 3.43051 157.274 3.43051Z" fill="#EF8BB6"/>
<path d="M91.4526 23.8915C91.4526 24.2308 91.3514 24.5624 91.1617 24.8445C90.972 25.1266 90.7024 25.3464 90.387 25.4762C90.0715 25.6061 89.7244 25.64 89.3895 25.5738C89.0547 25.5077 88.7471 25.3443 88.5056 25.1044C88.2642 24.8645 88.0998 24.5589 88.0332 24.2262C87.9666 23.8934 88.0007 23.5486 88.1314 23.2351C88.2621 22.9217 88.4833 22.6538 88.7672 22.4654C89.0511 22.2769 89.3849 22.1763 89.7263 22.1763C89.9533 22.1752 90.1783 22.2189 90.3882 22.3047C90.5982 22.3905 90.7889 22.5168 90.9494 22.6763C91.1099 22.8358 91.2371 23.0253 91.3234 23.2339C91.4098 23.4425 91.4537 23.666 91.4526 23.8915Z" fill="#EF8BB6"/>
<path d="M113.968 23.8915C113.968 24.2308 113.867 24.5624 113.677 24.8445C113.488 25.1266 113.218 25.3464 112.903 25.4762C112.587 25.6061 112.24 25.64 111.905 25.5738C111.57 25.5077 111.263 25.3443 111.021 25.1044C110.78 24.8645 110.616 24.5589 110.549 24.2262C110.482 23.8934 110.517 23.5486 110.647 23.2351C110.778 22.9217 110.999 22.6538 111.283 22.4654C111.567 22.2769 111.901 22.1763 112.242 22.1763C112.469 22.1752 112.694 22.2189 112.904 22.3047C113.114 22.3905 113.305 22.5168 113.465 22.6763C113.626 22.8358 113.753 23.0253 113.839 23.2339C113.926 23.4425 113.97 23.666 113.968 23.8915Z" fill="#EF8BB6"/>
<path d="M136.484 23.8915C136.484 24.2308 136.383 24.5624 136.193 24.8445C136.004 25.1266 135.734 25.3464 135.419 25.4762C135.103 25.6061 134.756 25.64 134.421 25.5738C134.086 25.5077 133.779 25.3443 133.537 25.1044C133.296 24.8645 133.131 24.5589 133.065 24.2262C132.998 23.8934 133.032 23.5486 133.163 23.2351C133.294 22.9217 133.515 22.6538 133.799 22.4654C134.083 22.2769 134.416 22.1763 134.758 22.1763C134.985 22.1752 135.21 22.2189 135.42 22.3047C135.63 22.3905 135.82 22.5168 135.981 22.6763C136.142 22.8358 136.269 23.0253 136.355 23.2339C136.441 23.4425 136.485 23.666 136.484 23.8915Z" fill="#EF8BB6"/>
<path d="M157.274 25.6068C158.227 25.6068 159 24.8389 159 23.8915C159 22.9442 158.227 22.1763 157.274 22.1763C156.32 22.1763 155.547 22.9442 155.547 23.8915C155.547 24.8389 156.32 25.6068 157.274 25.6068Z" fill="#EF8BB6"/>
<path d="M91.4526 46.0678C91.4526 46.4071 91.3514 46.7387 91.1617 47.0208C90.972 47.3028 90.7024 47.5227 90.387 47.6525C90.0715 47.7823 89.7244 47.8163 89.3895 47.7501C89.0547 47.6839 88.7471 47.5206 88.5056 47.2807C88.2642 47.0408 88.0998 46.7352 88.0332 46.4025C87.9666 46.0697 88.0007 45.7248 88.1314 45.4114C88.2621 45.098 88.4833 44.8301 88.7672 44.6417C89.0511 44.4532 89.3849 44.3526 89.7263 44.3526C89.9533 44.3515 90.1783 44.3951 90.3882 44.481C90.5982 44.5668 90.7889 44.6931 90.9494 44.8526C91.1099 45.0121 91.2371 45.2016 91.3234 45.4102C91.4098 45.6187 91.4537 45.8423 91.4526 46.0678Z" fill="#EF8BB6"/>
<path d="M113.968 46.0678C113.968 46.4071 113.867 46.7387 113.677 47.0208C113.488 47.3028 113.218 47.5227 112.903 47.6525C112.587 47.7823 112.24 47.8163 111.905 47.7501C111.57 47.6839 111.263 47.5206 111.021 47.2807C110.78 47.0408 110.616 46.7352 110.549 46.4025C110.482 46.0697 110.517 45.7248 110.647 45.4114C110.778 45.098 110.999 44.8301 111.283 44.6417C111.567 44.4532 111.901 44.3526 112.242 44.3526C112.469 44.3515 112.694 44.3951 112.904 44.481C113.114 44.5668 113.305 44.6931 113.465 44.8526C113.626 45.0121 113.753 45.2016 113.839 45.4102C113.926 45.6187 113.97 45.8423 113.968 46.0678Z" fill="#EF8BB6"/>
<path d="M136.484 46.0678C136.484 46.4071 136.383 46.7387 136.193 47.0208C136.004 47.3028 135.734 47.5227 135.419 47.6525C135.103 47.7823 134.756 47.8163 134.421 47.7501C134.086 47.6839 133.779 47.5206 133.537 47.2807C133.296 47.0408 133.131 46.7352 133.065 46.4025C132.998 46.0697 133.032 45.7248 133.163 45.4114C133.294 45.098 133.515 44.8301 133.799 44.6417C134.083 44.4532 134.416 44.3526 134.758 44.3526C134.985 44.3515 135.21 44.3951 135.42 44.481C135.63 44.5668 135.82 44.6931 135.981 44.8526C136.142 45.0121 136.269 45.2016 136.355 45.4102C136.441 45.6187 136.485 45.8423 136.484 46.0678Z" fill="#EF8BB6"/>
<path d="M159 46.0678C159 46.4071 158.899 46.7387 158.709 47.0208C158.519 47.3028 158.25 47.5227 157.934 47.6525C157.619 47.7823 157.272 47.8163 156.937 47.7501C156.602 47.6839 156.294 47.5206 156.053 47.2807C155.812 47.0408 155.647 46.7352 155.581 46.4025C155.514 46.0697 155.548 45.7248 155.679 45.4114C155.809 45.098 156.031 44.8301 156.315 44.6417C156.598 44.4532 156.932 44.3526 157.274 44.3526C157.501 44.3515 157.726 44.3951 157.936 44.481C158.146 44.5668 158.336 44.6931 158.497 44.8526C158.657 45.0121 158.784 45.2016 158.871 45.4102C158.957 45.6187 159.001 45.8423 159 46.0678Z" fill="#EF8BB6"/>
<path d="M91.4526 68.2848C91.4526 68.624 91.3514 68.9556 91.1617 69.2377C90.972 69.5198 90.7024 69.7396 90.387 69.8694C90.0715 69.9993 89.7244 70.0332 89.3895 69.967C89.0547 69.9009 88.7471 69.7375 88.5056 69.4976C88.2642 69.2577 88.0998 68.9521 88.0332 68.6194C87.9666 68.2867 88.0007 67.9418 88.1314 67.6283C88.2621 67.3149 88.4833 67.0471 88.7672 66.8586C89.0511 66.6701 89.3849 66.5695 89.7263 66.5695C89.9533 66.5684 90.1783 66.6121 90.3882 66.6979C90.5982 66.7837 90.7889 66.91 90.9494 67.0695C91.1099 67.229 91.2371 67.4185 91.3234 67.6271C91.4098 67.8357 91.4537 68.0592 91.4526 68.2848Z" fill="#EF8BB6"/>
<path d="M113.968 68.2848C113.968 68.624 113.867 68.9556 113.677 69.2377C113.488 69.5198 113.218 69.7396 112.903 69.8694C112.587 69.9993 112.24 70.0332 111.905 69.967C111.57 69.9009 111.263 69.7375 111.021 69.4976C110.78 69.2577 110.616 68.9521 110.549 68.6194C110.482 68.2867 110.517 67.9418 110.647 67.6283C110.778 67.3149 110.999 67.0471 111.283 66.8586C111.567 66.6701 111.901 66.5695 112.242 66.5695C112.469 66.5684 112.694 66.6121 112.904 66.6979C113.114 66.7837 113.305 66.91 113.465 67.0695C113.626 67.229 113.753 67.4185 113.839 67.6271C113.926 67.8357 113.97 68.0592 113.968 68.2848Z" fill="#EF8BB6"/>
<path d="M136.484 68.2848C136.484 68.624 136.383 68.9556 136.193 69.2377C136.004 69.5198 135.734 69.7396 135.419 69.8694C135.103 69.9993 134.756 70.0332 134.421 69.967C134.086 69.9009 133.779 69.7375 133.537 69.4976C133.296 69.2577 133.131 68.9521 133.065 68.6194C132.998 68.2867 133.032 67.9418 133.163 67.6283C133.294 67.3149 133.515 67.0471 133.799 66.8586C134.083 66.6701 134.416 66.5695 134.758 66.5695C134.985 66.5684 135.21 66.6121 135.42 66.6979C135.63 66.7837 135.82 66.91 135.981 67.0695C136.142 67.229 136.269 67.4185 136.355 67.6271C136.441 67.8357 136.485 68.0592 136.484 68.2848Z" fill="#EF8BB6"/>
<path d="M157.274 69.9594C158.227 69.9594 159 69.1914 159 68.2441C159 67.2968 158.227 66.5289 157.274 66.5289C156.32 66.5289 155.547 67.2968 155.547 68.2441C155.547 69.1914 156.32 69.9594 157.274 69.9594Z" fill="#EF8BB6"/>
<path d="M3.45264 89.7153C3.45264 90.0545 3.35139 90.3862 3.1617 90.6682C2.97201 90.9503 2.7024 91.1701 2.38695 91.3C2.07151 91.4298 1.72441 91.4638 1.38953 91.3976C1.05466 91.3314 0.747059 91.168 0.505629 90.9281C0.264199 90.6883 0.0997827 90.3826 0.0331723 90.0499C-0.0334381 89.7172 0.000748783 89.3723 0.13141 89.0589C0.262071 88.7455 0.483337 88.4776 0.767229 88.2891C1.05112 88.1006 1.38489 88 1.72632 88C1.95333 87.999 2.1783 88.0426 2.38823 88.1284C2.59817 88.2142 2.78891 88.3405 2.94943 88.5C3.10995 88.6595 3.23707 88.849 3.32344 89.0576C3.40981 89.2662 3.45372 89.4897 3.45264 89.7153Z" fill="#EF8BB6"/>
<path d="M25.9684 89.7153C25.9684 90.0545 25.8672 90.3861 25.6775 90.6682C25.4878 90.9503 25.2182 91.1701 24.9027 91.2999C24.5873 91.4298 24.2402 91.4637 23.9053 91.3976C23.5704 91.3314 23.2628 91.168 23.0214 90.9281C22.78 90.6882 22.6156 90.3826 22.549 90.0499C22.4823 89.7172 22.5165 89.3723 22.6472 89.0589C22.7779 88.7454 22.9991 88.4776 23.283 88.2891C23.5669 88.1006 23.9007 88 24.2421 88C24.4691 87.9989 24.6941 88.0426 24.904 88.1284C25.1139 88.2142 25.3047 88.3405 25.4652 88.5C25.6257 88.6595 25.7528 88.849 25.8392 89.0576C25.9256 89.2662 25.9695 89.4897 25.9684 89.7153Z" fill="#EF8BB6"/>
<path d="M48.4842 89.7153C48.4842 90.0545 48.383 90.3861 48.1933 90.6682C48.0036 90.9503 47.734 91.1701 47.4185 91.2999C47.1031 91.4298 46.756 91.4637 46.4211 91.3976C46.0862 91.3314 45.7786 91.168 45.5372 90.9281C45.2958 90.6882 45.1313 90.3826 45.0647 90.0499C44.9981 89.7172 45.0323 89.3723 45.163 89.0589C45.2936 88.7454 45.5149 88.4776 45.7988 88.2891C46.0827 88.1006 46.4165 88 46.7579 88C46.9849 87.9989 47.2099 88.0426 47.4198 88.1284C47.6297 88.2142 47.8205 88.3405 47.981 88.5C48.1415 88.6595 48.2686 88.849 48.355 89.0576C48.4414 89.2662 48.4853 89.4897 48.4842 89.7153Z" fill="#EF8BB6"/>
<path d="M69.2737 91.4305C70.2271 91.4305 71 90.6626 71 89.7153C71 88.768 70.2271 88 69.2737 88C68.3202 88 67.5473 88.768 67.5473 89.7153C67.5473 90.6626 68.3202 91.4305 69.2737 91.4305Z" fill="#EF8BB6"/>
<path d="M3.45264 111.892C3.45264 112.231 3.35139 112.562 3.1617 112.844C2.97201 113.127 2.7024 113.346 2.38695 113.476C2.07151 113.606 1.7244 113.64 1.38953 113.574C1.05466 113.508 0.747058 113.344 0.505628 113.104C0.264198 112.865 0.0997819 112.559 0.0331715 112.226C-0.0334389 111.893 0.000747994 111.549 0.131409 111.235C0.26207 110.922 0.483337 110.654 0.767228 110.465C1.05112 110.277 1.38489 110.176 1.72632 110.176C1.95333 110.175 2.1783 110.219 2.38823 110.305C2.59817 110.39 2.78891 110.517 2.94943 110.676C3.10995 110.836 3.23707 111.025 3.32344 111.234C3.40981 111.442 3.45372 111.666 3.45264 111.892Z" fill="#EF8BB6"/>
<path d="M25.9684 111.892C25.9684 112.231 25.8672 112.562 25.6775 112.844C25.4878 113.127 25.2182 113.346 24.9027 113.476C24.5873 113.606 24.2402 113.64 23.9053 113.574C23.5704 113.508 23.2628 113.344 23.0214 113.104C22.78 112.865 22.6156 112.559 22.549 112.226C22.4823 111.893 22.5165 111.549 22.6472 111.235C22.7779 110.922 22.9991 110.654 23.283 110.465C23.5669 110.277 23.9007 110.176 24.2421 110.176C24.4691 110.175 24.6941 110.219 24.904 110.305C25.1139 110.39 25.3047 110.517 25.4652 110.676C25.6257 110.836 25.7528 111.025 25.8392 111.234C25.9256 111.442 25.9695 111.666 25.9684 111.892Z" fill="#EF8BB6"/>
<path d="M48.4842 111.892C48.4842 112.231 48.383 112.562 48.1933 112.844C48.0036 113.127 47.734 113.346 47.4185 113.476C47.1031 113.606 46.756 113.64 46.4211 113.574C46.0862 113.508 45.7786 113.344 45.5372 113.104C45.2958 112.865 45.1313 112.559 45.0647 112.226C44.9981 111.893 45.0323 111.549 45.163 111.235C45.2936 110.922 45.5149 110.654 45.7988 110.465C46.0827 110.277 46.4165 110.176 46.7579 110.176C46.9849 110.175 47.2099 110.219 47.4198 110.305C47.6297 110.39 47.8205 110.517 47.981 110.676C48.1415 110.836 48.2686 111.025 48.355 111.234C48.4414 111.442 48.4853 111.666 48.4842 111.892Z" fill="#EF8BB6"/>
<path d="M69.2737 113.607C70.2271 113.607 71 112.839 71 111.892C71 110.944 70.2271 110.176 69.2737 110.176C68.3202 110.176 67.5473 110.944 67.5473 111.892C67.5473 112.839 68.3202 113.607 69.2737 113.607Z" fill="#EF8BB6"/>
<path d="M3.45264 134.068C3.45264 134.407 3.35139 134.739 3.1617 135.021C2.97201 135.303 2.7024 135.523 2.38695 135.653C2.07151 135.782 1.7244 135.816 1.38953 135.75C1.05466 135.684 0.747058 135.521 0.505628 135.281C0.264198 135.041 0.0997819 134.735 0.0331715 134.402C-0.0334389 134.07 0.000747994 133.725 0.131409 133.411C0.26207 133.098 0.483337 132.83 0.767228 132.642C1.05112 132.453 1.38489 132.353 1.72632 132.353C1.95333 132.352 2.1783 132.395 2.38823 132.481C2.59817 132.567 2.78891 132.693 2.94943 132.853C3.10995 133.012 3.23707 133.202 3.32344 133.41C3.40981 133.619 3.45372 133.842 3.45264 134.068Z" fill="#EF8BB6"/>
<path d="M25.9684 134.068C25.9684 134.407 25.8672 134.739 25.6775 135.021C25.4878 135.303 25.2182 135.523 24.9027 135.653C24.5873 135.782 24.2402 135.816 23.9053 135.75C23.5704 135.684 23.2628 135.521 23.0214 135.281C22.78 135.041 22.6156 134.735 22.549 134.402C22.4823 134.07 22.5165 133.725 22.6472 133.411C22.7779 133.098 22.9991 132.83 23.283 132.642C23.5669 132.453 23.9007 132.353 24.2421 132.353C24.4691 132.352 24.6941 132.395 24.904 132.481C25.1139 132.567 25.3047 132.693 25.4652 132.853C25.6257 133.012 25.7528 133.202 25.8392 133.41C25.9256 133.619 25.9695 133.842 25.9684 134.068Z" fill="#EF8BB6"/>
<path d="M48.4842 134.068C48.4842 134.407 48.383 134.739 48.1933 135.021C48.0036 135.303 47.734 135.523 47.4185 135.653C47.1031 135.782 46.756 135.816 46.4211 135.75C46.0862 135.684 45.7786 135.521 45.5372 135.281C45.2958 135.041 45.1313 134.735 45.0647 134.402C44.9981 134.07 45.0323 133.725 45.163 133.411C45.2936 133.098 45.5149 132.83 45.7988 132.642C46.0827 132.453 46.4165 132.353 46.7579 132.353C46.9849 132.352 47.2099 132.395 47.4198 132.481C47.6297 132.567 47.8205 132.693 47.981 132.853C48.1415 133.012 48.2686 133.202 48.355 133.41C48.4414 133.619 48.4853 133.842 48.4842 134.068Z" fill="#EF8BB6"/>
<path d="M71 134.068C71 134.407 70.8987 134.739 70.709 135.021C70.5194 135.303 70.2497 135.523 69.9343 135.653C69.6189 135.782 69.2717 135.816 68.9369 135.75C68.602 135.684 68.2944 135.521 68.053 135.281C67.8115 135.041 67.6471 134.735 67.5805 134.402C67.5139 134.07 67.5481 133.725 67.6787 133.411C67.8094 133.098 68.0307 132.83 68.3146 132.642C68.5985 132.453 68.9322 132.353 69.2737 132.353C69.5007 132.352 69.7256 132.395 69.9356 132.481C70.1455 132.567 70.3363 132.693 70.4968 132.853C70.6573 133.012 70.7844 133.202 70.8708 133.41C70.9572 133.619 71.0011 133.842 71 134.068Z" fill="#EF8BB6"/>
<path d="M3.45264 156.285C3.45264 156.624 3.35139 156.956 3.1617 157.238C2.97201 157.52 2.7024 157.74 2.38695 157.869C2.07151 157.999 1.7244 158.033 1.38953 157.967C1.05466 157.901 0.747058 157.737 0.505628 157.498C0.264198 157.258 0.0997819 156.952 0.0331715 156.619C-0.0334389 156.287 0.000747994 155.942 0.131409 155.628C0.26207 155.315 0.483337 155.047 0.767228 154.859C1.05112 154.67 1.38489 154.57 1.72632 154.57C1.95333 154.568 2.1783 154.612 2.38823 154.698C2.59817 154.784 2.78891 154.91 2.94943 155.069C3.10995 155.229 3.23707 155.418 3.32344 155.627C3.40981 155.836 3.45372 156.059 3.45264 156.285Z" fill="#EF8BB6"/>
<path d="M25.9684 156.285C25.9684 156.624 25.8672 156.956 25.6775 157.238C25.4878 157.52 25.2182 157.74 24.9027 157.869C24.5873 157.999 24.2402 158.033 23.9053 157.967C23.5704 157.901 23.2628 157.737 23.0214 157.498C22.78 157.258 22.6156 156.952 22.549 156.619C22.4823 156.287 22.5165 155.942 22.6472 155.628C22.7779 155.315 22.9991 155.047 23.283 154.859C23.5669 154.67 23.9007 154.57 24.2421 154.57C24.4691 154.568 24.6941 154.612 24.904 154.698C25.1139 154.784 25.3047 154.91 25.4652 155.069C25.6257 155.229 25.7528 155.418 25.8392 155.627C25.9256 155.836 25.9695 156.059 25.9684 156.285Z" fill="#EF8BB6"/>
<path d="M48.4842 156.285C48.4842 156.624 48.383 156.956 48.1933 157.238C48.0036 157.52 47.734 157.74 47.4185 157.869C47.1031 157.999 46.756 158.033 46.4211 157.967C46.0862 157.901 45.7786 157.737 45.5372 157.498C45.2958 157.258 45.1313 156.952 45.0647 156.619C44.9981 156.287 45.0323 155.942 45.163 155.628C45.2936 155.315 45.5149 155.047 45.7988 154.859C46.0827 154.67 46.4165 154.57 46.7579 154.57C46.9849 154.568 47.2099 154.612 47.4198 154.698C47.6297 154.784 47.8205 154.91 47.981 155.069C48.1415 155.229 48.2686 155.418 48.355 155.627C48.4414 155.836 48.4853 156.059 48.4842 156.285Z" fill="#EF8BB6"/>
<path d="M69.2737 157.959C70.2271 157.959 71 157.191 71 156.244C71 155.297 70.2271 154.529 69.2737 154.529C68.3202 154.529 67.5473 155.297 67.5473 156.244C67.5473 157.191 68.3202 157.959 69.2737 157.959Z" fill="#EF8BB6"/>
<path d="M91.4526 89.7153C91.4526 90.0545 91.3514 90.3862 91.1617 90.6682C90.972 90.9503 90.7024 91.1701 90.387 91.3C90.0715 91.4298 89.7244 91.4638 89.3895 91.3976C89.0547 91.3314 88.7471 91.168 88.5056 90.9281C88.2642 90.6883 88.0998 90.3826 88.0332 90.0499C87.9666 89.7172 88.0007 89.3723 88.1314 89.0589C88.2621 88.7455 88.4833 88.4776 88.7672 88.2891C89.0511 88.1006 89.3849 88 89.7263 88C89.9533 87.999 90.1783 88.0426 90.3882 88.1284C90.5982 88.2142 90.7889 88.3405 90.9494 88.5C91.1099 88.6595 91.2371 88.849 91.3234 89.0576C91.4098 89.2662 91.4537 89.4897 91.4526 89.7153Z" fill="#EF8BB6"/>
<path d="M113.968 89.7153C113.968 90.0545 113.867 90.3861 113.677 90.6682C113.488 90.9503 113.218 91.1701 112.903 91.2999C112.587 91.4298 112.24 91.4637 111.905 91.3976C111.57 91.3314 111.263 91.168 111.021 90.9281C110.78 90.6882 110.616 90.3826 110.549 90.0499C110.482 89.7172 110.517 89.3723 110.647 89.0589C110.778 88.7454 110.999 88.4776 111.283 88.2891C111.567 88.1006 111.901 88 112.242 88C112.469 87.9989 112.694 88.0426 112.904 88.1284C113.114 88.2142 113.305 88.3405 113.465 88.5C113.626 88.6595 113.753 88.849 113.839 89.0576C113.926 89.2662 113.97 89.4897 113.968 89.7153Z" fill="#EF8BB6"/>
<path d="M136.484 89.7153C136.484 90.0545 136.383 90.3861 136.193 90.6682C136.004 90.9503 135.734 91.1701 135.419 91.2999C135.103 91.4298 134.756 91.4637 134.421 91.3976C134.086 91.3314 133.779 91.168 133.537 90.9281C133.296 90.6882 133.131 90.3826 133.065 90.0499C132.998 89.7172 133.032 89.3723 133.163 89.0589C133.294 88.7454 133.515 88.4776 133.799 88.2891C134.083 88.1006 134.416 88 134.758 88C134.985 87.9989 135.21 88.0426 135.42 88.1284C135.63 88.2142 135.82 88.3405 135.981 88.5C136.142 88.6595 136.269 88.849 136.355 89.0576C136.441 89.2662 136.485 89.4897 136.484 89.7153Z" fill="#EF8BB6"/>
<path d="M157.274 91.4305C158.227 91.4305 159 90.6626 159 89.7153C159 88.768 158.227 88 157.274 88C156.32 88 155.547 88.768 155.547 89.7153C155.547 90.6626 156.32 91.4305 157.274 91.4305Z" fill="#EF8BB6"/>
<path d="M91.4526 111.892C91.4526 112.231 91.3514 112.562 91.1617 112.844C90.972 113.127 90.7024 113.346 90.387 113.476C90.0715 113.606 89.7244 113.64 89.3895 113.574C89.0547 113.508 88.7471 113.344 88.5056 113.104C88.2642 112.865 88.0998 112.559 88.0332 112.226C87.9666 111.893 88.0007 111.549 88.1314 111.235C88.2621 110.922 88.4833 110.654 88.7672 110.465C89.0511 110.277 89.3849 110.176 89.7263 110.176C89.9533 110.175 90.1783 110.219 90.3882 110.305C90.5982 110.39 90.7889 110.517 90.9494 110.676C91.1099 110.836 91.2371 111.025 91.3234 111.234C91.4098 111.442 91.4537 111.666 91.4526 111.892Z" fill="#EF8BB6"/>
<path d="M113.968 111.892C113.968 112.231 113.867 112.562 113.677 112.844C113.488 113.127 113.218 113.346 112.903 113.476C112.587 113.606 112.24 113.64 111.905 113.574C111.57 113.508 111.263 113.344 111.021 113.104C110.78 112.865 110.616 112.559 110.549 112.226C110.482 111.893 110.517 111.549 110.647 111.235C110.778 110.922 110.999 110.654 111.283 110.465C111.567 110.277 111.901 110.176 112.242 110.176C112.469 110.175 112.694 110.219 112.904 110.305C113.114 110.39 113.305 110.517 113.465 110.676C113.626 110.836 113.753 111.025 113.839 111.234C113.926 111.442 113.97 111.666 113.968 111.892Z" fill="#EF8BB6"/>
<path d="M136.484 111.892C136.484 112.231 136.383 112.562 136.193 112.844C136.004 113.127 135.734 113.346 135.419 113.476C135.103 113.606 134.756 113.64 134.421 113.574C134.086 113.508 133.779 113.344 133.537 113.104C133.296 112.865 133.131 112.559 133.065 112.226C132.998 111.893 133.032 111.549 133.163 111.235C133.294 110.922 133.515 110.654 133.799 110.465C134.083 110.277 134.416 110.176 134.758 110.176C134.985 110.175 135.21 110.219 135.42 110.305C135.63 110.39 135.82 110.517 135.981 110.676C136.142 110.836 136.269 111.025 136.355 111.234C136.441 111.442 136.485 111.666 136.484 111.892Z" fill="#EF8BB6"/>
<path d="M157.274 113.607C158.227 113.607 159 112.839 159 111.892C159 110.944 158.227 110.176 157.274 110.176C156.32 110.176 155.547 110.944 155.547 111.892C155.547 112.839 156.32 113.607 157.274 113.607Z" fill="#EF8BB6"/>
<path d="M91.4526 134.068C91.4526 134.407 91.3514 134.739 91.1617 135.021C90.972 135.303 90.7024 135.523 90.387 135.653C90.0715 135.782 89.7244 135.816 89.3895 135.75C89.0547 135.684 88.7471 135.521 88.5056 135.281C88.2642 135.041 88.0998 134.735 88.0332 134.402C87.9666 134.07 88.0007 133.725 88.1314 133.411C88.2621 133.098 88.4833 132.83 88.7672 132.642C89.0511 132.453 89.3849 132.353 89.7263 132.353C89.9533 132.352 90.1783 132.395 90.3882 132.481C90.5982 132.567 90.7889 132.693 90.9494 132.853C91.1099 133.012 91.2371 133.202 91.3234 133.41C91.4098 133.619 91.4537 133.842 91.4526 134.068Z" fill="#EF8BB6"/>
<path d="M113.968 134.068C113.968 134.407 113.867 134.739 113.677 135.021C113.488 135.303 113.218 135.523 112.903 135.653C112.587 135.782 112.24 135.816 111.905 135.75C111.57 135.684 111.263 135.521 111.021 135.281C110.78 135.041 110.616 134.735 110.549 134.402C110.482 134.07 110.517 133.725 110.647 133.411C110.778 133.098 110.999 132.83 111.283 132.642C111.567 132.453 111.901 132.353 112.242 132.353C112.469 132.352 112.694 132.395 112.904 132.481C113.114 132.567 113.305 132.693 113.465 132.853C113.626 133.012 113.753 133.202 113.839 133.41C113.926 133.619 113.97 133.842 113.968 134.068Z" fill="#EF8BB6"/>
<path d="M136.484 134.068C136.484 134.407 136.383 134.739 136.193 135.021C136.004 135.303 135.734 135.523 135.419 135.653C135.103 135.782 134.756 135.816 134.421 135.75C134.086 135.684 133.779 135.521 133.537 135.281C133.296 135.041 133.131 134.735 133.065 134.402C132.998 134.07 133.032 133.725 133.163 133.411C133.294 133.098 133.515 132.83 133.799 132.642C134.083 132.453 134.416 132.353 134.758 132.353C134.985 132.352 135.21 132.395 135.42 132.481C135.63 132.567 135.82 132.693 135.981 132.853C136.142 133.012 136.269 133.202 136.355 133.41C136.441 133.619 136.485 133.842 136.484 134.068Z" fill="#EF8BB6"/>
<path d="M159 134.068C159 134.407 158.899 134.739 158.709 135.021C158.519 135.303 158.25 135.523 157.934 135.653C157.619 135.782 157.272 135.816 156.937 135.75C156.602 135.684 156.294 135.521 156.053 135.281C155.812 135.041 155.647 134.735 155.581 134.402C155.514 134.07 155.548 133.725 155.679 133.411C155.809 133.098 156.031 132.83 156.315 132.642C156.598 132.453 156.932 132.353 157.274 132.353C157.501 132.352 157.726 132.395 157.936 132.481C158.146 132.567 158.336 132.693 158.497 132.853C158.657 133.012 158.784 133.202 158.871 133.41C158.957 133.619 159.001 133.842 159 134.068Z" fill="#EF8BB6"/>
<path d="M91.4526 156.285C91.4526 156.624 91.3514 156.956 91.1617 157.238C90.972 157.52 90.7024 157.74 90.387 157.869C90.0715 157.999 89.7244 158.033 89.3895 157.967C89.0547 157.901 88.7471 157.737 88.5056 157.498C88.2642 157.258 88.0998 156.952 88.0332 156.619C87.9666 156.287 88.0007 155.942 88.1314 155.628C88.2621 155.315 88.4833 155.047 88.7672 154.859C89.0511 154.67 89.3849 154.57 89.7263 154.57C89.9533 154.568 90.1783 154.612 90.3882 154.698C90.5982 154.784 90.7889 154.91 90.9494 155.069C91.1099 155.229 91.2371 155.418 91.3234 155.627C91.4098 155.836 91.4537 156.059 91.4526 156.285Z" fill="#EF8BB6"/>
<path d="M113.968 156.285C113.968 156.624 113.867 156.956 113.677 157.238C113.488 157.52 113.218 157.74 112.903 157.869C112.587 157.999 112.24 158.033 111.905 157.967C111.57 157.901 111.263 157.737 111.021 157.498C110.78 157.258 110.616 156.952 110.549 156.619C110.482 156.287 110.517 155.942 110.647 155.628C110.778 155.315 110.999 155.047 111.283 154.859C111.567 154.67 111.901 154.57 112.242 154.57C112.469 154.568 112.694 154.612 112.904 154.698C113.114 154.784 113.305 154.91 113.465 155.069C113.626 155.229 113.753 155.418 113.839 155.627C113.926 155.836 113.97 156.059 113.968 156.285Z" fill="#EF8BB6"/>
<path d="M136.484 156.285C136.484 156.624 136.383 156.956 136.193 157.238C136.004 157.52 135.734 157.74 135.419 157.869C135.103 157.999 134.756 158.033 134.421 157.967C134.086 157.901 133.779 157.737 133.537 157.498C133.296 157.258 133.131 156.952 133.065 156.619C132.998 156.287 133.032 155.942 133.163 155.628C133.294 155.315 133.515 155.047 133.799 154.859C134.083 154.67 134.416 154.57 134.758 154.57C134.985 154.568 135.21 154.612 135.42 154.698C135.63 154.784 135.82 154.91 135.981 155.069C136.142 155.229 136.269 155.418 136.355 155.627C136.441 155.836 136.485 156.059 136.484 156.285Z" fill="#EF8BB6"/>
<path d="M157.274 157.959C158.227 157.959 159 157.191 159 156.244C159 155.297 158.227 154.529 157.274 154.529C156.32 154.529 155.547 155.297 155.547 156.244C155.547 157.191 156.32 157.959 157.274 157.959Z" fill="#EF8BB6"/>
</svg>
