<svg width="196" height="14" viewBox="0 0 196 14" fill="none" xmlns="http://www.w3.org/2000/svg">
<path d="M4.27312 6.6042C5.82932 6.6042 7.38552 6.52734 8.93441 6.48542L10.8267 6.40159L19.1776 6.00335C22.4799 5.84033 25.8066 5.67266 29.1577 5.50032L43.4192 4.73879L46.6851 4.59207L54.9921 4.19384L63.2991 3.84451C64.3877 3.79561 65.491 3.73273 66.5577 3.6978L79.8109 3.29956L87.9646 3.05503C89.0239 3.05503 90.0906 2.97818 91.1573 2.96421L103.965 2.79653L116.612 2.61488C117.73 2.61488 118.804 2.61488 119.951 2.61488L128.207 2.57995L141.029 2.5031H145.23H153.997H154.728C148.133 2.58694 141.538 2.67543 134.943 2.76859L126.709 2.93626C125.525 2.93626 124.334 2.93626 123.143 2.98517L111.191 3.29258L97.3748 3.64889C96.6004 3.64889 95.8259 3.71177 95.0588 3.7467L87.6942 4.07507L72.7679 4.7318C72.0372 4.7318 71.3066 4.80865 70.576 4.85756L63.2699 5.33963L50.2212 6.20596C49.023 6.28281 47.8248 6.3946 46.6266 6.49241L38.2684 7.19107L27.638 8.02246L12.8578 9.25908L9.30702 9.55252C7.18825 9.72718 5.07679 9.98568 2.96533 10.2093C2.90651 10.2018 2.84669 10.2064 2.78989 10.2228C2.73309 10.2392 2.68061 10.267 2.63596 10.3044C2.59132 10.3417 2.55554 10.3878 2.53103 10.4395C2.50652 10.4912 2.49384 10.5472 2.49384 10.604C2.49384 10.6607 2.50652 10.7168 2.53103 10.7685C2.55554 10.8202 2.59132 10.8662 2.63596 10.9036C2.68061 10.941 2.73309 10.9688 2.78989 10.9852C2.84669 11.0016 2.90651 11.0062 2.96533 10.9987L5.28136 11.0965C5.18178 11.2876 5.12929 11.4979 5.12793 11.7114C5.12985 12.0962 5.29058 12.4648 5.57516 12.7369C5.85973 13.009 6.24515 13.1627 6.6476 13.1646C12.6898 12.8013 18.7319 12.41 24.7814 12.1375L40.5333 11.4389L57.9438 10.6494L63.4306 10.3979C63.9567 10.3979 64.4827 10.342 65.0088 10.328L93.0642 9.62937L108.056 9.25209C109.868 9.21017 111.673 9.16826 113.477 9.14031L142.169 8.71413L154.465 8.52549C157.964 8.4696 161.464 8.44864 164.964 8.32288L173.636 8.00849C175.097 7.95958 176.558 7.92465 177.961 7.84081L187.788 7.20504C187.605 7.50983 187.555 7.87135 187.649 8.2111C187.743 8.54043 187.969 8.82131 188.277 8.99359C188.434 9.0836 188.608 9.14184 188.789 9.16468C188.97 9.18751 189.154 9.17446 189.329 9.12634C190.06 8.85386 190.791 8.5744 191.47 8.28795H191.426L191.58 8.22507L191.762 8.14822H191.697L192.829 7.6941L194.02 7.21202C194.444 7.03037 194.86 6.81379 195.269 6.6042C195.495 6.47324 195.681 6.28842 195.809 6.06793C195.937 5.84743 196.003 5.59884 196 5.34662C195.999 5.02979 195.891 4.7218 195.69 4.46955C195.49 4.2173 195.208 4.03461 194.889 3.94931C194.517 3.88643 194.159 3.83753 193.786 3.79561H193.538C193.289 3.79561 193.034 3.79561 192.807 3.84451C192.252 3.84451 191.697 3.96328 191.141 3.99822L189.775 4.09603L186.122 4.34754L185.172 4.41042C185.287 4.28502 185.372 4.1372 185.421 3.97726C185.478 3.85132 185.51 3.71626 185.516 3.57902L185.559 3.2786C185.558 3.15205 185.533 3.02675 185.486 2.90832L185.581 2.8664C185.809 2.73845 186 2.55838 186.137 2.34241C186.259 2.12276 186.324 1.87841 186.327 1.62978C186.323 1.36971 186.25 1.11483 186.115 0.889206L185.874 0.595772C185.686 0.415231 185.451 0.285125 185.194 0.218499C184.725 0.0603337 184.23 -0.0131082 183.733 0.00191596C183.331 0.00191596 182.915 0.00191596 182.513 0.0368487H180.745C179.912 0.0368487 179.086 0.0368487 178.253 0.0368487H171.678C169.61 0.0368487 167.543 0.0368487 165.475 0.0368487H159.835C152.339 0.0368487 144.85 0.0787679 137.354 0.148633L120.491 0.400149C117.978 0.400149 115.472 0.456041 112.959 0.511933L96.067 0.854274L91.2523 0.952085C90.3171 0.952085 89.3892 1.01496 88.4541 1.0499L71.7596 1.65074L66.6453 1.83938C65.6955 1.87431 64.7384 1.9302 63.7886 1.97911L47.233 2.83146C44.3763 2.97818 41.5269 3.14586 38.6703 3.31354L24.0215 4.19384C19.7913 4.44535 15.561 4.66892 11.3308 4.89249L9.32164 5.00428L6.07042 5.17196C5.10601 5.21387 4.14161 5.23483 3.14798 5.21387C3.1023 5.09184 3.01789 4.98651 2.90655 4.91261C2.7952 4.8387 2.66249 4.79991 2.52696 4.80167C1.90594 4.85057 1.28492 4.91345 0.663902 4.97633C0.519592 4.98577 0.381457 5.03595 0.267 5.12052C0.152543 5.2051 0.0669149 5.32026 0.0209646 5.45142C-0.0233851 5.61817 0.00324514 5.79494 0.0950134 5.94294C0.186782 6.09095 0.336194 6.1981 0.510474 6.2409L1.32145 6.42255C1.59109 6.47575 1.8647 6.50845 2.13973 6.52036C2.84843 6.58324 3.56443 6.59721 4.27312 6.6042ZM175.236 4.36152H177.961C178.04 4.55616 178.165 4.73071 178.326 4.87153C177.976 4.89948 177.625 4.92044 177.274 4.93441L175.287 5.00428L166.6 5.3047C165.278 5.35361 163.955 5.42347 162.633 5.44443L156.43 5.53525L142.256 5.75184L114.741 6.17103C108.166 6.26884 101.59 6.46447 95.0149 6.63214L65.3814 7.3797C63.4014 7.43559 61.4142 7.55437 59.4342 7.64519L42.5863 8.4207L26.0526 9.17524L24.5183 9.24511L28.9751 8.90975L44.5444 7.77095L49.9801 7.37272L52.7857 7.20504L68.976 6.2898C70.0281 6.22692 71.0801 6.15007 72.1395 6.10815L76.7351 5.91952L93.4295 5.29771L97.0826 5.16497C97.404 5.16497 97.7255 5.16497 98.0543 5.16497L100.633 5.11606L117.357 4.7877C119.921 4.73879 122.471 4.6829 125.058 4.66194C133.35 4.59906 141.635 4.51522 149.898 4.48029C158.352 4.4244 166.797 4.3685 175.243 4.36152H175.236Z" fill="#FFCD1F"/>
</svg>
