<svg width="135" height="135" viewBox="0 0 135 135" fill="none" xmlns="http://www.w3.org/2000/svg">
<path d="M25.1511 120.085C25.7077 120.537 26.273 120.955 26.8469 121.407L121.407 26.8469C120.972 26.273 120.537 25.7077 120.085 25.1511L25.1511 120.085Z" fill="#E2E2E2"/>
<path d="M48.2497 132.191C49.0324 132.426 49.8238 132.634 50.6152 132.843L132.878 50.6152C132.669 49.8238 132.461 49.0324 132.226 48.2497L48.2497 132.191Z" fill="#E2E2E2"/>
<path d="M32.0215 124.955C32.6477 125.347 33.2826 125.721 33.9174 126.086L126.103 33.9174C125.738 33.2826 125.364 32.6477 124.973 32.0215L32.0215 124.955Z" fill="#E2E2E2"/>
<path d="M39.6921 129.034C40.3878 129.356 41.0923 129.66 41.7967 129.904L129.947 41.7967C129.66 41.0923 129.356 40.3878 129.077 39.6921L39.6921 129.034Z" fill="#E2E2E2"/>
<path d="M57.8944 134.33C58.7641 134.461 59.686 134.565 60.5817 134.661L134.661 60.5817C134.565 59.712 134.461 58.7902 134.33 57.8944L57.8944 134.33Z" fill="#E2E2E2"/>
<path d="M19.7591 115.241L20.5157 115.98L115.98 20.5157L115.241 19.7591L114.476 19.0111L19.0111 114.476L19.7591 115.241Z" fill="#E2E2E2"/>
<path d="M68.9741 135C70.0264 135 71.0787 134.922 72.131 134.852L134.852 72.131C134.922 71.0787 134.974 70.0264 135 68.9741L68.9741 135Z" fill="#E2E2E2"/>
<path d="M133.365 82.3584L82.3584 133.365C83.7151 133.061 85.0631 132.713 86.4111 132.321L132.321 86.4111C132.713 85.0631 133.061 83.7151 133.365 82.3584Z" fill="#E2E2E2"/>
<path d="M0.139148 62.869C0.0695742 63.9126 0 64.9649 0 66.0172L66.0172 0C64.9649 0 63.9126 0.0695742 62.869 0.139148L0.139148 62.869Z" fill="#E2E2E2"/>
<path d="M0.339174 74.4183C0.434839 75.288 0.5392 76.2098 0.669652 77.1056L77.1056 0.669652C76.2098 0.5392 75.3141 0.434839 74.4183 0.339174L0.339174 74.4183Z" fill="#E2E2E2"/>
<path d="M101.752 125.677C111.617 119.848 119.848 111.617 125.677 101.752L101.752 125.677Z" fill="#E2E2E2"/>
<path d="M2.67861 48.5889C2.28725 49.9282 1.93938 51.2849 1.63499 52.6416L52.6416 1.63499C51.2849 1.93938 49.9282 2.28725 48.5889 2.67861L2.67861 48.5889Z" fill="#E2E2E2"/>
<path d="M33.2043 9.32294C23.3641 15.1508 15.1508 23.3641 9.32294 33.2043L33.2043 9.32294Z" fill="#E2E2E2"/>
<path d="M8.91419 101.083C9.27946 101.717 9.65342 102.344 10.0361 102.97L102.97 10.0361C102.344 9.65342 101.717 9.27946 101.083 8.91419L8.91419 101.083Z" fill="#E2E2E2"/>
<path d="M13.5931 108.153C14.0192 108.718 14.4627 109.284 14.915 109.892L109.849 14.915C109.284 14.4627 108.718 14.0453 108.11 13.5931L13.5931 108.153Z" fill="#E2E2E2"/>
<path d="M2.12201 84.3587C2.32204 85.1414 2.53946 85.9328 2.77427 86.7155L86.7416 2.77427C85.9589 2.53946 85.1675 2.32204 84.3848 2.12201L2.12201 84.3587Z" fill="#E2E2E2"/>
<path d="M5.05282 93.2033C5.33982 93.9078 5.64421 94.6035 5.9225 95.2992L95.2992 5.95729C94.6035 5.64421 93.9078 5.33982 93.2033 5.08761L5.05282 93.2033Z" fill="#E2E2E2"/>
</svg>
