<svg width="85" height="73" viewBox="0 0 85 73" fill="none" xmlns="http://www.w3.org/2000/svg">
<path d="M18.0756 3.26458C17.752 3.26458 17.4356 3.16884 17.1666 2.98949C16.8975 2.81013 16.6878 2.5552 16.564 2.25694C16.4401 1.95868 16.4077 1.63048 16.4709 1.31385C16.534 0.997212 16.6898 0.706366 16.9186 0.478087C17.1475 0.249807 17.439 0.0943469 17.7564 0.0313647C18.0737 -0.0316175 18.4027 0.00070724 18.7017 0.124251C19.0006 0.247795 19.2562 0.45701 19.4359 0.725438C19.6157 0.993867 19.7117 1.30945 19.7117 1.63229C19.7096 2.06457 19.5366 2.47855 19.2302 2.78422C18.9238 3.08989 18.5088 3.26252 18.0756 3.26458Z" fill="#F342C2"/>
<path d="M18.0755 17.2835C17.7516 17.2835 17.435 17.1876 17.1658 17.0079C16.8965 16.8282 16.6868 16.5728 16.5632 16.2741C16.4396 15.9753 16.4077 15.6467 16.4715 15.3299C16.5352 15.013 16.6918 14.7222 16.9214 14.4943C17.151 14.2663 17.4433 14.1114 17.7612 14.0494C18.0791 13.9873 18.4083 14.0207 18.7071 14.1454C19.0059 14.2702 19.2609 14.4806 19.4397 14.7501C19.6186 15.0195 19.7132 15.3359 19.7117 15.659C19.7096 16.0906 19.5363 16.5038 19.2297 16.8082C18.9231 17.1126 18.5081 17.2835 18.0755 17.2835Z" fill="#F342C2"/>
<path d="M18.0756 31.3103C17.752 31.3103 17.4356 31.2145 17.1666 31.0352C16.8975 30.8558 16.6878 30.6009 16.564 30.3026C16.4401 30.0044 16.4077 29.6762 16.4709 29.3595C16.534 29.0429 16.6898 28.752 16.9186 28.5238C17.1475 28.2955 17.439 28.14 17.7564 28.077C18.0737 28.0141 18.4027 28.0464 18.7017 28.1699C19.0006 28.2935 19.2562 28.5027 19.4359 28.7711C19.6157 29.0395 19.7117 29.3551 19.7117 29.678C19.7117 29.8923 19.6693 30.1046 19.5871 30.3026C19.5049 30.5007 19.3844 30.6806 19.2325 30.8322C19.0805 30.9837 18.9002 31.104 18.7017 31.186C18.5032 31.268 18.2904 31.3103 18.0756 31.3103Z" fill="#F342C2"/>
<path d="M18.0755 45.337C17.7506 45.3369 17.4331 45.2404 17.1634 45.0596C16.8937 44.8788 16.6841 44.622 16.5612 44.3219C16.4384 44.0218 16.4078 43.6921 16.4735 43.3746C16.5393 43.0571 16.6982 42.7664 16.9302 42.5394C17.1621 42.3124 17.4566 42.1595 17.776 42.1001C18.0954 42.0407 18.4253 42.0775 18.7237 42.2058C19.022 42.3342 19.2753 42.5482 19.4513 42.8207C19.6272 43.0933 19.7179 43.4119 19.7117 43.7359C19.7015 44.1628 19.5249 44.5688 19.2193 44.8678C18.9138 45.1668 18.5035 45.3351 18.0755 45.337Z" fill="#F342C2"/>
<path d="M18.0756 58.9732C17.752 58.9732 17.4356 58.8775 17.1666 58.6981C16.8975 58.5188 16.6878 58.2639 16.564 57.9656C16.4401 57.6673 16.4077 57.3391 16.4709 57.0225C16.534 56.7059 16.6898 56.415 16.9186 56.1867C17.1475 55.9585 17.439 55.803 17.7564 55.74C18.0737 55.677 18.4027 55.7094 18.7017 55.8329C19.0006 55.9565 19.2562 56.1657 19.4359 56.4341C19.6157 56.7025 19.7117 57.0181 19.7117 57.341C19.7117 57.7739 19.5393 58.189 19.2325 58.4952C18.9256 58.8013 18.5095 58.9732 18.0756 58.9732Z" fill="#F342C2"/>
<path d="M18.0756 73C17.752 73 17.4356 72.9043 17.1666 72.7249C16.8975 72.5455 16.6878 72.2906 16.564 71.9923C16.4401 71.6941 16.4077 71.3659 16.4709 71.0492C16.534 70.7326 16.6898 70.4418 16.9186 70.2135C17.1475 69.9852 17.439 69.8298 17.7564 69.7668C18.0737 69.7038 18.4027 69.7361 18.7017 69.8597C19.0006 69.9832 19.2562 70.1924 19.4359 70.4608C19.6157 70.7293 19.7117 71.0449 19.7117 71.3677C19.7096 71.8 19.5366 72.214 19.2302 72.5196C18.9238 72.8253 18.5088 72.9979 18.0756 73Z" fill="#F342C2"/>
<path d="M1.63612 3.26458C1.31252 3.26458 0.996197 3.16885 0.72714 2.98949C0.458082 2.81013 0.248377 2.5552 0.124543 2.25694C0.000709633 1.95868 -0.0316909 1.63048 0.031439 1.31385C0.0945688 0.997213 0.250394 0.706367 0.479209 0.478088C0.708023 0.249808 0.999551 0.0943476 1.31693 0.0313654C1.6343 -0.0316168 1.96327 0.000707973 2.26223 0.124252C2.56119 0.247796 2.81672 0.457011 2.9965 0.725439C3.17628 0.993867 3.27223 1.30945 3.27223 1.63229C3.27017 2.06457 3.09714 2.47855 2.79075 2.78422C2.48436 3.08989 2.06941 3.26252 1.63612 3.26458Z" fill="#F342C2"/>
<path d="M1.63612 17.2835C1.31219 17.2835 0.995555 17.1876 0.726331 17.0079C0.457106 16.8282 0.247408 16.5728 0.123808 16.2741C0.000207778 15.9753 -0.0317324 15.6467 0.0320346 15.3299C0.0958015 15.013 0.252406 14.7222 0.482004 14.4943C0.711603 14.2663 1.00386 14.1114 1.32175 14.0494C1.63964 13.9873 1.96885 14.0207 2.26767 14.1454C2.56649 14.2702 2.82148 14.4806 3.00031 14.7501C3.17914 15.0195 3.27378 15.3359 3.27223 15.659C3.27016 16.0906 3.09687 16.5038 2.79027 16.8082C2.48366 17.1126 2.06869 17.2835 1.63612 17.2835Z" fill="#F342C2"/>
<path d="M1.63612 31.3103C1.31252 31.3103 0.996197 31.2145 0.727139 31.0352C0.458081 30.8558 0.248376 30.6009 0.124543 30.3026C0.000708898 30.0044 -0.0316916 29.6762 0.0314382 29.3595C0.0945681 29.0429 0.250393 28.752 0.479208 28.5238C0.708023 28.2955 0.99955 28.14 1.31693 28.077C1.6343 28.0141 1.96327 28.0464 2.26223 28.1699C2.56119 28.2935 2.81672 28.5027 2.9965 28.7711C3.17627 29.0395 3.27223 29.3551 3.27223 29.678C3.27223 29.8923 3.22991 30.1046 3.14769 30.3026C3.06547 30.5007 2.94495 30.6806 2.79302 30.8322C2.6411 30.9837 2.46073 31.104 2.26223 31.186C2.06373 31.268 1.85097 31.3103 1.63612 31.3103Z" fill="#F342C2"/>
<path d="M1.63612 45.337C1.3112 45.3369 0.993663 45.2404 0.723969 45.0596C0.454275 44.8788 0.244639 44.622 0.121779 44.3219C-0.00108142 44.0218 -0.0316015 43.6921 0.0341081 43.3746C0.0998176 43.0571 0.258781 42.7664 0.490739 42.5394C0.722696 42.3124 1.01714 42.1595 1.33655 42.1001C1.65596 42.0407 1.98587 42.0775 2.28423 42.2058C2.58259 42.3342 2.83589 42.5482 3.01185 42.8207C3.1878 43.0933 3.27845 43.4119 3.27223 43.7359C3.26205 44.1628 3.08543 44.5688 2.77991 44.8678C2.47439 45.1668 2.06406 45.3351 1.63612 45.337Z" fill="#F342C2"/>
<path d="M1.63612 58.9732C1.31252 58.9732 0.996197 58.8775 0.727139 58.6981C0.458081 58.5188 0.248376 58.2639 0.124543 57.9656C0.000708898 57.6673 -0.0316916 57.3391 0.0314382 57.0225C0.0945681 56.7059 0.250393 56.415 0.479208 56.1867C0.708023 55.9585 0.99955 55.803 1.31693 55.74C1.6343 55.677 1.96327 55.7094 2.26223 55.8329C2.56119 55.9565 2.81672 56.1657 2.9965 56.4341C3.17627 56.7025 3.27223 57.0181 3.27223 57.341C3.27223 57.7739 3.09985 58.189 2.79302 58.4952C2.48619 58.8013 2.07004 58.9732 1.63612 58.9732Z" fill="#F342C2"/>
<path d="M1.63612 73C1.31252 73 0.996197 72.9043 0.727139 72.7249C0.458081 72.5455 0.248376 72.2906 0.124543 71.9923C0.000708898 71.6941 -0.0316916 71.3659 0.0314382 71.0492C0.0945681 70.7326 0.250393 70.4418 0.479208 70.2135C0.708023 69.9852 0.99955 69.8298 1.31693 69.7668C1.6343 69.7038 1.96327 69.7361 2.26223 69.8597C2.56119 69.9832 2.81672 70.1924 2.9965 70.4608C3.17627 70.7293 3.27223 71.0449 3.27223 71.3677C3.27017 71.8 3.09714 72.214 2.79075 72.5196C2.48436 72.8253 2.06941 72.9979 1.63612 73Z" fill="#F342C2"/>
<path d="M50.7196 3.26458C50.396 3.26458 50.0796 3.16884 49.8106 2.98949C49.5415 2.81013 49.3318 2.5552 49.208 2.25694C49.0842 1.95868 49.0518 1.63048 49.1149 1.31385C49.178 0.997212 49.3338 0.706366 49.5627 0.478087C49.7915 0.249807 50.083 0.0943469 50.4004 0.0313647C50.7178 -0.0316175 51.0467 0.00070724 51.3457 0.124251C51.6446 0.247795 51.9002 0.45701 52.0799 0.725438C52.2597 0.993867 52.3557 1.30945 52.3557 1.63229C52.3536 2.06457 52.1806 2.47855 51.8742 2.78422C51.5678 3.08989 51.1529 3.26252 50.7196 3.26458Z" fill="#F342C2"/>
<path d="M50.7196 17.2835C50.3956 17.2835 50.079 17.1876 49.8098 17.0079C49.5406 16.8282 49.3309 16.5728 49.2073 16.2741C49.0837 15.9753 49.0517 15.6467 49.1155 15.3299C49.1793 15.013 49.3359 14.7222 49.5655 14.4943C49.7951 14.2663 50.0873 14.1114 50.4052 14.0494C50.7231 13.9873 51.0523 14.0207 51.3511 14.1454C51.6499 14.2702 51.9049 14.4806 52.0838 14.7501C52.2626 15.0195 52.3572 15.3359 52.3557 15.659C52.3536 16.0906 52.1803 16.5038 51.8737 16.8082C51.5671 17.1126 51.1521 17.2835 50.7196 17.2835Z" fill="#F342C2"/>
<path d="M50.7196 31.3103C50.396 31.3103 50.0796 31.2145 49.8106 31.0352C49.5415 30.8558 49.3318 30.6009 49.208 30.3026C49.0842 30.0044 49.0518 29.6762 49.1149 29.3595C49.178 29.0429 49.3338 28.752 49.5627 28.5238C49.7915 28.2955 50.083 28.14 50.4004 28.077C50.7178 28.0141 51.0467 28.0464 51.3457 28.1699C51.6446 28.2935 51.9002 28.5027 52.0799 28.7711C52.2597 29.0395 52.3557 29.3551 52.3557 29.678C52.3557 30.1109 52.1833 30.5261 51.8765 30.8322C51.5696 31.1383 51.1535 31.3103 50.7196 31.3103Z" fill="#F342C2"/>
<path d="M50.7196 45.337C50.3947 45.3369 50.0771 45.2404 49.8074 45.0596C49.5377 44.8788 49.3281 44.622 49.2052 44.3219C49.0824 44.0218 49.0519 43.6921 49.1176 43.3746C49.1833 43.0571 49.3422 42.7664 49.5742 42.5394C49.8062 42.3124 50.1006 42.1595 50.42 42.1001C50.7394 42.0407 51.0693 42.0775 51.3677 42.2058C51.666 42.3342 51.9193 42.5482 52.0953 42.8207C52.2713 43.0933 52.3619 43.4119 52.3557 43.7359C52.3455 44.1628 52.1689 44.5688 51.8634 44.8678C51.5578 45.1668 51.1475 45.3351 50.7196 45.337Z" fill="#F342C2"/>
<path d="M50.7196 58.9732C50.396 58.9732 50.0796 58.8775 49.8106 58.6981C49.5415 58.5188 49.3318 58.2639 49.208 57.9656C49.0842 57.6673 49.0518 57.3391 49.1149 57.0225C49.178 56.7059 49.3338 56.415 49.5627 56.1867C49.7915 55.9585 50.083 55.803 50.4004 55.74C50.7178 55.677 51.0467 55.7094 51.3457 55.8329C51.6446 55.9565 51.9002 56.1657 52.0799 56.4341C52.2597 56.7025 52.3557 57.0181 52.3557 57.341C52.3557 57.7739 52.1833 58.189 51.8765 58.4952C51.5696 58.8013 51.1535 58.9732 50.7196 58.9732Z" fill="#F342C2"/>
<path d="M50.7196 73C50.396 73 50.0796 72.9043 49.8106 72.7249C49.5415 72.5455 49.3318 72.2906 49.208 71.9923C49.0842 71.6941 49.0518 71.3659 49.1149 71.0492C49.178 70.7326 49.3338 70.4418 49.5627 70.2135C49.7915 69.9852 50.083 69.8298 50.4004 69.7668C50.7178 69.7038 51.0467 69.7361 51.3457 69.8597C51.6446 69.9832 51.9002 70.1924 52.0799 70.4608C52.2597 70.7293 52.3557 71.0449 52.3557 71.3677C52.3536 71.8 52.1806 72.214 51.8742 72.5196C51.5678 72.8253 51.1529 72.9979 50.7196 73Z" fill="#F342C2"/>
<path d="M34.2801 3.26458C33.9565 3.26458 33.6402 3.16884 33.3712 2.98949C33.1021 2.81013 32.8924 2.5552 32.7686 2.25694C32.6447 1.95868 32.6123 1.63048 32.6755 1.31385C32.7386 0.997212 32.8944 0.706366 33.1232 0.478087C33.352 0.249807 33.6436 0.0943469 33.9609 0.0313647C34.2783 -0.0316175 34.6073 0.00070724 34.9062 0.124251C35.2052 0.247795 35.4607 0.45701 35.6405 0.725438C35.8203 0.993867 35.9162 1.30945 35.9162 1.63229C35.9142 2.06457 35.7412 2.47855 35.4348 2.78422C35.1284 3.08989 34.7134 3.26252 34.2801 3.26458Z" fill="#F342C2"/>
<path d="M34.2801 17.2835C33.9562 17.2835 33.6396 17.1876 33.3703 17.0079C33.1011 16.8282 32.8914 16.5728 32.7678 16.2741C32.6442 15.9753 32.6123 15.6467 32.6761 15.3299C32.7398 15.013 32.8964 14.7222 33.126 14.4943C33.3556 14.2663 33.6479 14.1114 33.9658 14.0494C34.2837 13.9873 34.6129 14.0207 34.9117 14.1454C35.2105 14.2702 35.4655 14.4806 35.6443 14.7501C35.8232 15.0195 35.9178 15.3359 35.9162 15.659C35.9142 16.0906 35.7409 16.5038 35.4343 16.8082C35.1277 17.1126 34.7127 17.2835 34.2801 17.2835Z" fill="#F342C2"/>
<path d="M34.2801 31.3103C33.9565 31.3103 33.6402 31.2145 33.3712 31.0352C33.1021 30.8558 32.8924 30.6009 32.7686 30.3026C32.6447 30.0044 32.6123 29.6762 32.6755 29.3595C32.7386 29.0429 32.8944 28.752 33.1232 28.5238C33.352 28.2955 33.6436 28.14 33.9609 28.077C34.2783 28.0141 34.6073 28.0464 34.9062 28.1699C35.2052 28.2935 35.4607 28.5027 35.6405 28.7711C35.8203 29.0395 35.9162 29.3551 35.9162 29.678C35.9162 29.8923 35.8739 30.1046 35.7917 30.3026C35.7095 30.5007 35.589 30.6806 35.437 30.8322C35.2851 30.9837 35.1048 31.104 34.9062 31.186C34.7077 31.268 34.495 31.3103 34.2801 31.3103Z" fill="#F342C2"/>
<path d="M34.2801 45.337C33.9552 45.3369 33.6377 45.2404 33.368 45.0596C33.0983 44.8788 32.8887 44.622 32.7658 44.3219C32.6429 44.0218 32.6124 43.6921 32.6781 43.3746C32.7438 43.0571 32.9028 42.7664 33.1348 42.5394C33.3667 42.3124 33.6612 42.1595 33.9806 42.1001C34.3 42.0407 34.6299 42.0775 34.9282 42.2058C35.2266 42.3342 35.4799 42.5482 35.6559 42.8207C35.8318 43.0933 35.9225 43.4119 35.9162 43.7359C35.9061 44.1628 35.7295 44.5688 35.4239 44.8678C35.1184 45.1668 34.7081 45.3351 34.2801 45.337Z" fill="#F342C2"/>
<path d="M34.2801 58.9732C33.9565 58.9732 33.6402 58.8775 33.3712 58.6981C33.1021 58.5188 32.8924 58.2639 32.7686 57.9656C32.6447 57.6673 32.6123 57.3391 32.6755 57.0225C32.7386 56.7059 32.8944 56.415 33.1232 56.1867C33.352 55.9585 33.6436 55.803 33.9609 55.74C34.2783 55.677 34.6073 55.7094 34.9062 55.8329C35.2052 55.9565 35.4607 56.1657 35.6405 56.4341C35.8203 56.7025 35.9162 57.0181 35.9162 57.341C35.9162 57.7739 35.7439 58.189 35.437 58.4952C35.1302 58.8013 34.7141 58.9732 34.2801 58.9732Z" fill="#F342C2"/>
<path d="M34.2801 73C33.9565 73 33.6402 72.9043 33.3712 72.7249C33.1021 72.5455 32.8924 72.2906 32.7686 71.9923C32.6447 71.6941 32.6123 71.3659 32.6755 71.0492C32.7386 70.7326 32.8944 70.4418 33.1232 70.2135C33.352 69.9852 33.6436 69.8298 33.9609 69.7668C34.2783 69.7038 34.6073 69.7361 34.9062 69.8597C35.2052 69.9832 35.4607 70.1924 35.6405 70.4608C35.8203 70.7293 35.9162 71.0449 35.9162 71.3677C35.9142 71.8 35.7412 72.214 35.4348 72.5196C35.1284 72.8253 34.7134 72.9979 34.2801 73Z" fill="#F342C2"/>
<path d="M83.3714 3.26458C83.0475 3.26612 82.7304 3.17171 82.4603 2.99329C82.1902 2.81488 81.9793 2.56049 81.8543 2.26237C81.7292 1.96425 81.6957 1.63581 81.758 1.31866C81.8202 1.00151 81.9754 0.709938 82.2039 0.480877C82.4324 0.251815 82.7239 0.0955774 83.0415 0.0319596C83.3591 -0.0316582 83.6885 0.000207292 83.9879 0.123518C84.2873 0.24683 84.5433 0.456037 84.7234 0.724632C84.9035 0.993227 84.9997 1.30912 84.9997 1.63229C84.9997 2.06385 84.8284 2.47785 84.5233 2.78374C84.2181 3.08963 83.804 3.26251 83.3714 3.26458Z" fill="#F342C2"/>
<path d="M83.3714 17.2835C83.0472 17.2851 82.7298 17.1904 82.4595 17.0117C82.1893 16.8329 81.9783 16.5781 81.8535 16.2795C81.7287 15.9809 81.6957 15.6521 81.7585 15.3347C81.8214 15.0173 81.9774 14.7258 82.2067 14.497C82.436 14.2683 82.7282 14.1127 83.0463 14.0499C83.3644 13.9872 83.694 14.0202 83.9933 14.1447C84.2926 14.2692 84.548 14.4796 84.7272 14.7493C84.9064 15.0189 85.0013 15.3355 84.9997 15.659C84.9997 16.0899 84.8281 16.5031 84.5228 16.8077C84.2174 17.1124 83.8033 17.2835 83.3714 17.2835Z" fill="#F342C2"/>
<path d="M83.3714 31.3103C83.0475 31.3118 82.7304 31.2174 82.4603 31.039C82.1902 30.8605 81.9793 30.6062 81.8543 30.308C81.7292 30.0099 81.6957 29.6815 81.758 29.3643C81.8202 29.0472 81.9754 28.7556 82.2039 28.5266C82.4324 28.2975 82.7239 28.1413 83.0415 28.0776C83.3591 28.014 83.6885 28.0459 83.9879 28.1692C84.2873 28.2925 84.5433 28.5017 84.7234 28.7703C84.9035 29.0389 84.9997 29.3548 84.9997 29.678C85.0007 29.892 84.9594 30.104 84.878 30.302C84.7966 30.5 84.6769 30.68 84.5256 30.8317C84.3743 30.9834 84.1944 31.1037 83.9963 31.1859C83.7983 31.268 83.5859 31.3103 83.3714 31.3103Z" fill="#F342C2"/>
<path d="M83.3714 45.337C83.0462 45.3385 82.7279 45.2432 82.4571 45.0634C82.1864 44.8836 81.9755 44.6273 81.8515 44.3274C81.7274 44.0274 81.6958 43.6974 81.7606 43.3794C81.8254 43.0614 81.9838 42.7699 82.2154 42.5422C82.4471 42.3144 82.7415 42.1607 83.0611 42.1006C83.3808 42.0406 83.7111 42.0769 84.0099 42.2051C84.3087 42.3332 84.5625 42.5473 84.7388 42.8199C84.9151 43.0926 85.0059 43.4115 84.9997 43.736C84.9915 44.1621 84.8166 44.5681 84.5124 44.8673C84.2081 45.1665 83.7986 45.335 83.3714 45.337Z" fill="#F342C2"/>
<path d="M83.3714 58.9732C83.0475 58.9748 82.7304 58.8804 82.4603 58.702C82.1902 58.5235 81.9793 58.2692 81.8543 57.971C81.7292 57.6729 81.6957 57.3445 81.758 57.0273C81.8202 56.7102 81.9754 56.4186 82.2039 56.1895C82.4324 55.9605 82.7239 55.8042 83.0415 55.7406C83.3591 55.677 83.6885 55.7089 83.9879 55.8322C84.2873 55.9555 84.5433 56.1647 84.7234 56.4333C84.9035 56.7019 84.9997 57.0178 84.9997 57.341C85.0007 57.5549 84.9594 57.767 84.878 57.965C84.7966 58.163 84.6769 58.343 84.5256 58.4947C84.3743 58.6464 84.1944 58.7667 83.9963 58.8488C83.7983 58.931 83.5859 58.9732 83.3714 58.9732Z" fill="#F342C2"/>
<path d="M83.3714 73C83.0475 73.0015 82.7304 72.9071 82.4603 72.7287C82.1902 72.5503 81.9793 72.2959 81.8543 71.9978C81.7292 71.6997 81.6957 71.3712 81.758 71.0541C81.8202 70.7369 81.9754 70.4453 82.2039 70.2163C82.4324 69.9872 82.7239 69.831 83.0415 69.7674C83.3591 69.7037 83.6885 69.7356 83.9879 69.8589C84.2873 69.9822 84.5433 70.1914 84.7234 70.46C84.9035 70.7286 84.9997 71.0445 84.9997 71.3677C84.9997 71.7993 84.8284 72.2133 84.5233 72.5191C84.2181 72.825 83.804 72.9979 83.3714 73Z" fill="#F342C2"/>
<path d="M66.932 3.26458C66.6081 3.26612 66.291 3.17171 66.0209 2.99329C65.7508 2.81488 65.5399 2.56049 65.4148 2.26237C65.2898 1.96425 65.2563 1.63581 65.3185 1.31866C65.3808 1.00151 65.536 0.709938 65.7645 0.480877C65.993 0.251815 66.2845 0.0955774 66.6021 0.0319596C66.9197 -0.0316582 67.249 0.000207292 67.5484 0.123518C67.8479 0.24683 68.1039 0.456037 68.284 0.724632C68.4641 0.993227 68.5603 1.30912 68.5603 1.63229C68.5603 2.06385 68.389 2.47785 68.0838 2.78374C67.7787 3.08963 67.3645 3.26251 66.932 3.26458Z" fill="#F342C2"/>
<path d="M66.932 17.2835C66.6077 17.2851 66.2903 17.1904 66.0201 17.0117C65.7498 16.8329 65.5389 16.5781 65.4141 16.2795C65.2893 15.9809 65.2562 15.6521 65.3191 15.3347C65.382 15.0173 65.538 14.7258 65.7673 14.497C65.9965 14.2683 66.2888 14.1127 66.6069 14.0499C66.925 13.9872 67.2546 14.0202 67.5539 14.1447C67.8532 14.2692 68.1086 14.4796 68.2878 14.7493C68.467 15.0189 68.5618 15.3355 68.5603 15.659C68.5603 16.0899 68.3887 16.5031 68.0834 16.8077C67.778 17.1124 67.3638 17.2835 66.932 17.2835Z" fill="#F342C2"/>
<path d="M66.932 31.3103C66.6081 31.3118 66.291 31.2174 66.0209 31.039C65.7508 30.8605 65.5399 30.6062 65.4148 30.308C65.2898 30.0099 65.2563 29.6815 65.3185 29.3643C65.3808 29.0472 65.536 28.7556 65.7645 28.5266C65.993 28.2975 66.2845 28.1413 66.6021 28.0776C66.9197 28.014 67.249 28.0459 67.5484 28.1692C67.8479 28.2925 68.1039 28.5017 68.284 28.7703C68.4641 29.0389 68.5603 29.3548 68.5603 29.678C68.5613 29.892 68.5199 30.104 68.4386 30.302C68.3572 30.5 68.2374 30.68 68.0861 30.8317C67.9348 30.9834 67.755 31.1037 67.5569 31.1859C67.3588 31.268 67.1465 31.3103 66.932 31.3103Z" fill="#F342C2"/>
<path d="M66.932 45.337C66.6067 45.3385 66.2884 45.2432 66.0177 45.0634C65.747 44.8836 65.5361 44.6273 65.412 44.3274C65.288 44.0274 65.2563 43.6974 65.3212 43.3794C65.386 43.0614 65.5443 42.7699 65.776 42.5422C66.0076 42.3144 66.3021 42.1607 66.6217 42.1006C66.9413 42.0406 67.2716 42.0769 67.5705 42.2051C67.8693 42.3332 68.123 42.5473 68.2993 42.8199C68.4756 43.0926 68.5665 43.4115 68.5603 43.736C68.5521 44.1621 68.3772 44.5681 68.0729 44.8673C67.7687 45.1665 67.3592 45.335 66.932 45.337Z" fill="#F342C2"/>
<path d="M66.932 58.9732C66.6081 58.9748 66.291 58.8804 66.0209 58.702C65.7508 58.5235 65.5399 58.2692 65.4148 57.971C65.2898 57.6729 65.2563 57.3445 65.3185 57.0273C65.3808 56.7102 65.536 56.4186 65.7645 56.1895C65.993 55.9605 66.2845 55.8042 66.6021 55.7406C66.9197 55.677 67.249 55.7089 67.5484 55.8322C67.8479 55.9555 68.1039 56.1647 68.284 56.4333C68.4641 56.7019 68.5603 57.0178 68.5603 57.341C68.5613 57.5549 68.5199 57.767 68.4386 57.965C68.3572 58.163 68.2374 58.343 68.0861 58.4947C67.9348 58.6464 67.755 58.7667 67.5569 58.8488C67.3588 58.931 67.1465 58.9732 66.932 58.9732Z" fill="#F342C2"/>
<path d="M66.932 73C66.6081 73.0015 66.291 72.9071 66.0209 72.7287C65.7508 72.5503 65.5399 72.2959 65.4148 71.9978C65.2898 71.6997 65.2563 71.3712 65.3185 71.0541C65.3808 70.7369 65.536 70.4453 65.7645 70.2163C65.993 69.9872 66.2845 69.831 66.6021 69.7674C66.9197 69.7037 67.249 69.7356 67.5484 69.8589C67.8479 69.9822 68.1039 70.1914 68.284 70.46C68.4641 70.7286 68.5603 71.0445 68.5603 71.3677C68.5603 71.7993 68.389 72.2133 68.0838 72.5191C67.7787 72.825 67.3645 72.9979 66.932 73Z" fill="#F342C2"/>
</svg>
