<svg width="85" height="90" viewBox="0 0 85 90" fill="none" xmlns="http://www.w3.org/2000/svg">
<g clip-path="url(#clip0_795_413)">
<path fill-rule="evenodd" clip-rule="evenodd" d="M33.61 9.18222C28.619 18.1319 24.5944 24.8551 20.6216 31.4919C20.1642 32.2561 19.7074 33.0192 19.2499 33.7844C14.7907 41.2429 10.2577 48.9131 4.34076 59.8463C11.5069 64.9446 19.0153 68.9988 26.5651 73.0216C26.9006 73.2003 27.2361 73.379 27.5717 73.5577C34.7002 77.3538 41.8571 81.1649 48.6712 85.8137C54.5473 76.24 58.7787 68.6016 63.0471 60.8638C63.1821 60.619 63.3172 60.3742 63.4523 60.1291C67.6056 52.5992 71.8445 44.9138 77.7014 35.2317C63.1714 26.2657 48.4742 17.5825 33.61 9.18222ZM33.7421 6.41153C49.3618 15.2195 64.7976 24.339 80.0494 33.7697C80.6282 34.1277 80.8099 34.8855 80.4564 35.467C74.2939 45.6032 69.9209 53.5317 65.6179 61.3331C65.4841 61.5757 65.3503 61.8181 65.2166 62.0605C60.7814 70.1007 56.3647 78.0728 50.0957 88.226C49.9167 88.516 49.626 88.7195 49.2922 88.7884C48.9584 88.8573 48.6109 88.7857 48.3316 88.5903C41.322 83.6876 33.9045 79.7374 26.3654 75.7225C26.0438 75.5512 25.722 75.3798 25.4 75.2082C17.5503 71.0256 9.59218 66.7309 2.00477 61.2183C1.50292 60.8537 1.3481 60.1742 1.64249 59.6282C7.83924 48.1352 12.5266 40.2013 17.1233 32.513C17.5811 31.7472 18.038 30.984 18.4953 30.22C22.6276 23.3168 26.7968 16.3518 32.0505 6.88928C32.2106 6.60077 32.4793 6.3881 32.7969 6.29841C33.1144 6.20873 33.4547 6.24944 33.7421 6.41153Z" fill="#C1BEDC"/>
<path fill-rule="evenodd" clip-rule="evenodd" d="M44.1438 5.49734C44.7328 5.84536 44.9282 6.60503 44.5802 7.1941C44.1971 7.84258 43.6237 8.93513 42.9513 10.2165C42.6312 10.8266 42.2886 11.4794 41.9333 12.1475C40.8643 14.1581 39.6765 16.3146 38.7601 17.5664C38.3559 18.1185 37.5807 18.2384 37.0287 17.8342C36.4766 17.43 36.3567 16.6548 36.7609 16.1028C37.5527 15.0213 38.6572 13.0314 39.7456 10.9843C40.0733 10.3681 40.3996 9.74629 40.712 9.15122C41.4062 7.82838 42.0312 6.63764 42.447 5.9338C42.795 5.34473 43.5547 5.14932 44.1438 5.49734Z" fill="#C1BEDC"/>
<path fill-rule="evenodd" clip-rule="evenodd" d="M54.5212 11.6277C55.1103 11.9757 55.3057 12.7354 54.9577 13.3245C54.5744 13.9732 54.0001 15.0675 53.3266 16.3507C53.0063 16.961 52.6635 17.614 52.3083 18.2821C51.2387 20.2937 50.0507 22.4507 49.1372 23.6972C48.7328 24.2491 47.9576 24.3687 47.4057 23.9642C46.8538 23.5598 46.7343 22.7846 47.1387 22.2327C47.9269 21.1571 49.0312 19.1677 50.1206 17.1188C50.4484 16.5025 50.7749 15.8805 51.0874 15.2852C51.7826 13.9606 52.4085 12.7682 52.8244 12.0642C53.1725 11.4751 53.9321 11.2797 54.5212 11.6277Z" fill="#C1BEDC"/>
<path fill-rule="evenodd" clip-rule="evenodd" d="M64.8986 17.7591C65.4877 18.1071 65.6831 18.8667 65.3351 19.4558C64.9519 20.1045 64.3775 21.1989 63.704 22.482C63.3837 23.0923 63.041 23.7453 62.6857 24.4134C61.6161 26.425 60.4281 28.5821 59.5146 29.8286C59.1102 30.3805 58.335 30.5 57.7831 30.0956C57.2312 29.6912 57.1117 28.9159 57.5161 28.3641C58.3043 27.2884 59.4087 25.299 60.4981 23.2502C60.8258 22.6339 61.1523 22.0118 61.4648 21.4165C62.16 20.092 62.786 18.8995 63.2019 18.1955C63.5499 17.6064 64.3096 17.411 64.8986 17.7591Z" fill="#C1BEDC"/>
<path fill-rule="evenodd" clip-rule="evenodd" d="M75.2756 23.8894C75.8647 24.2375 76.0601 24.9971 75.7121 25.5862C75.3288 26.2349 74.7545 27.3292 74.081 28.6124C73.7607 29.2227 73.4179 29.8757 73.0627 30.5438C71.9931 32.5554 70.8051 34.7124 69.8916 35.959C69.4872 36.5108 68.7119 36.6304 68.1601 36.226C67.6082 35.8215 67.4886 35.0463 67.8931 34.4944C68.6813 33.4188 69.7856 31.4294 70.875 29.3806C71.2028 28.7642 71.5293 28.1422 71.8418 27.5469C72.537 26.2223 73.1629 25.0299 73.5788 24.3259C73.9269 23.7368 74.6865 23.5414 75.2756 23.8894Z" fill="#C1BEDC"/>
<path fill-rule="evenodd" clip-rule="evenodd" d="M38.0605 29.3462C33.4961 26.6964 29.0795 24.1323 24.9824 21.6804C24.3953 21.3291 24.2041 20.5684 24.5555 19.9813C24.9068 19.3941 25.6676 19.203 26.2547 19.5544C30.2934 21.9712 34.6739 24.5144 39.2171 27.1521C50.0745 33.4556 61.8611 40.2985 72.132 47.2458C72.6987 47.6291 72.8474 48.3993 72.464 48.966C72.0807 49.5327 71.3105 49.6814 70.7438 49.2981C60.5467 42.4007 48.8879 35.6322 38.0605 29.3462Z" fill="#C1BEDC"/>
<path fill-rule="evenodd" clip-rule="evenodd" d="M38.2322 44.527C37.4839 45.7936 36.4139 47.6046 34.8688 49.8394C33.2278 52.2872 32.0912 54.0589 31.4544 55.1366C31.0147 55.881 30.6011 56.5809 30.2694 57.2693C30.0003 57.7248 29.7291 57.8794 29.3624 57.6628C28.2514 57.0063 27.7847 56.4009 27.969 55.8353C28.4162 54.5128 29.0057 53.2428 29.7271 52.0476C30.2785 51.1144 31.201 49.7558 32.4724 47.9589C33.7439 46.162 34.6972 44.7768 35.2092 43.9101C35.8423 42.8517 36.3756 41.7367 36.8022 40.5795C36.8871 40.4123 37.0327 40.2839 37.2092 40.2204C37.3946 40.1391 37.5986 40.1094 37.7995 40.1345C38.1612 40.1513 38.5047 40.2974 38.7676 40.5463C39.0305 40.7951 39.1953 41.1302 39.2318 41.4903C39.1781 42.5741 38.8327 43.6232 38.2322 44.527ZM50.6783 48.9573C49.4797 49.0775 48.2696 48.9214 47.1407 48.5011C45.9812 48.1015 44.7827 47.8255 43.5652 47.6777C42.1655 48.7399 40.8921 49.9589 39.77 51.311C42.0083 53.7126 42.7862 55.8209 42.0612 57.5809C41.7236 58.4564 41.3141 59.3023 40.8367 60.11C39.1861 63.1583 36.4281 65.4563 33.132 66.5297C32.9273 66.6156 32.7069 66.6576 32.485 66.653C32.2631 66.6484 32.0447 66.5973 31.8437 66.5031C31.6972 66.4145 31.5812 66.2833 31.5114 66.1269L30.9882 65.3381C30.8975 65.1847 30.8452 65.0118 30.8355 64.8338C30.8258 64.6559 30.8591 64.4783 30.9325 64.316C31.0023 64.0929 31.1475 63.901 31.3433 63.7732C31.5391 63.6455 31.7733 63.5899 32.0056 63.616C32.6149 63.6996 33.2353 63.6023 33.7897 63.3361C35.8388 62.3162 37.5438 60.718 38.6939 58.7391C39.3434 57.7243 39.747 56.572 39.8728 55.3737C39.8721 55.0601 39.7879 54.7523 39.6289 54.4819C39.47 54.2115 39.2419 53.9883 38.9682 53.8351C38.431 53.4873 37.9128 53.1111 37.4158 52.708C36.8153 51.9486 36.6364 51.3633 36.9611 50.9406C39.0002 48.1484 41.4874 45.713 44.3219 43.7331C44.586 43.5144 44.9314 43.5387 45.3536 43.7881C45.7758 44.0375 46.1622 44.5506 46.0239 45.0384C46.1638 45.2452 46.3498 45.4167 46.5673 45.5393C47.1354 45.8081 47.7411 45.9891 48.3636 46.076C49.0016 46.1686 49.6208 46.3624 50.1978 46.65C50.6567 46.913 50.9989 47.3401 51.1554 47.8453C51.1684 48.0549 51.1342 48.2648 51.0555 48.4595C50.9768 48.6542 50.8555 48.8288 50.7005 48.9705L50.6783 48.9573Z" fill="#C1BEDC"/>
</g>
<defs>
<clipPath id="clip0_795_413">
<rect width="57" height="70.0208" fill="white" transform="translate(35.7705 0.490234) rotate(30.5745)"/>
</clipPath>
</defs>
</svg>
