<svg width="94" height="94" viewBox="0 0 94 94" fill="none" xmlns="http://www.w3.org/2000/svg">
<path d="M41.7811 35.1168C37.137 38.473 33.9112 44.2597 38.2497 50.7563C41.3946 55.4481 48.2827 56.668 53.5813 53.2398C58.2285 50.2402 59.4066 42.6206 56.1277 38.2259C53.0515 34.094 46.2069 31.9232 41.7811 35.1168ZM47.4194 35.2357C47.6781 35.2357 47.9274 35.267 48.1737 35.2982C54.9932 36.1678 59.2882 44.6381 54.7937 50.3121C53.646 51.7617 52.107 52.8495 50.3603 53.4457C48.6136 54.0419 46.7329 54.1214 44.9424 53.6746C43.152 53.2279 41.5273 52.2738 40.2622 50.9261C38.9971 49.5785 38.1448 47.8941 37.8072 46.0738C36.7381 40.3498 41.5286 34.9792 47.4194 35.2357Z" fill="#C3D4ED"/>
<path d="M46.983 55.3637C43.4548 55.3637 40.0949 53.7997 38.122 50.8407C33.7117 44.2503 37.0716 38.3292 41.6907 35.0011C46.235 31.7199 53.1263 33.9532 56.2524 38.129C57.8607 40.2841 58.4965 43.3901 57.9511 46.4398C57.415 49.4238 55.8535 51.9449 53.6655 53.3587C51.6765 54.6582 49.3563 55.3543 46.983 55.3637ZM41.8715 35.2544C37.3739 38.5043 34.0795 44.2597 38.3807 50.6687C41.5255 55.3605 48.3077 56.4616 53.4972 53.1053C55.6135 51.7384 57.1251 49.2924 57.6425 46.396C58.1755 43.4276 57.5615 40.4123 56.0031 38.326C52.9642 34.2598 46.2755 32.0703 41.8715 35.2544ZM47.1233 54.1125C46.3744 54.1166 45.6279 54.0273 44.901 53.8466C43.0984 53.3601 41.4662 52.3803 40.1865 51.0165C38.9068 49.6527 38.0302 47.9588 37.6544 46.1239C37.4074 44.7606 37.4721 43.3589 37.8436 42.0243C38.215 40.6898 38.8836 39.4573 39.7988 38.4199C40.7354 37.3212 41.9088 36.4509 43.2302 35.8748C44.5516 35.2988 45.9863 35.0321 47.4256 35.0949C47.6687 35.0949 47.9181 35.1231 48.1924 35.1575C51.6676 35.6016 54.6847 38.0039 56.0716 41.4133C57.3589 44.5849 56.935 47.8661 54.9153 50.4185C53.9682 51.5726 52.7785 52.5023 51.4314 53.1409C50.0843 53.7795 48.6131 54.1113 47.1233 54.1125ZM47.0142 35.3983C45.6875 35.4004 44.377 35.6899 43.172 36.247C41.9671 36.8041 40.8962 37.6157 40.0326 38.6263C39.149 39.6287 38.5035 40.8191 38.1445 42.108C37.7855 43.3969 37.7224 44.7507 37.9599 46.0676C38.2925 47.8578 39.131 49.5143 40.3754 50.8397C41.6199 52.1651 43.2179 53.1034 44.9789 53.5428C46.7399 53.9823 48.5897 53.9043 50.3078 53.3181C52.0258 52.732 53.5398 51.6625 54.6691 50.2371C56.6202 47.7754 57.0254 44.6068 55.7849 41.5446C54.4384 38.2259 51.5149 35.8988 48.1549 35.4671C47.89 35.4359 47.6469 35.4171 47.4132 35.4077L47.0142 35.3983Z" fill="#C3D4ED"/>
<path d="M16.8996 8.61731C15.9788 9.20424 15.2628 10.0642 14.851 11.0779C14.4391 12.0916 14.3519 13.2089 14.6012 14.2746C14.8506 15.3403 15.4243 16.3018 16.2428 17.0255C17.0612 17.7493 18.0838 18.1995 19.1687 18.3138C19.2715 19.0926 19.3993 19.8777 19.5271 20.7035C19.5832 21.0507 19.6362 21.401 19.6954 21.7545C19.7827 22.3269 19.8606 22.9087 19.9416 23.503C19.9853 23.8345 20.032 24.1692 20.0788 24.507C17.078 24.7353 14.1069 25.2591 11.2084 26.071C6.38977 27.4816 1.32808 29.5116 0.340055 33.9501C-0.513949 37.7849 1.63353 42.3266 6.23082 46.4054C8.97672 48.842 12.8821 50.8282 17.015 52.9302L17.8939 53.3775C18.857 53.8654 19.8201 54.3878 20.8393 54.9414C21.6746 55.3949 22.513 55.8485 23.3732 56.2958C23.1613 57.3718 22.9712 58.4384 22.7842 59.4956C22.6159 60.434 22.4538 61.3348 22.2855 62.22C21.3099 67.2716 20.9452 71.7976 21.1884 75.67C21.4408 79.6267 22.2231 82.6389 23.5571 84.7409C24.3426 86.0357 25.486 87.0735 26.8485 87.728C29.5726 89.0198 32.9075 88.7571 36.4856 87.0211C37.3612 87.9816 38.5624 88.5797 39.8542 88.6983C41.1459 88.8169 42.4353 88.4474 43.47 87.6622C44.5046 86.877 45.2101 85.7326 45.4482 84.4529C45.6864 83.1733 45.4401 81.8505 44.7576 80.7434C45.8766 79.6142 47.0423 78.338 48.2796 76.893L48.4105 77.04C49.3534 78.1665 50.3697 79.2292 51.4525 80.221C52.9088 81.4467 54.4642 82.5484 56.1028 83.5147C56.4363 83.7212 56.7604 83.9213 57.0815 84.1247C59.0223 85.3526 61.1408 86.2716 63.3618 86.849C64.5581 87.1863 65.8031 87.3154 67.0428 87.2307C68.158 87.1378 69.2402 86.8049 70.2157 86.2548C72.2073 85.1506 73.5195 83.4021 74.3517 80.7465C75.0515 78.5535 75.4079 76.2648 75.4083 73.9621C75.3577 71.6898 75.1327 69.4247 74.7351 67.1871C74.654 66.6741 74.5823 66.1455 74.5075 65.6232C74.467 65.3323 74.4265 65.0414 74.3797 64.7474C77.6399 64.5565 80.71 64.2125 83.353 63.4399C89.2033 61.7196 92.7471 58.7668 93.6135 54.8914C94.2369 52.0356 93.6135 49.0234 91.8245 46.2083C90.872 44.7366 89.7179 43.4067 88.396 42.2578C87.6023 41.5672 86.7491 40.9486 85.8465 40.4092C86.1024 39.385 86.0461 38.3072 85.6848 37.3154C85.3235 36.3237 84.6739 35.4636 83.8199 34.8466C82.966 34.2295 81.9472 33.884 80.8954 33.8547C79.8435 33.8253 78.8072 34.1136 77.9204 34.682C77.4489 34.9861 77.0282 35.363 76.6737 35.7987C76.5896 35.7643 76.5116 35.7205 76.4306 35.6798C75.2711 35.0918 74.1148 34.4287 72.8868 33.7249C72.2634 33.3777 71.6588 33.0243 71.0167 32.6771C71.4905 30.8003 71.9237 28.8204 72.3195 26.756C73.4229 21.0163 73.8343 16.7154 73.613 13.2247C73.3699 9.37113 72.5284 6.29016 71.1383 4.09125C70.3073 2.71536 69.0999 1.60797 67.6599 0.900801C64.1629 -0.750727 59.5749 0.359675 54.3886 4.12253C51.9793 5.86477 49.4983 8.29514 46.2849 12.0611C45.1348 10.9413 43.9815 9.93103 42.8564 8.93323L42.7753 8.86129C41.3715 7.69278 39.8711 6.64636 38.2903 5.7334C37.9069 5.49568 37.5298 5.27047 37.1651 5.039C36.7319 4.76375 36.3173 4.49162 35.9184 4.22262C34.2914 3.15914 32.7517 2.15509 31.1341 1.72031C28.41 1.02592 25.9321 1.21985 23.9685 2.30835C21.8376 3.51424 20.2382 5.48232 19.4897 7.8197C18.5712 7.85087 17.6775 8.12611 16.8996 8.61731ZM16.588 15.0608C16.0647 14.231 15.8909 13.2267 16.1048 12.2685C16.3187 11.3102 16.9027 10.4763 17.7287 9.94979C18.1422 9.6837 18.6058 9.50589 19.0908 9.42744C19.9311 9.28132 20.796 9.43211 21.5381 9.85413C22.2801 10.2761 22.8534 10.9433 23.1603 11.7419C23.4673 12.5405 23.4888 13.4212 23.2213 14.234C22.9538 15.0467 22.4138 15.7413 21.6933 16.1993C20.889 16.7086 19.9203 16.8878 18.9879 16.6998C18.5 16.6034 18.0367 16.4084 17.6262 16.1266C17.2158 15.8449 16.8668 15.4822 16.6004 15.0608H16.588ZM21.5748 53.5714C20.5432 53.0146 19.5739 52.4891 18.5952 51.9918L17.7162 51.5414C13.5086 49.3988 9.86813 47.5439 7.27183 45.2449C5.80132 43.9707 4.51518 42.4968 3.45063 40.8659C1.99508 38.5638 1.43405 36.2992 1.87352 34.2973C2.49377 31.4697 5.5233 29.4022 11.6478 27.6005C14.4811 26.8079 17.3856 26.2987 20.3188 26.0803C20.4528 26.8561 20.6117 27.6443 20.8237 28.4513C20.9671 29.0185 21.1094 29.5919 21.2507 30.1716C21.6372 31.7356 22.0361 33.3683 22.594 35.0011C23.0553 36.3367 23.6538 37.6786 24.2366 38.9735C24.567 39.7117 24.9129 40.4749 25.2309 41.2444C25.4646 41.8043 25.6921 42.3767 25.9259 42.9522C26.2095 43.6497 26.4932 44.3629 26.7955 45.076C26.2158 46.3897 25.6921 47.7003 25.2371 49.0328C24.6063 50.8908 24.089 52.7856 23.688 54.7068C22.9868 54.3315 22.2824 53.9467 21.5842 53.5714H21.5748ZM58.7427 30.425C59.4627 31.576 60.0892 32.7897 60.7593 34.0752C61.1333 34.8009 61.5198 35.5516 61.9281 36.2929C62.1463 36.6902 62.3707 37.0843 62.5858 37.4784C63.4834 39.0892 64.3249 40.6063 65.0792 42.1702C65.3192 42.6676 65.5717 43.1586 65.8179 43.6466C64.8579 46.0457 63.7047 48.6512 62.3115 51.6258C61.9842 52.3265 61.6601 53.0178 61.339 53.709C59.8991 56.8088 58.5339 59.7521 56.9755 62.4671L56.7137 62.439C55.6478 62.3201 54.5725 62.2138 53.4847 62.1262C50.2557 61.8134 46.9207 61.5006 43.5701 60.7499C42.0803 60.4152 40.5811 60.1243 39.1318 59.8459C38.0285 59.6332 36.95 59.4268 35.8997 59.2016C35.7688 59.0045 35.6441 58.8044 35.5163 58.6073C34.8742 57.5276 34.2916 56.4135 33.7709 55.2698C33.3626 54.4097 32.9325 53.5213 32.4556 52.658C32.1439 52.1107 31.8509 51.5664 31.5486 51.0284C30.732 49.5739 29.959 48.2133 29.2765 46.7901C29.0053 46.2302 28.7466 45.6609 28.5035 45.0885C29.1954 43.5402 29.9497 41.9607 30.7289 40.3592C31.2089 39.3749 31.6878 38.3782 32.1657 37.3689C33.9381 33.6181 35.9065 29.9638 38.0627 26.4213C39.2502 26.5495 40.4751 26.6465 41.6626 26.7341C44.6704 26.978 47.784 27.2283 50.8759 27.9227C52.0665 28.1917 53.2572 28.4388 54.4322 28.6859C55.6976 28.9549 56.9256 29.2114 58.1537 29.4866C58.3594 29.8057 58.5588 30.1153 58.7521 30.4281L58.7427 30.425ZM60.3479 30.0277C61.5479 30.3405 62.7135 30.6721 63.8481 31.0631C65.6976 31.72 67.4906 32.5276 69.209 33.4778C68.6729 35.5141 68.0869 37.4502 67.4449 39.3363C67.183 40.0996 66.9025 40.8815 66.5971 41.6823L66.5067 41.4915C65.7306 39.89 64.8361 38.276 63.9696 36.7183C63.7514 36.3242 63.5333 35.9301 63.3182 35.536C62.9161 34.8165 62.5328 34.0721 62.1587 33.3464C61.5821 32.2423 60.9931 31.1037 60.3479 30.0277ZM56.0841 63.9654C53.6281 67.9159 50.8572 71.3628 48.4448 74.2874L48.2453 74.5251L47.9586 74.2123C47.5929 73.8245 47.223 73.4356 46.849 73.0456C45.7176 71.8696 44.555 70.6497 43.4766 69.3109C43.1275 68.873 42.7691 68.4351 42.4076 67.9941C41.3821 66.743 40.3224 65.4511 39.3562 64.0749C38.9604 63.515 38.5458 62.9519 38.1344 62.3827C37.8207 61.9489 37.509 61.51 37.1994 61.0658C37.7459 61.1763 38.2975 61.2806 38.8544 61.3786C40.2944 61.657 41.778 61.9416 43.246 62.2732C46.6932 63.0458 50.0811 63.3679 53.3569 63.6807C54.2608 63.7746 55.1678 63.8622 56.0841 63.9622V63.9654ZM62.7759 54.3846L63.7452 52.3108C64.9171 49.8242 65.927 47.5783 66.7747 45.4983C67.236 46.4023 67.6661 47.2812 68.0402 48.182C68.8692 50.1839 69.664 52.2858 70.3996 54.4378C70.8512 55.8364 71.2268 57.2586 71.5247 58.698C71.6931 59.4268 71.8645 60.1806 72.0515 60.9032C72.2541 61.6945 72.4162 62.4671 72.5502 63.2553C71.665 63.295 70.7736 63.3273 69.876 63.3523C66.3851 63.4618 62.6356 63.1021 58.6804 62.6704C60.1328 60.0555 61.4263 57.2905 62.7759 54.3815V54.3846ZM26.7207 49.5427C27.0074 48.7075 27.3253 47.8786 27.6557 47.0403C27.7212 47.1811 27.7898 47.325 27.8583 47.4626C28.5627 48.9202 29.3824 50.3778 30.1741 51.7854C30.4754 52.3213 30.7767 52.8614 31.078 53.4056C31.533 54.2251 31.9476 55.0947 32.3496 55.9361C32.786 56.8557 33.2442 57.8128 33.7522 58.7011C32.6644 58.4353 31.6047 58.135 30.5699 57.7784C28.7088 57.123 26.8938 56.3423 25.1374 55.4419C25.5431 53.4445 26.0718 51.4743 26.7207 49.5427ZM54.7719 27.1563C53.6031 26.9092 52.4187 26.6621 51.2375 26.3963C48.0365 25.68 44.8698 25.4235 41.8091 25.1764C40.8367 25.0982 39.911 25.0231 39.004 24.9324C41.1451 21.3922 43.5191 17.9992 46.1103 14.7761C46.2194 14.6479 46.3223 14.5196 46.422 14.3914C46.4843 14.454 46.5498 14.5196 46.6121 14.5885C47.6344 15.677 48.5882 16.8968 49.598 18.1855C49.997 18.6954 50.4053 19.2177 50.8198 19.7307C51.2344 20.2437 51.6738 20.7754 52.1102 21.2947C53.0733 22.452 54.0706 23.6531 54.9714 24.9324C55.308 25.4078 55.654 25.8927 56.0031 26.3775C56.294 26.7758 56.5817 27.1803 56.8664 27.5911C56.1589 27.4472 55.4794 27.3033 54.7563 27.1563H54.7719ZM36.3578 26.2492C34.3127 29.6319 32.4402 33.1167 30.7476 36.6902C30.277 37.6942 29.797 38.6795 29.3232 39.6648C28.7622 40.8315 28.2074 41.97 27.6807 43.1055C27.5778 42.8552 27.4812 42.6113 27.369 42.3673C27.1363 41.7855 26.9025 41.21 26.6677 40.6407C26.356 39.8493 25.9914 39.0767 25.6547 38.326C25.0625 37.0092 24.5015 35.7612 24.0683 34.4912C23.5322 32.9273 23.1332 31.3352 22.7655 29.7994C22.619 29.2114 22.4787 28.6296 22.3291 28.0572C22.1452 27.3565 22.0018 26.659 21.8803 25.9677C22.7281 25.9083 23.6039 25.8676 24.5109 25.8395C28.4593 25.7253 32.411 25.8621 36.3423 26.2492H36.3578ZM43.6075 81.9257C44.0162 82.765 44.0891 83.7294 43.8111 84.6209C43.5331 85.5124 42.9254 86.2631 42.1129 86.7189C41.3005 87.1746 40.3449 87.3008 39.4426 87.0713C38.5403 86.8419 37.7599 86.2743 37.2617 85.4853C37.1677 85.335 37.0843 85.1782 37.0124 85.0161C36.6774 84.2669 36.6039 83.4263 36.8038 82.6301C37.0036 81.8338 37.4652 81.1284 38.1138 80.6279C38.7624 80.1274 39.5603 79.861 40.3785 79.8717C41.1966 79.8825 41.9872 80.1697 42.6226 80.6871C42.9324 80.9343 43.198 81.2326 43.4081 81.5692C43.4764 81.6799 43.5379 81.7948 43.5919 81.9132L43.6075 81.9257ZM43.7509 79.5767C42.8485 78.7919 41.7049 78.342 40.5115 78.3021C39.3181 78.2622 38.1472 78.6349 37.1948 79.3577C36.2424 80.0805 35.5662 81.1096 35.2794 82.2729C34.9926 83.4361 35.1125 84.6629 35.6192 85.748C32.5616 87.1869 29.7658 87.4058 27.5342 86.3486C26.4386 85.8163 25.5204 84.9764 24.8911 83.9307C23.7067 82.054 23.021 79.2983 22.7748 75.6105C22.5379 71.857 22.8964 67.478 23.8439 62.5484C24.0153 61.6507 24.1805 60.7343 24.3457 59.799C24.5109 58.8638 24.6574 57.9817 24.8444 57.0621C26.5406 57.92 28.2908 58.666 30.0837 59.2954C31.6813 59.8304 33.3091 60.2701 34.9584 60.6123C35.5818 61.5506 36.2394 62.4452 36.8815 63.321C37.2867 63.8809 37.6918 64.4346 38.0846 64.9945C39.0851 66.4145 40.1635 67.7314 41.2014 69.0044C41.5629 69.4423 41.9151 69.874 42.2642 70.3087C43.3831 71.7007 44.5737 72.9456 45.7207 74.1467C46.0947 74.5345 46.4656 74.9193 46.8241 75.3009C46.9643 75.451 47.1015 75.6136 47.2324 75.7513C46.0012 77.1682 44.8449 78.4444 43.7353 79.5642L43.7509 79.5767ZM72.9335 65.8359C73.0115 66.377 73.0863 66.9056 73.1673 67.428C73.5505 69.5862 73.7693 71.7705 73.8218 73.9621C73.8191 76.1045 73.4868 78.2336 72.8369 80.2742C72.1263 82.5482 71.0759 83.9683 69.4396 84.8754C67.8033 85.7824 66.0392 85.9263 63.7452 85.3258C61.6792 84.7869 59.7089 83.9301 57.9043 82.7859C57.5926 82.5826 57.2467 82.3793 56.9101 82.1603C55.3478 81.25 53.8642 80.2099 52.4748 79.0512C51.4453 78.107 50.4791 77.0955 49.5824 76.0234L49.2988 75.7106L49.6448 75.2946C52.1756 72.223 55.0898 68.5915 57.6643 64.3876C57.71 64.3126 57.7568 64.2344 57.8046 64.1531C62.0684 64.6254 66.1109 65.0382 69.9134 64.9225C70.8816 64.8954 71.8406 64.862 72.7902 64.8224C72.8494 65.1634 72.8993 65.5012 72.9335 65.8359ZM78.7651 36.0114C79.3547 35.6374 80.0379 35.4386 80.7354 35.4381C81.433 35.4375 82.1164 35.6352 82.7067 36.0083C83.2969 36.3814 83.7698 36.9146 84.0706 37.5462C84.3715 38.1778 84.4879 38.8819 84.4065 39.5772C84.3389 40.1104 84.1594 40.6232 83.8798 41.0817C83.6059 41.5245 83.242 41.9042 82.8118 42.196C82.3815 42.4878 81.8948 42.6851 81.3833 42.7751C80.8718 42.865 80.3472 42.8455 79.8437 42.7178C79.3403 42.5902 78.8694 42.3572 78.4619 42.0343C78.0543 41.7113 77.7194 41.3056 77.479 40.8437C77.2385 40.3818 77.098 39.8742 77.0666 39.354C77.0352 38.8339 77.1136 38.3129 77.2967 37.8253C77.4799 37.3377 77.7636 36.8943 78.1293 36.5244C78.3251 36.3303 78.5414 36.1583 78.7744 36.0114H78.7651ZM72.1014 35.0981C73.3481 35.8081 74.52 36.4806 75.7137 37.0843C75.7667 37.1124 75.8166 37.1406 75.8696 37.1625C75.3708 38.3918 75.3522 39.7648 75.8177 41.0072C76.2832 42.2497 77.1985 43.2703 78.3808 43.8653C79.5631 44.4604 80.9256 44.5861 82.1962 44.2174C83.4668 43.8487 84.5521 43.0126 85.2356 41.8762C85.9832 42.3388 86.692 42.8619 87.355 43.4401C91.1637 46.8245 92.8811 50.8689 92.0645 54.5473C91.3414 57.8159 88.1716 60.3683 82.9073 61.9135C80.3671 62.661 77.3532 62.9926 74.1366 63.1646C73.987 62.2888 73.825 61.3974 73.5756 60.4872C73.3948 59.7896 73.2296 59.0827 73.0613 58.332C72.7514 56.8384 72.3602 55.363 71.8894 53.9123C71.1414 51.7228 70.331 49.5927 69.4926 47.5627C68.9472 46.2521 68.277 44.9478 67.6225 43.6872L67.5571 43.5621C68.0682 42.2672 68.5233 41.0317 68.9347 39.8337C69.558 38.0289 70.1097 36.1803 70.6333 34.2473C71.1279 34.5309 71.6203 34.8145 72.1107 35.0981H72.1014ZM55.333 5.39871C59.9552 2.04248 64.1005 0.938335 67.0116 2.32712C69.9227 3.7159 71.7086 7.607 72.0702 13.3279C72.279 16.681 71.877 20.8536 70.8017 26.4651C70.4359 28.3543 70.0391 30.1675 69.611 31.9045C67.9242 30.9904 66.1681 30.2112 64.3592 29.5742C62.6699 28.9955 60.9307 28.5295 59.1199 28.1072C58.4965 27.2033 57.8731 26.3243 57.2498 25.4673L56.2275 24.0347C55.2924 22.7022 54.2764 21.4792 53.2914 20.2812C52.8613 19.762 52.4312 19.2521 52.0198 18.736C51.6084 18.2199 51.2125 17.7195 50.8042 17.2034C49.7695 15.8865 48.797 14.6448 47.7248 13.5C47.622 13.3873 47.5129 13.2779 47.4132 13.1872C50.5861 9.45871 53.0047 7.08152 55.333 5.39871ZM24.729 3.69088C26.3311 2.81507 28.41 2.65242 30.732 3.26236C32.1065 3.62832 33.4748 4.51352 35.0581 5.55511C35.4758 5.82723 35.8997 6.10874 36.3391 6.38712C36.7132 6.62172 37.0934 6.85631 37.483 7.0909C38.9882 7.95741 40.4167 8.95153 41.753 10.0624L41.8372 10.1343C42.9779 11.129 44.1436 12.1487 45.2937 13.2622L44.8823 13.7627C42.4699 16.6904 40.0419 20.178 37.2493 24.7479C33.0056 24.2933 28.7363 24.1272 24.4704 24.2505C23.4979 24.2787 22.5535 24.3256 21.6434 24.385C21.5915 24.018 21.5416 23.6521 21.4938 23.2871C21.4128 22.6834 21.3286 22.0891 21.2413 21.5105C21.1852 21.1539 21.126 20.7973 21.0699 20.4501C20.9515 19.6963 20.8362 18.9613 20.7364 18.2418C21.3759 18.1153 21.986 17.8691 22.5348 17.5162C23.3956 16.9682 24.079 16.1808 24.5018 15.2499C24.9245 14.319 25.0683 13.2848 24.9157 12.2733C24.7631 11.2619 24.3206 10.3168 23.6422 9.55322C22.9638 8.78967 22.0787 8.24061 21.0949 7.97297C21.7587 6.1564 23.0476 4.63772 24.729 3.69088Z" fill="#C3D4ED"/>
<path d="M40.3193 88.9009C39.5961 88.9025 38.88 88.7566 38.2146 88.4722C37.5492 88.1878 36.9483 87.7707 36.4482 87.2463C32.8483 88.9666 29.5071 89.195 26.7861 87.9063C25.3992 87.2348 24.234 86.1773 23.4293 84.8597C22.0735 82.7171 21.2912 79.7237 21.0356 75.7075C20.7925 71.7976 21.1634 67.2622 22.1359 62.2075C22.2886 61.3974 22.4475 60.5685 22.5909 59.724L22.6346 59.4831C22.834 58.3446 23.0086 57.378 23.2018 56.3959C22.3696 55.9611 21.5437 55.5138 20.7676 55.0947L20.724 55.0696C19.7203 54.5285 18.7728 54.0155 17.8253 53.537L16.9464 53.0866C12.8073 50.9846 8.89568 48.9984 6.12796 46.543C1.48704 42.4236 -0.67914 37.8287 0.187332 33.9345C1.19406 29.4303 6.29939 27.3659 11.1647 25.9396C14.0162 25.1352 16.9391 24.6114 19.8918 24.3756L19.7764 23.5342C19.6996 22.9399 19.6175 22.3581 19.5302 21.7889L19.4523 21.2947C19.4242 21.107 19.3931 20.9224 19.365 20.7379V20.666C19.2435 19.9059 19.1313 19.1833 19.0346 18.4764C17.6979 18.3068 16.4723 17.6427 15.5976 16.6141C14.7229 15.5856 14.2622 14.2665 14.3054 12.9149C14.3487 11.5634 14.8929 10.2767 15.8315 9.30661C16.7702 8.33648 18.0357 7.75273 19.3806 7.66956C20.1545 5.33898 21.7627 3.37954 23.8937 2.17073C25.8916 1.06345 28.4069 0.863266 31.1684 1.58581C32.8172 2.02371 34.3631 3.03402 35.9994 4.08812L36.1864 4.21011C36.5386 4.44158 36.8908 4.67304 37.2586 4.9045L38.3807 5.5989C39.9697 6.50815 41.4766 7.55475 42.8844 8.72679L42.9686 8.80186C44.1436 9.82155 45.2096 10.7568 46.2973 11.8078C49.4453 8.11998 51.9232 5.69899 54.3169 3.96614C59.55 0.200152 64.2065 -0.919633 67.7441 0.760045C69.2113 1.47855 70.4416 2.60566 71.2879 4.0068C72.7029 6.24324 73.5444 9.34298 73.7813 13.2153C74.0057 16.7217 73.5912 21.035 72.4847 26.7872C72.0889 28.8454 71.6712 30.7472 71.21 32.5957C71.799 32.9273 72.385 33.2589 72.9616 33.5904C74.1148 34.2504 75.3085 34.9354 76.496 35.5391L76.5646 35.5735L76.627 35.6079C77.1785 34.9627 77.873 34.4561 78.6548 34.1289C79.4366 33.8017 80.2839 33.663 81.1288 33.7238C81.9737 33.7846 82.7927 34.0433 83.5199 34.4792C84.2472 34.915 84.8625 35.5158 85.3166 36.2335C85.6984 36.8351 85.9575 37.5068 86.0789 38.2096C86.2003 38.9124 86.1817 39.6324 86.0241 40.3279C86.9077 40.8529 87.7423 41.457 88.5176 42.1327C89.8404 43.2925 90.9944 44.6328 91.9461 46.1145C93.7694 48.9984 94.3959 52.0419 93.7569 54.9164C92.878 58.8481 89.2937 61.8447 83.3873 63.5806C81.0933 64.25 78.363 64.6535 74.5512 64.885C74.5854 65.1196 74.6197 65.3573 74.6509 65.5919L74.6977 65.9047C74.7569 66.3269 74.8161 66.7492 74.8784 67.1558C75.2783 69.4006 75.5044 71.673 75.5548 73.9527C75.558 76.2746 75.1993 78.5827 74.492 80.7934C73.6504 83.4866 72.3102 85.2663 70.2843 86.3924C69.2898 86.9538 68.1862 87.2931 67.049 87.387C65.7893 87.476 64.5238 87.3447 63.3089 86.9992C61.0711 86.4187 58.9367 85.4933 56.9817 84.256C56.7979 84.1372 56.6108 84.0214 56.4207 83.9057L55.975 83.6273C54.3472 82.6765 52.8001 81.5927 51.3497 80.3868C50.2617 79.3907 49.2413 78.3227 48.2952 77.1901C47.1171 78.5601 46.0262 79.7519 44.9665 80.8247C45.4424 81.6431 45.6948 82.573 45.6982 83.5206C45.7015 84.4681 45.4557 85.3998 44.9856 86.2216C44.5155 87.0433 43.8377 87.7261 43.0205 88.2009C42.2034 88.6757 41.276 88.9258 40.3318 88.926L40.3193 88.9009ZM36.5199 86.8616L36.5978 86.9491C37.4494 87.8737 38.6131 88.4475 39.8627 88.559C41.1124 88.6705 42.3587 88.3117 43.3594 87.5524C44.3601 86.793 45.0438 85.6874 45.2774 84.4503C45.5111 83.2133 45.278 81.9333 44.6236 80.8591L44.5582 80.7528L44.6454 80.6652C45.7644 79.5392 46.9145 78.2817 48.1612 76.8241L48.2765 76.6896L48.5259 76.9712C49.4644 78.0918 50.4754 79.1492 51.5523 80.1366C52.9929 81.3377 54.5306 82.4163 56.1496 83.3615L57.1594 83.9902C59.0855 85.2106 61.1882 86.1244 63.393 86.6989C64.5716 87.0335 65.7991 87.1605 67.021 87.0743C68.1164 86.9837 69.1794 86.6572 70.1378 86.1171C72.092 85.0349 73.3824 83.302 74.1896 80.6996C74.8857 78.522 75.24 76.249 75.24 73.9621C75.1902 71.698 74.9651 69.4412 74.5667 67.2121C74.5044 66.7992 74.4452 66.377 74.386 65.961L74.3392 65.6482C74.2987 65.3573 74.2582 65.0664 74.2146 64.7755L74.1865 64.6035H74.3579C78.2352 64.3751 80.9936 63.9779 83.2969 63.3023C89.0848 61.6007 92.5975 58.6855 93.4484 54.857C94.0717 52.0669 93.4483 49.1048 91.6811 46.2928C90.7406 44.8343 89.6001 43.5159 88.2932 42.3767C87.5077 41.69 86.6617 41.0765 85.7654 40.5437L85.6688 40.4843L85.7124 40.3498C85.9889 39.2214 85.8747 38.0323 85.3886 36.9777C84.9025 35.923 84.0735 35.0657 83.0377 34.5465C82.0018 34.0273 80.8208 33.8771 79.6887 34.1206C78.5566 34.364 77.5406 34.9867 76.8077 35.8863L76.7329 35.977L76.6238 35.9301L76.4368 35.8394L76.3714 35.805C75.1776 35.1981 73.9808 34.5131 72.8213 33.85C72.2104 33.4997 71.5933 33.1494 70.97 32.7991L70.864 32.7427L70.892 32.6239C71.3658 30.7472 71.7928 28.811 72.1949 26.7153C73.2951 20.9881 73.7065 16.706 73.4852 13.2247C73.2452 9.40241 72.4193 6.34333 71.0354 4.15381C70.215 2.8029 69.0249 1.71715 67.6069 1.02592C64.1784 -0.600588 59.631 0.506686 54.4945 4.23201C52.0977 5.96799 49.6074 8.41087 46.422 12.1487L46.316 12.2738L46.1945 12.1581C45.0724 11.0665 43.9753 10.1031 42.766 9.04896L42.6818 8.97702C41.2868 7.81173 39.7934 6.77039 38.2186 5.86477L37.7885 5.63017L37.0903 5.18601C36.7194 4.95142 36.3641 4.71996 36.015 4.48849L35.8436 4.37902C34.2135 3.30928 32.6894 2.31148 31.0904 1.8767C28.4069 1.18544 25.9695 1.37937 24.0434 2.44598C21.9502 3.62989 20.377 5.56031 19.6362 7.85411L19.6019 7.9542H19.4928C18.205 8.00762 16.9851 8.54848 16.0786 9.46798C15.1721 10.3875 14.6462 11.6174 14.6067 12.9103C14.5672 14.2031 15.0171 15.4631 15.8658 16.4366C16.7145 17.4101 17.899 18.0249 19.1811 18.1574H19.3058V18.2794C19.4055 19.0363 19.524 19.7933 19.6518 20.594V20.666C19.6798 20.8505 19.711 21.035 19.739 21.2227L19.817 21.7169C19.9042 22.2883 19.9863 22.8732 20.0632 23.4717L20.2596 24.6571H20.0975C17.1069 24.8845 14.146 25.4083 11.2582 26.2211C6.47704 27.638 1.4621 29.6555 0.492779 34.0033C-0.348758 37.7849 1.78002 42.2672 6.33367 46.3084C9.07334 48.7388 12.9662 50.7156 17.0835 52.8082L17.9625 53.2586C18.9162 53.7372 19.8637 54.2501 20.8673 54.7944L20.911 54.8194C21.7213 55.2573 22.5816 55.7234 23.4449 56.1707L23.5509 56.2238L23.526 56.3396C23.3265 57.3593 23.1457 58.3571 22.9369 59.5363L22.8933 59.7803C22.7405 60.6248 22.5816 61.4568 22.4382 62.2669C21.4689 67.2872 21.1011 71.8039 21.3442 75.6887C21.5967 79.6486 22.3634 82.5951 23.6912 84.6908C24.4575 85.9623 25.5778 86.9811 26.9139 87.6216C29.5788 88.8728 32.8639 88.6382 36.4171 86.9147L36.5199 86.8616ZM40.3255 87.3182C39.4114 87.3219 38.5263 86.9955 37.8321 86.3986C37.5497 86.1559 37.3049 85.8724 37.1059 85.5572C37.0055 85.4009 36.918 85.2367 36.8441 85.0661C36.4514 84.1869 36.4052 83.191 36.7149 82.279C37.0246 81.367 37.6672 80.6066 38.5131 80.151C39.3591 79.6954 40.3457 79.5784 41.2742 79.8235C42.2027 80.0687 43.0041 80.6578 43.5171 81.4722C43.5928 81.5932 43.6615 81.7186 43.7229 81.8475C44.0055 82.4273 44.1364 83.0698 44.1031 83.7144C44.0699 84.359 43.8736 84.9845 43.5327 85.5319C43.1918 86.0793 42.7177 86.5305 42.1549 86.843C41.5922 87.1556 40.9594 87.3191 40.3162 87.3182H40.3255ZM40.3255 80.0177C39.6631 80.0154 39.0139 80.2043 38.4555 80.562C37.7523 81.0149 37.2337 81.7052 36.993 82.5082C36.7524 83.3112 36.8057 84.174 37.1433 84.941C37.2106 85.096 37.2898 85.2456 37.3802 85.3883C37.5629 85.6777 37.7877 85.9381 38.0472 86.1609C38.6547 86.686 39.4241 86.9847 40.2256 87.0067C41.0271 87.0287 41.8116 86.7727 42.4469 86.2817C43.0822 85.7908 43.5293 85.0951 43.7129 84.3118C43.8965 83.5285 43.8054 82.7057 43.4548 81.982C43.3986 81.8645 43.3351 81.7506 43.2647 81.6411C43.0628 81.3197 42.8089 81.0343 42.5135 80.7966C41.8916 80.292 41.1159 80.0171 40.3162 80.0177H40.3255ZM30.5855 87.1525C29.5098 87.1627 28.4452 86.933 27.4687 86.48C26.348 85.9318 25.4078 85.0719 24.7602 84.0027C23.5571 82.1009 22.8559 79.3546 22.619 75.6074C22.3821 71.8602 22.7405 67.4405 23.6912 62.5078C23.8626 61.6101 24.0278 60.6936 24.193 59.7584C24.3582 58.8231 24.5046 57.9411 24.6916 57.0215L24.729 56.8181L24.9129 56.9089C26.6022 57.7653 28.3463 58.5082 30.1336 59.1328C31.7255 59.6683 33.3481 60.107 34.9927 60.4465L35.055 60.4621L35.0893 60.5153C35.7407 61.485 36.4233 62.4171 37.0093 63.2178L37.296 63.6151C37.6077 64.0436 37.9194 64.469 38.231 64.8944C39.2191 66.2988 40.285 67.6 41.3167 68.8605L41.3447 68.8949C41.7063 69.3328 42.0585 69.7676 42.4076 70.1993C43.4953 71.5536 44.6517 72.7673 45.7737 73.9527L45.8547 74.0372C46.2288 74.425 46.5997 74.8098 46.9581 75.1945C47.1015 75.3447 47.2386 75.5073 47.3726 75.6481L47.4599 75.7481L47.3726 75.8514C46.101 77.3371 44.9571 78.5914 43.8756 79.683L43.7727 79.7894L43.6636 79.6924C42.7892 78.9284 41.6795 78.4895 40.5207 78.4493C39.362 78.4091 38.2247 78.7701 37.2998 79.4717C36.3748 80.1733 35.7185 81.1728 35.4408 82.3025C35.1632 83.4322 35.2812 84.6233 35.775 85.6761L35.8405 85.82L35.7002 85.8857C34.109 86.6806 32.3625 87.1131 30.5855 87.1525ZM24.9348 57.2811C24.7758 58.1319 24.6231 58.9733 24.4735 59.8147C24.3083 60.753 24.1431 61.6664 23.9717 62.5672C23.0366 67.4717 22.6688 71.8539 22.9057 75.5886C23.1426 79.3233 23.8408 81.9789 24.9971 83.8338C25.6128 84.8528 26.5076 85.6726 27.5747 86.1953C29.7159 87.2119 32.4151 87.0242 35.3885 85.6573C34.9101 84.5488 34.8169 83.3111 35.1238 82.1431C35.4308 80.975 36.1201 79.9444 37.081 79.2169C38.0418 78.4893 39.2185 78.107 40.422 78.1314C41.6255 78.1559 42.7858 78.5855 43.7166 79.3515C44.7358 78.313 45.8173 77.1307 47.008 75.7419L46.6963 75.401C46.3347 75.0173 45.967 74.6325 45.5929 74.2468L45.5088 74.1592C44.3867 72.98 43.2242 71.7601 42.1271 70.4057C41.7811 69.9741 41.4289 69.5424 41.0673 69.1045L41.0362 69.067C40.0014 67.8158 38.9323 66.4958 37.9381 65.0852C37.6389 64.6681 37.3334 64.2427 37.0217 63.809L36.735 63.4117C36.1584 62.6235 35.4883 61.7039 34.8431 60.7499C33.2104 60.4052 31.5994 59.9645 30.0183 59.4299C28.2791 58.825 26.581 58.1072 24.9348 57.2811ZM66.2885 85.8481C65.4159 85.8356 64.5486 85.7105 63.7078 85.4759C61.6254 84.9346 59.6393 84.0725 57.8202 82.9204L57.0534 82.4418L56.7978 82.2886C55.2385 81.3795 53.758 80.3405 52.372 79.1826C51.338 78.2324 50.3666 77.2158 49.464 76.1391L49.3175 75.9702L49.0931 75.7169L49.1773 75.6137C49.2801 75.4854 49.3861 75.3572 49.4889 75.232L49.517 75.1945C52.0416 72.1292 54.9527 68.5071 57.5241 64.3063C57.5739 64.2281 57.6176 64.1562 57.6612 64.0749L57.7142 63.9873H57.8139C62.2211 64.4721 66.1763 64.8662 69.9009 64.7536C70.8713 64.7265 71.8302 64.6931 72.7777 64.6535H72.918L72.9772 65.0758C73.0146 65.3198 73.0489 65.5637 73.0832 65.8077C73.158 66.3457 73.2328 66.8774 73.3169 67.3967C73.6995 69.5665 73.9183 71.7623 73.9714 73.9652C73.9693 76.1235 73.635 78.2685 72.9803 80.3243C72.2572 82.642 71.185 84.0777 69.5113 85.0161C68.5304 85.5689 67.4229 85.8557 66.2979 85.8481H66.2885ZM49.5108 75.695L49.5637 75.7544C49.6105 75.8076 49.6572 75.8639 49.7071 75.9171C50.6004 76.9852 51.5624 77.9935 52.587 78.9355C53.9603 80.0811 55.4272 81.1086 56.9724 82.0071L57.2249 82.1635L57.9947 82.642C59.7865 83.7779 61.7433 84.6273 63.7951 85.16C66.0485 85.7512 67.769 85.6198 69.3742 84.7283C70.9793 83.8369 72.0016 82.4481 72.6998 80.2148C73.3434 78.1922 73.6724 76.0822 73.6753 73.959C73.6753 72.0604 73.4135 69.9834 73.0239 67.4499C72.9398 66.9275 72.865 66.3957 72.7902 65.8546C72.7559 65.6106 72.7216 65.3698 72.6842 65.1227L72.6655 64.9819C71.7616 65.0174 70.8484 65.0487 69.9258 65.0758C66.2075 65.1884 62.2741 64.8005 57.895 64.3188C57.8669 64.3689 57.8357 64.4189 57.8046 64.469C55.2207 68.6854 52.3034 72.3168 49.7726 75.3916L49.7414 75.4291L49.5108 75.695ZM48.264 74.7566L48.1207 74.594C48.0334 74.5001 47.9492 74.4063 47.862 74.3156C47.5877 74.0216 47.3072 73.7307 47.0298 73.4366L46.7524 73.1457C45.5244 71.8696 44.421 70.7029 43.3707 69.3923C43.0216 68.9575 42.6631 68.5196 42.3016 68.0786L42.2548 68.0191C41.245 66.7836 40.2009 65.5168 39.244 64.1499C38.9573 63.7433 38.6612 63.3335 38.362 62.9207L38.0253 62.4734C37.7137 62.0386 37.402 61.6038 37.0716 61.1565L36.841 60.8437L37.2274 60.9219L38.8201 61.2347H38.8825C40.1666 61.4818 41.7624 61.7884 43.2803 62.1293C46.7088 62.8988 50.0998 63.2209 53.3694 63.5337C54.2483 63.6151 55.1896 63.7058 56.1153 63.809L56.3615 63.8371L56.2306 64.0467C53.7652 68.0129 50.9881 71.4629 48.5788 74.3875L48.264 74.7566ZM37.5391 61.3067L38.2622 62.3013L38.5988 62.7674C38.898 63.1844 39.1931 63.5942 39.484 63.9967C40.419 65.3479 41.4725 66.6178 42.4792 67.8471L42.526 67.9065C42.8907 68.3476 43.246 68.7886 43.5982 69.2234C44.6392 70.5152 45.7363 71.6756 46.9612 72.9487L47.2386 73.2396L48.0739 74.1185C48.13 74.1779 48.1861 74.2374 48.2391 74.2999L48.3233 74.1998C50.6827 71.3378 53.3943 67.966 55.8192 64.1061C54.9745 64.0123 54.1267 63.931 53.3257 63.8559C50.0437 63.5431 46.6526 63.2303 43.1961 62.4452C41.6813 62.1074 40.0793 61.8009 38.8077 61.5538H38.7453L37.5391 61.3067ZM68.5825 63.5337C65.422 63.5337 62.084 63.2053 58.6617 62.8331L58.4279 62.8081L58.5433 62.5985C60.0206 59.9617 61.3484 57.0997 62.6356 54.3283L62.9972 53.5557C63.205 53.1241 63.4076 52.6904 63.605 52.2545C64.7706 49.7773 65.7587 47.5627 66.6314 45.4482L66.7623 45.1355L66.915 45.4482C67.3171 46.2427 67.7846 47.1842 68.1835 48.1414C69.022 50.1682 69.8167 52.2764 70.5461 54.3972C71.0037 55.7952 71.3845 57.2174 71.6868 58.6573L71.7523 58.9451C71.8988 59.5707 72.0484 60.2338 72.2104 60.8563C72.4006 61.6007 72.5658 62.3733 72.7122 63.2241L72.7434 63.3992H72.5658C71.6806 63.4389 70.7881 63.4712 69.8884 63.4962C69.4521 63.515 69.0188 63.5212 68.57 63.5212L68.5825 63.5337ZM58.9204 62.5453C62.7167 62.9582 66.4007 63.3085 69.8604 63.2022C70.6915 63.1771 71.5227 63.148 72.3538 63.1146C72.2198 62.342 72.0671 61.632 71.8894 60.947C71.7273 60.3214 71.5777 59.6614 71.4312 59.0264L71.3658 58.7387C71.0677 57.3047 70.6931 55.8878 70.2437 54.4941C69.5175 52.3734 68.7227 50.2715 67.8874 48.2383C67.5415 47.4094 67.1425 46.5899 66.781 45.8674C65.9394 47.8849 64.9857 50.0181 63.8761 52.3765C63.6704 52.8113 63.4709 53.243 63.2683 53.6746L62.9099 54.4472C61.6632 57.1497 60.3666 59.9429 58.9297 62.5328L58.9204 62.5453ZM73.9933 63.3492L73.9714 63.2116C73.8 62.2106 73.6224 61.363 73.4104 60.5497C73.2141 59.7928 73.0426 59.0327 72.8961 58.3883C72.5878 56.9001 72.1986 55.4299 71.7305 53.9843C70.9855 51.8135 70.1721 49.6834 69.3368 47.644C68.7757 46.2959 68.0526 44.9009 67.4667 43.7811L67.3669 43.5934L67.395 43.5277C67.9155 42.1984 68.3674 40.9785 68.7664 39.8055C69.3742 38.0289 69.9289 36.2053 70.465 34.2254L70.5149 34.0314L70.6894 34.1315L72.173 34.9761L72.2447 35.0167C73.4634 35.7111 74.6104 36.368 75.7761 36.956L75.8384 36.9904L75.9257 37.0311L76.0628 37.0936L76.0067 37.2344C75.5982 38.2417 75.52 39.3534 75.7832 40.4084C76.0465 41.4634 76.6377 42.4068 77.4711 43.1021C78.3044 43.7973 79.3367 44.2081 80.4184 44.2751C81.5 44.3421 82.5748 44.0617 83.487 43.4746C84.1511 43.0533 84.7082 42.4825 85.114 41.8074L85.1951 41.6729L85.3291 41.7542C86.082 42.2178 86.797 42.7407 87.4672 43.3182C91.3227 46.7432 93.0556 50.847 92.2266 54.5786C91.4816 57.9192 88.2745 60.5216 82.9478 62.0699C80.7069 62.7299 77.989 63.1177 74.1429 63.3367L73.9933 63.3492ZM67.716 43.5746L67.7472 43.6372C68.33 44.7632 69.0562 46.1614 69.6173 47.5252C70.465 49.5677 71.2723 51.7072 72.0172 53.881C72.4879 55.3386 72.8812 56.8202 73.1954 58.3195C73.3387 58.9607 73.507 59.7177 73.7065 60.4715C73.906 61.2253 74.0836 62.0699 74.2488 63.0208C77.989 62.8049 80.6539 62.4202 82.845 61.7696C88.0563 60.2432 91.1887 57.7315 91.9055 54.5098C92.7097 50.8939 91.011 46.8996 87.2459 43.5621C86.6291 43.0266 85.9715 42.5403 85.2792 42.1077C84.5558 43.2347 83.4425 44.0533 82.1536 44.4059C80.8648 44.7585 79.4915 44.6202 78.2982 44.0175C77.1049 43.4149 76.176 42.3905 75.6902 41.1417C75.2044 39.8928 75.1961 38.5078 75.667 37.2532H75.6389C74.4639 36.6589 73.3107 36.002 72.092 35.3045L72.0203 35.2638L70.7113 34.5163C70.1939 36.4274 69.6516 38.1978 69.0625 39.9213C68.6822 41.0536 68.2396 42.2547 67.7254 43.5621L67.716 43.5746ZM57.0534 62.6548L56.6888 62.611C55.5574 62.4859 54.426 62.3764 53.466 62.2982H53.3849C50.1809 61.9854 46.8646 61.6726 43.5296 60.9251C42.0335 60.5904 40.5188 60.2995 39.0944 60.0274L38.9697 60.0023C37.8913 59.7928 36.8752 59.5988 35.8529 59.3768H35.7906L35.7532 59.3236L35.3698 58.723C34.7393 57.6357 34.1691 56.5142 33.6618 55.3637V55.3355C33.2379 54.4441 32.8203 53.5745 32.3528 52.73C32.0691 52.2139 31.7793 51.7009 31.4925 51.1911L31.4426 51.1004C30.6292 49.6521 29.8593 48.2853 29.1674 46.8558C28.9056 46.3147 28.6469 45.7391 28.3913 45.148L28.3632 45.0854L28.3913 45.0197C29.0614 43.5183 29.797 41.9888 30.6198 40.2872C31.0998 39.303 31.5777 38.3062 32.0535 37.297C33.837 33.5472 35.8136 29.893 37.9755 26.3493L38.0285 26.2649H38.1251C39.2004 26.3775 40.3068 26.4682 41.3915 26.5589L41.7749 26.5902C44.7732 26.831 47.8713 27.0844 50.9538 27.7788C51.8889 27.9852 52.8239 28.1823 53.7309 28.3762L54.9776 28.6358C56.109 28.8735 57.1781 29.0988 58.2472 29.3396L58.3064 29.3552L58.2846 29.4022C58.4872 29.7149 58.6898 30.0277 58.883 30.3405C59.5905 31.4728 60.2076 32.6583 60.859 33.9126L60.9681 34.1222C61.3234 34.8103 61.6912 35.5203 62.0746 36.2178L62.3863 36.7934C62.5016 36.9967 62.6138 37.2 62.726 37.4189C63.6611 39.083 64.4839 40.5875 65.2195 42.1108C65.4501 42.5894 65.6901 43.0492 65.927 43.5277L65.9893 43.6497L65.9613 43.7154C65.0262 46.0863 63.8636 48.7013 62.4517 51.704L61.4918 53.7997C60.1266 56.7399 58.7147 59.7834 57.1282 62.5578L57.0534 62.6548ZM35.9994 59.0577C36.9906 59.2673 37.9848 59.4612 39.0383 59.6645L39.163 59.6864C40.5873 59.9585 42.1052 60.2526 43.6075 60.5904C46.9207 61.3317 50.2276 61.6507 53.4255 61.9573H53.5034C54.4634 62.048 55.601 62.1543 56.7355 62.2701L56.8945 62.2888C58.4685 59.5394 59.8617 56.5366 61.2112 53.6339L62.1837 51.5508C63.58 48.5824 64.7177 45.9956 65.6589 43.6435C65.4221 43.1774 65.1821 42.7051 64.9514 42.2296C64.2127 40.7001 63.393 39.2019 62.458 37.5378C62.3489 37.3345 62.2336 37.1312 62.1213 36.9122L61.8097 36.3336C61.4263 35.6329 61.0554 34.9198 60.7001 34.2316L60.591 34.0221C59.9427 32.7709 59.3287 31.5917 58.6274 30.4719C58.4466 30.1779 58.2596 29.887 58.0695 29.5992C57.0254 29.3646 55.975 29.1425 54.8654 28.9111L53.6343 28.6515C52.6993 28.4544 51.7829 28.2605 50.8541 28.0509C47.7903 27.3628 44.7015 27.1125 41.7156 26.8686L41.3323 26.8373C40.285 26.7528 39.2066 26.6653 38.1562 26.5526C36.0253 30.0618 34.0767 33.6794 32.3185 37.3908C31.8406 38.398 31.3616 39.3958 30.8816 40.3842C30.0713 42.0576 29.3482 43.5684 28.6999 45.0448C28.9461 45.614 29.1954 46.1614 29.4448 46.6775C30.1305 48.0944 30.9003 49.4613 31.7107 50.9064L31.7606 50.994C32.0504 51.507 32.3372 52.02 32.6208 52.5392C33.0914 53.39 33.5122 54.2658 33.9392 55.1604C34.4581 56.2976 35.0387 57.4055 35.6784 58.4791C35.7657 58.698 35.881 58.8763 35.9994 59.0577ZM34.0763 58.9482L33.7273 58.8638C32.5553 58.576 31.5081 58.2726 30.5294 57.9254C28.6616 57.268 26.8403 56.4842 25.0781 55.5795L24.969 55.5232L24.994 55.4075C25.3959 53.3951 25.9236 51.4102 26.5742 49.4645C26.8422 48.6794 27.1539 47.8599 27.5092 46.9622L27.6464 46.6494L27.796 46.9622C27.8583 47.0998 27.9269 47.2437 27.9955 47.3813C28.703 48.8514 29.5539 50.3622 30.3081 51.6947C30.6198 52.2327 30.9128 52.7706 31.212 53.3149C31.6639 54.1375 32.0785 55.004 32.4805 55.8422C32.9138 56.7525 33.3719 57.719 33.8862 58.6104L34.0763 58.9482ZM25.3244 55.3637C27.038 56.2395 28.8082 56.9992 30.6229 57.6376C31.4956 57.9504 32.4213 58.2101 33.4468 58.4697C32.9979 57.6502 32.5896 56.8088 32.2 56.0111C31.7948 55.1635 31.3803 54.3002 30.9315 53.4869C30.6198 52.9427 30.3299 52.4047 30.0307 51.8698C29.2983 50.5342 28.4412 49.0172 27.7399 47.5439L27.69 47.4407C27.3783 48.2039 27.1134 48.914 26.8828 49.5958C26.2428 51.4836 25.7223 53.4101 25.3244 55.3637ZM23.8096 54.9383L23.6257 54.8413C23.1052 54.5661 22.5909 54.2877 22.0673 54.0093L21.3161 53.6058C20.3531 53.0834 19.4461 52.5924 18.511 52.1263L17.6321 51.679C13.4182 49.527 9.77774 47.6753 7.16897 45.3544C5.69009 44.0806 4.39463 42.6068 3.31972 40.9754C1.82989 38.6013 1.2751 36.2835 1.7208 34.2785C2.3691 31.3727 5.41733 29.2739 11.6042 27.4504C14.4475 26.6542 17.3625 26.1429 20.3063 25.9239H20.4466L20.4715 26.0647C20.6242 26.9374 20.7832 27.71 20.9733 28.4231C21.1198 28.9924 21.2632 29.5648 21.4034 30.1466C21.765 31.6292 22.1764 33.3058 22.7405 34.9636C23.2018 36.3054 23.8002 37.6348 24.38 38.9203V38.961C24.6916 39.6867 25.047 40.4405 25.3586 41.1974C25.5207 41.5822 25.6703 41.9732 25.8386 42.3673L26.2532 43.3964C26.4713 43.9344 26.6895 44.4817 26.9233 45.026L26.9482 45.0885L26.9202 45.1511C26.2968 46.5649 25.7919 47.8567 25.3618 49.0954C24.7463 50.9441 24.2426 52.8285 23.8532 54.7381L23.8096 54.9383ZM21.659 53.4306L22.2263 53.7434C22.6792 53.9916 23.1343 54.2366 23.5914 54.4785C23.9837 52.6211 24.4832 50.7882 25.0875 48.989C25.5082 47.7566 26.0225 46.4867 26.6241 45.0792C26.4028 44.5537 26.1908 44.0282 25.9789 43.5152L25.5581 42.4736C25.3992 42.0795 25.2464 41.6885 25.0812 41.3038C24.7696 40.55 24.433 39.8024 24.1057 39.0767V39.0392C23.5228 37.7443 22.9213 36.4086 22.4569 35.0511C21.8865 33.3808 21.472 31.6949 21.1104 30.2092C20.9712 29.6274 20.8289 29.0539 20.6834 28.4888C20.5027 27.8069 20.3437 27.0719 20.2003 26.2461C17.3251 26.4687 14.4784 26.9726 11.7008 27.7506C5.63551 29.5304 2.66207 31.5635 2.03871 34.3474C1.61171 36.2773 2.15092 38.5043 3.59712 40.7908C4.65211 42.4068 5.9279 43.8661 7.38715 45.1261C9.96475 47.4157 13.5927 49.258 17.791 51.3819L18.6887 51.8385C19.6237 52.3077 20.5214 52.7988 21.4938 53.3212L21.659 53.4306ZM27.6713 43.4777L27.235 42.4079C27.0043 41.8303 26.7716 41.2558 26.5368 40.6845C26.2469 39.9838 25.9353 39.2894 25.636 38.6201L25.5082 38.3354C24.9192 37.0248 24.3644 35.7893 23.9498 34.5288C23.3764 32.9429 22.9836 31.2789 22.6252 29.8338L22.5535 29.521C22.432 29.0362 22.3166 28.5545 22.1889 28.0822C22.0205 27.4378 21.8772 26.7497 21.74 25.9771L21.7089 25.8082H21.8803C22.6907 25.7519 23.554 25.7112 24.5202 25.68C28.4729 25.5666 32.4288 25.7045 36.3641 26.0928L36.6103 26.1147L36.4825 26.3274C34.4447 29.7073 32.5775 33.1878 30.8879 36.7558C30.4723 37.6379 30.0567 38.5095 29.6411 39.3708L29.2235 40.2372C28.7435 41.2287 28.2884 42.2015 27.824 43.168L27.6713 43.4777ZM22.0611 26.096C22.1857 26.7904 22.3229 27.4159 22.4756 28.0009C22.6003 28.4763 22.7187 28.958 22.8403 29.4459L22.912 29.7587C23.2673 31.2101 23.6693 32.8522 24.2117 34.4506C24.6387 35.7017 25.1935 36.9279 25.7701 38.2322L25.8979 38.5168C26.2095 39.1893 26.5212 39.8837 26.8017 40.5906C27.0386 41.1599 27.2724 41.7354 27.503 42.3172L27.6682 42.7239C28.0734 41.8647 28.489 40.9941 28.9149 40.1121L29.3326 39.2456C29.7502 38.3823 30.1679 37.5159 30.5793 36.6339C32.1595 33.2714 33.9517 29.9183 36.0555 26.3931C32.2254 26.0211 28.3761 25.8874 24.5296 25.9928C23.6382 26.0209 22.834 26.0584 22.0766 26.1085L22.0611 26.096ZM80.7443 42.9866C80.4589 42.9866 80.1745 42.9541 79.8965 42.8896C79.1559 42.7219 78.4814 42.3379 77.9579 41.7861C77.4344 41.2343 77.0853 40.5393 76.9547 39.7888C76.824 39.0382 76.9176 38.2657 77.2237 37.5684C77.5298 36.8712 78.0347 36.2805 78.6747 35.8706C79.289 35.4799 80.0011 35.2719 80.7284 35.2709C81.4556 35.2699 82.1683 35.4758 82.7837 35.8648C83.3991 36.2538 83.8919 36.81 84.2051 37.4687C84.5182 38.1275 84.6389 38.8618 84.553 39.5866C84.4831 40.1411 84.2961 40.6743 84.0044 41.1505C83.7007 41.6471 83.2868 42.0667 82.7951 42.3767C82.1888 42.7724 81.483 42.9872 80.7598 42.996L80.7443 42.9866ZM78.843 36.1365C78.6226 36.2755 78.4187 36.4392 78.2352 36.6245C77.8724 36.9865 77.5935 37.4244 77.4186 37.9069C77.1292 38.6959 77.1285 39.5625 77.4166 40.352C77.7047 41.1415 78.2629 41.8026 78.9916 42.2175C79.7203 42.6323 80.5722 42.7739 81.3953 42.6169C82.2184 42.46 82.9591 42.0147 83.4854 41.3605C84.0118 40.7064 84.2894 39.8858 84.2689 39.0453C84.2483 38.2048 83.9309 37.3989 83.3733 36.7714C82.8157 36.1439 82.0541 35.7356 81.2243 35.6193C80.3945 35.503 79.5506 35.6863 78.843 36.1365ZM66.6158 42.0701L66.3664 41.5572C65.5872 39.9525 64.6958 38.3448 63.8325 36.7902C63.6174 36.4055 63.4055 36.0208 63.1935 35.6329C62.8476 35.0073 62.5265 34.3818 62.2117 33.7906L61.9967 33.3746C61.4325 32.2892 60.8497 31.1663 60.2139 30.1059L60.0206 29.7931L60.3884 29.887C61.6694 30.1998 62.8164 30.5532 63.8979 30.9223C65.7567 31.5814 67.5581 32.3932 69.2838 33.3496L69.3929 33.4059L69.3617 33.5279C68.8349 35.5266 68.2552 37.4471 67.5913 39.3958C67.3358 40.1496 67.049 40.941 66.7436 41.7448L66.6158 42.0701ZM60.6752 30.2717C61.2393 31.2414 61.7629 32.2517 62.2741 33.2307L62.4891 33.6467C62.8008 34.2441 63.1125 34.8603 63.4522 35.4578C63.6766 35.8675 63.8917 36.2522 64.1068 36.637C64.9452 38.1509 65.8148 39.7148 66.5815 41.285C66.8371 40.5969 67.076 39.9286 67.2984 39.28C67.9467 37.3783 68.5108 35.5047 69.0282 33.5529C67.3511 32.6299 65.602 31.8453 63.7982 31.207C62.8289 30.8754 61.8034 30.5657 60.6752 30.2717ZM69.7139 32.1297L69.5362 32.0358C67.8564 31.1254 66.1077 30.3494 64.3062 29.7149C62.5907 29.1397 60.8472 28.6522 59.0825 28.2542H59.0232L58.989 28.201C58.3999 27.3315 57.7983 26.4932 57.1189 25.5642C56.8072 25.1169 56.4768 24.6697 56.1651 24.2286L56.0966 24.1317C55.1428 22.7742 54.0925 21.5136 53.1637 20.4032L52.9018 20.0904C52.559 19.6775 52.2193 19.2709 51.892 18.858C51.4775 18.3451 51.0754 17.8352 50.6796 17.3254L50.6297 17.2597C49.6167 15.971 48.663 14.7574 47.6095 13.6313C47.5067 13.5187 47.4038 13.4124 47.2978 13.3185L47.1981 13.2153L47.2916 13.109C50.4458 9.39929 52.9018 6.99081 55.227 5.28923C59.9115 1.8767 64.113 0.785069 67.074 2.18949C70.0349 3.59392 71.8582 7.54132 72.2229 13.3217C72.4349 16.6935 72.0297 20.8787 70.9513 26.4963C70.5835 28.395 70.1845 30.2279 69.7606 31.942L69.7139 32.1297ZM59.2196 27.9633C61.2549 28.4419 62.9068 28.9017 64.4153 29.4209C66.1666 30.0379 67.8682 30.7887 69.5051 31.6668C69.9102 30.0121 70.2936 28.2511 70.6427 26.4307C71.718 20.8411 72.1201 16.681 71.9112 13.3373C71.5528 7.67582 69.7887 3.816 66.9399 2.46787C64.0912 1.11975 59.9988 2.20513 55.4078 5.52695C53.1169 7.18161 50.7107 9.54317 47.6157 13.1715C47.6874 13.2466 47.7622 13.3217 47.8308 13.3999C48.8905 14.529 49.8505 15.752 50.8666 17.0501L50.9196 17.1158C51.3144 17.6225 51.7175 18.1313 52.1289 18.6422C52.4561 19.0551 52.7928 19.4617 53.1356 19.8715L53.3974 20.1843C54.3325 21.304 55.3828 22.5677 56.3428 23.9377L56.4114 24.0347C56.723 24.4757 57.0347 24.9199 57.3651 25.3672C58.0383 26.2743 58.6305 27.1063 59.2196 27.9633ZM57.2062 27.8382L56.8165 27.7538C56.1475 27.6099 55.4701 27.4681 54.7844 27.3284H54.7252C53.6281 27.0969 52.3876 26.8373 51.1876 26.5683C47.9991 25.8332 44.8356 25.5799 41.7811 25.3359C40.7245 25.2514 39.8424 25.1764 38.976 25.0919L38.7266 25.07L38.8575 24.8542C41.0017 21.307 43.3799 17.9077 45.9763 14.6792L46.4064 14.1631L46.5249 14.2851C46.5903 14.3476 46.6589 14.4164 46.7212 14.4852C47.7311 15.5581 48.6692 16.7561 49.6635 18.0229L49.7134 18.0917C50.1123 18.6015 50.5206 19.1208 50.9351 19.6369C51.2572 20.0372 51.5866 20.4387 51.9232 20.8411L52.2348 21.204C53.145 22.2987 54.1797 23.5374 55.1054 24.8511C55.442 25.3296 55.788 25.8113 56.134 26.293C56.4228 26.6934 56.7116 27.099 57.0004 27.5098L57.2062 27.8382ZM54.7875 27.0093H54.8467L56.4924 27.3534C56.2805 27.0406 56.0685 26.7591 55.869 26.4682C55.5231 25.9834 55.174 25.4986 54.8405 25.0231C53.921 23.7188 52.8925 22.4833 51.9824 21.3948L51.6707 21.0319C51.3341 20.6284 51.0006 20.2249 50.6796 19.8246C50.265 19.3085 49.8567 18.7861 49.4578 18.2762L49.4048 18.2074C48.4168 16.9563 47.4817 15.7552 46.4812 14.6886L46.4127 14.6166L46.2038 14.87C43.667 18.0195 41.3419 21.3351 39.244 24.7948C40.0388 24.8698 40.8492 24.9387 41.806 25.0137C44.8698 25.2608 48.0396 25.5173 51.2531 26.2367C52.453 26.5057 53.6935 26.7653 54.7875 26.9968V27.0093ZM37.3334 24.9293H37.2337C33.0023 24.4792 28.7456 24.3141 24.4922 24.4351C23.5571 24.4632 22.5909 24.507 21.6683 24.5696H21.525L21.5063 24.4163C21.4564 24.0472 21.4065 23.6844 21.3567 23.3184C21.2787 22.7147 21.1946 22.1204 21.1073 21.5418L20.9359 20.4845C20.805 19.6588 20.6959 18.9675 20.6024 18.27L20.5712 18.1417L20.7146 18.1136C21.3297 17.9853 21.9154 17.7423 22.4413 17.3973C23.2781 16.8668 23.943 16.1034 24.3549 15.2002C24.7667 14.2969 24.9077 13.2929 24.7607 12.3106C24.6136 11.3284 24.1849 10.4103 23.5267 9.66834C22.8686 8.92643 22.0095 8.39278 21.0543 8.13249L20.8829 8.09183L20.9421 7.92918C21.6191 6.07457 22.9317 4.52228 24.6449 3.55013C26.2843 2.63678 28.3851 2.48351 30.7632 3.10284C32.1782 3.47818 33.6151 4.42281 35.1267 5.42061L35.5132 5.67084C35.8062 5.86164 36.1023 6.05557 36.4077 6.2495C36.7786 6.48096 37.1589 6.71555 37.5485 6.95015C39.0609 7.82188 40.4967 8.8212 41.8403 9.93728L41.9245 10.0124C42.9966 10.9507 44.2122 12.0079 45.3872 13.1402L45.4901 13.2403L45.3997 13.3529L45.0101 13.8221L44.982 13.8565C42.5634 16.7905 40.1416 20.275 37.3583 24.8229L37.3334 24.9293ZM27.2038 24.0628C30.5353 24.0646 33.8644 24.2411 37.1776 24.5915C39.9453 20.0717 42.3608 16.5997 44.7732 13.672L44.8013 13.6376L45.0974 13.281C43.9473 12.1987 42.7722 11.1603 41.7343 10.2532L41.6502 10.1813C40.3224 9.07401 38.9009 8.08498 37.402 7.2254C37.0124 6.98768 36.629 6.75309 36.2581 6.5185C35.9464 6.32457 35.6347 6.13064 35.3574 5.93984L34.974 5.68648C33.4156 4.66053 32.0567 3.77533 30.6915 3.4125C28.4069 2.81507 26.3716 2.95895 24.8039 3.82851C23.2029 4.73691 21.965 6.17379 21.3006 7.89477C22.4405 8.24584 23.4331 8.96479 24.1242 9.93999C24.8153 10.9152 25.1662 12.0921 25.1225 13.288C25.0788 14.4838 24.6429 15.6318 23.8825 16.5535C23.1221 17.4753 22.0797 18.1194 20.9172 18.3857C21.0076 19.0332 21.1104 19.6807 21.2289 20.4501L21.4003 21.5074C21.4876 22.0891 21.5707 22.6824 21.6496 23.2871L21.7806 24.2255C22.6595 24.1692 23.5634 24.1285 24.4704 24.1004C25.3773 24.0722 26.2875 24.0628 27.2038 24.0628ZM19.7235 16.9313C19.467 16.9305 19.2112 16.9043 18.9598 16.8531C18.4496 16.7545 17.965 16.5517 17.5361 16.2574C17.1072 15.9631 16.7431 15.5835 16.4664 15.1421C15.9222 14.2787 15.7415 13.2338 15.9642 12.2369C16.1868 11.2399 16.7945 10.3724 17.6539 9.82468C18.0857 9.54724 18.5693 9.36099 19.0752 9.2773C19.6224 9.18636 20.1827 9.21517 20.7177 9.36175C21.4374 9.55648 22.0851 9.95722 22.5817 10.5151C23.0783 11.0729 23.4024 11.7637 23.5144 12.5033C23.6264 13.2428 23.5215 13.9991 23.2126 14.6799C22.9036 15.3606 22.4038 15.9364 21.7743 16.337C21.1581 16.7289 20.4437 16.9371 19.7141 16.9375L19.7235 16.9313ZM16.7376 14.9763C16.9924 15.3792 17.3265 15.7257 17.7193 15.9946C18.1121 16.2635 18.5554 16.4492 19.0222 16.5403C19.9161 16.7251 20.8466 16.5523 21.6154 16.0586C22.1938 15.6906 22.653 15.1617 22.937 14.5363C23.2211 13.9109 23.3176 13.2161 23.2148 12.5366C23.112 11.8571 22.8144 11.2223 22.3583 10.7096C21.9022 10.197 21.3072 9.82863 20.646 9.64952C20.1534 9.51535 19.6378 9.48974 19.1344 9.57445C18.6707 9.65051 18.2274 9.82081 17.8316 10.0749C17.0402 10.579 16.4806 11.3776 16.2755 12.2954C16.0703 13.2132 16.2365 14.1751 16.7376 14.9701V14.9763Z" fill="#C3D4ED"/>
<path d="M79.563 31.9827C78.8617 32.2955 79.5069 32.7177 79.9744 32.7083C80.261 32.6852 80.5455 32.6402 80.8253 32.5738C81.5697 32.4648 82.3297 32.5581 83.026 32.8442C83.7222 33.1303 84.3292 33.5986 84.7836 34.2003C84.9457 34.4162 85.2262 34.9041 85.5784 34.7415C85.8714 34.6101 85.7156 34.2285 85.6127 34.0127C85.3259 33.4756 84.9195 33.0121 84.4252 32.6583C83.2408 31.7668 81.645 31.6542 80.177 31.8325C79.9666 31.855 79.7601 31.9055 79.563 31.9827Z" fill="#C3D4ED"/>
<path d="M85.435 34.9323C85.1234 34.9323 84.8647 34.5851 84.7213 34.3818L84.659 34.2942C84.2211 33.7159 83.637 33.2659 82.9672 32.9908C82.2974 32.7158 81.5664 32.6258 80.8502 32.7302C80.7692 32.7302 80.6913 32.7584 80.6102 32.7772C80.4055 32.8252 80.1969 32.8545 79.9869 32.8647H79.9713C79.6129 32.8647 79.1796 32.6677 79.1142 32.3768C79.0892 32.2548 79.1142 32.0265 79.5069 31.8419C79.7173 31.7534 79.9403 31.6985 80.1676 31.6793C82.0066 31.4509 83.4715 31.7387 84.5312 32.5332C85.048 32.9037 85.4743 33.3871 85.7779 33.947C85.9036 34.155 85.9459 34.4032 85.8963 34.6414C85.8761 34.6955 85.8453 34.7449 85.8057 34.7868C85.766 34.8287 85.7185 34.8622 85.6657 34.8854C85.5934 34.9186 85.5145 34.9346 85.435 34.9323ZM81.4455 32.3674C82.1153 32.3735 82.7749 32.5321 83.3747 32.8311C83.9746 33.1302 84.4989 33.562 84.9083 34.094C84.927 34.1222 84.9519 34.1534 84.9738 34.1878C85.1577 34.4443 85.3353 34.6695 85.5161 34.5882C85.5309 34.5824 85.5444 34.5735 85.5557 34.5622C85.5669 34.5509 85.5757 34.5374 85.5815 34.5225C85.5979 34.3633 85.5594 34.2032 85.4725 34.069C85.1982 33.553 84.8075 33.1085 84.3317 32.7709C83.3437 32.0265 81.9536 31.7606 80.1957 31.9764C80.0008 31.9932 79.8095 32.0396 79.6284 32.114C79.4664 32.186 79.4009 32.2579 79.4103 32.2955C79.4774 32.3783 79.5635 32.4437 79.6611 32.4861C79.7588 32.5286 79.8651 32.5469 79.9713 32.5394C80.1656 32.5302 80.3586 32.5029 80.5479 32.4581L80.7972 32.4081C81.0118 32.3758 81.2287 32.3622 81.4455 32.3674Z" fill="#C3D4ED"/>
<path d="M81.7011 30.7315C81.6637 30.9473 81.9006 31.1256 82.2653 31.11C82.4772 31.11 82.6829 31.0443 82.8886 31.0224C83.1772 30.9984 83.4675 31.0406 83.7375 31.1457C84.0074 31.2508 84.2501 31.4162 84.447 31.6292C84.5476 31.7619 84.6661 31.8798 84.7992 31.9795C85.1764 32.2141 85.4756 31.8388 85.3384 31.4634C85.2708 31.3008 85.1637 31.1578 85.0267 31.0474C84.6979 30.7528 84.3128 30.5283 83.895 30.3874C83.4771 30.2466 83.035 30.1923 82.5956 30.2279C82.3928 30.2387 82.1949 30.2942 82.0159 30.3906C81.9418 30.4209 81.8753 30.4672 81.8209 30.5261C81.7665 30.585 81.7256 30.6551 81.7011 30.7315Z" fill="#C3D4ED"/>
<path d="M85.0486 32.2173C84.938 32.2153 84.8302 32.1828 84.7369 32.1234C84.6179 32.0442 84.5126 31.9459 84.4252 31.8325C84.4003 31.8013 84.3722 31.7731 84.3473 31.745C84.1662 31.5467 83.9423 31.3925 83.6927 31.2944C83.4431 31.1963 83.1745 31.1567 82.9073 31.1788C82.8195 31.1867 82.7321 31.1992 82.6455 31.2163C82.5267 31.2462 82.4059 31.2672 82.284 31.2789C82.1708 31.2919 82.0563 31.2796 81.9485 31.2428C81.8407 31.206 81.7424 31.1457 81.6606 31.0662C81.6186 31.0198 81.5878 30.9644 81.5705 30.9042C81.5532 30.844 81.5499 30.7807 81.5609 30.719C81.5861 30.6212 81.6328 30.5303 81.6975 30.4529C81.7622 30.3756 81.8433 30.3136 81.9349 30.2717C82.1356 30.165 82.3565 30.1021 82.5832 30.0872C83.0485 30.0468 83.5172 30.1022 83.9605 30.2501C84.4037 30.3981 84.8122 30.6353 85.1608 30.9473C85.3167 31.0751 85.4387 31.2395 85.5161 31.4259C85.5628 31.5434 85.5729 31.6724 85.5451 31.7958C85.5173 31.9192 85.4528 32.0313 85.3602 32.1172C85.2718 32.1871 85.1611 32.2227 85.0486 32.2173ZM83.0663 30.866C83.3507 30.8677 83.6317 30.9277 83.8922 31.0422C84.1527 31.1568 84.3871 31.3235 84.581 31.5323L84.6652 31.6292C84.7302 31.7176 84.8092 31.7947 84.899 31.8576C84.9354 31.8836 84.979 31.8975 85.0236 31.8975C85.0683 31.8975 85.1119 31.8836 85.1483 31.8576C85.1917 31.813 85.2208 31.7564 85.2319 31.6951C85.243 31.6338 85.2356 31.5705 85.2106 31.5135C85.149 31.3761 85.0561 31.255 84.9395 31.16C84.622 30.8774 84.2504 30.6628 83.8473 30.5294C83.4443 30.3961 83.0184 30.3467 82.5956 30.3843C82.415 30.393 82.2385 30.4411 82.0782 30.5251C81.8912 30.6345 81.8569 30.7253 81.8507 30.7597C81.8486 30.775 81.85 30.7905 81.8549 30.8052C81.8597 30.8198 81.8679 30.8332 81.8788 30.8441C81.9307 30.8875 81.991 30.9196 82.0559 30.9385C82.1208 30.9573 82.1889 30.9625 82.2559 30.9536C82.3688 30.9448 82.4811 30.9301 82.5925 30.9098C82.6873 30.8904 82.783 30.8758 82.8793 30.866C82.9414 30.8596 83.0038 30.8564 83.0663 30.8566V30.866Z" fill="#C3D4ED"/>
<path d="M11.8442 11.6138C11.7879 12.6624 11.9791 13.7094 12.4021 14.6698C12.5468 15.1282 12.7625 15.561 13.041 15.9522C13.3527 16.3244 13.7735 16.093 13.733 15.58C13.6721 15.2728 13.5397 14.9845 13.3465 14.7386C12.8905 13.9851 12.6473 13.1213 12.6429 12.2398C12.6385 11.3582 12.8731 10.492 13.3215 9.73397C13.5522 9.35237 14.1537 8.74868 14.135 8.27637C14.0976 7.45374 13.3589 8.26073 13.1657 8.52348C12.4925 9.44933 11.9315 10.4659 11.8442 11.6138Z" fill="#C3D4ED"/>
<path d="M13.3745 16.3025C13.2865 16.2984 13.2004 16.2749 13.1224 16.2339C13.0443 16.1928 12.9761 16.1351 12.9226 16.0648C12.6778 15.7493 12.4891 15.3938 12.3647 15.0139C12.3304 14.9169 12.293 14.8231 12.2525 14.7292C11.8172 13.747 11.6227 12.6745 11.6852 11.6013C11.7631 10.591 12.1964 9.59009 13.041 8.45153C13.1003 8.37021 13.627 7.67269 14.0197 7.7978C14.188 7.84785 14.2784 8.01363 14.2909 8.29201C14.2909 8.68925 13.9792 9.11152 13.7049 9.48374C13.6052 9.61511 13.5148 9.7371 13.4525 9.83719C13.0225 10.5697 12.7979 11.4052 12.8023 12.2554C12.8067 13.1055 13.0399 13.9386 13.4774 14.6667L13.546 14.7761C13.7251 15.0101 13.8429 15.2854 13.8888 15.5769C13.9118 15.7122 13.892 15.8513 13.8322 15.9747C13.7724 16.0981 13.6756 16.1997 13.5553 16.265C13.4982 16.2897 13.4367 16.3025 13.3745 16.3025ZM11.9938 11.6263C11.9381 12.6506 12.1261 13.6735 12.5423 14.6104C12.5797 14.7042 12.6171 14.8012 12.6577 14.8981C12.7688 15.2451 12.9374 15.5708 13.1564 15.8615C13.2499 15.9679 13.3527 16.0117 13.4338 15.9772C13.5148 15.9428 13.5958 15.8115 13.5771 15.605C13.5335 15.3637 13.4331 15.1364 13.2841 14.9419L13.2125 14.8324C12.745 14.0549 12.4959 13.165 12.4915 12.2569C12.4871 11.3489 12.7276 10.4566 13.1875 9.67454C13.2698 9.54349 13.3593 9.41714 13.4556 9.29606C13.6956 8.98328 13.9917 8.58916 13.9792 8.30452C13.9792 8.12936 13.9293 8.09495 13.9293 8.09495C13.8452 8.06993 13.521 8.32642 13.306 8.63608C12.4987 9.72771 12.0842 10.6786 12.0094 11.6263H11.9938Z" fill="#C3D4ED"/>
<path d="M10.4946 9.47748C10.3092 9.62346 10.1536 9.80402 10.0364 10.0092C9.6327 11.0097 9.61713 12.1257 9.9928 13.1371C10.1268 13.5093 10.3886 14.2506 10.8188 14.3664C11.5574 14.5634 11.1709 13.6532 10.9871 13.3623C10.7443 12.9685 10.5905 12.5261 10.5366 12.0661C10.4828 11.6062 10.5302 11.14 10.6754 10.7005C10.7751 10.4065 11.118 9.95292 11.1024 9.64326C11.0681 9.15844 10.772 9.25227 10.4946 9.47748Z" fill="#C3D4ED"/>
<path d="M11.0026 14.5384C10.9266 14.5377 10.851 14.5261 10.7782 14.504C10.2795 14.3695 10.0053 13.6094 9.84319 13.2028C9.45261 12.1547 9.46594 10.998 9.88059 9.95918C10.0069 9.72603 10.1786 9.52073 10.3855 9.35549C10.6286 9.15531 10.8375 9.08962 11.0089 9.16469C11.0873 9.21118 11.1509 9.2791 11.1923 9.36052C11.2337 9.44194 11.2512 9.53349 11.2426 9.62449C11.2181 9.89832 11.126 10.1617 10.9746 10.3908C10.9103 10.5019 10.8551 10.618 10.8094 10.738C10.6725 11.1568 10.6295 11.6008 10.6833 12.0382C10.7372 12.4757 10.8867 12.8957 11.1211 13.2685C11.1211 13.2685 11.5948 14.0348 11.333 14.3883C11.295 14.4391 11.2447 14.4796 11.187 14.5058C11.1293 14.5321 11.0658 14.5433 11.0026 14.5384ZM10.5975 9.59947C10.4314 9.73273 10.2919 9.89614 10.186 10.0812C9.80236 11.038 9.78681 12.1038 10.1424 13.0714C10.2702 13.4249 10.5195 14.1099 10.8624 14.2037C10.9902 14.2381 11.065 14.2288 11.0837 14.2037C11.1585 14.1036 11.0213 13.6876 10.8593 13.4343C10.6003 13.0217 10.4355 12.5568 10.3767 12.0728C10.318 11.5887 10.3668 11.0977 10.5195 10.6348C10.5708 10.499 10.6323 10.3672 10.7034 10.2407C10.8251 10.0594 10.905 9.85317 10.9372 9.637C10.9372 9.49625 10.8967 9.45246 10.8873 9.4462C10.878 9.43995 10.7782 9.4462 10.5943 9.59634L10.5975 9.59947Z" fill="#C3D4ED"/>
<path d="M45.088 88.6882C44.6548 88.8697 44.153 89.4139 43.8849 89.6266C42.6484 90.5474 41.117 90.9783 39.5837 90.8371C39.2471 90.8058 38.2248 90.59 38.4336 91.2844C38.5739 91.7505 39.4497 91.7254 39.8175 91.716C40.4403 91.6912 41.0592 91.6063 41.6658 91.4627C42.9944 91.1552 44.2215 90.5088 45.2283 89.586C45.4807 89.3576 46.129 88.7883 45.4371 88.6476C45.3193 88.6258 45.1977 88.6399 45.088 88.6882Z" fill="#C3D4ED"/>
<path d="M39.6087 91.8756C39.1287 91.8756 38.4368 91.8193 38.2871 91.3313C38.2536 91.2489 38.2419 91.1591 38.2534 91.0708C38.2649 90.9825 38.2991 90.8988 38.3526 90.8277C38.5832 90.5556 39.1162 90.6213 39.4684 90.6651L39.6024 90.6838C41.0967 90.8155 42.5871 90.3926 43.7914 89.4952C43.9003 89.4149 44.0044 89.3282 44.1031 89.2356C44.3775 88.9583 44.6929 88.7252 45.0381 88.5444C45.177 88.4786 45.3331 88.4589 45.4838 88.4881C45.7207 88.5412 45.861 88.6476 45.9015 88.8008C45.9794 89.1136 45.6615 89.4264 45.3561 89.6923C44.3257 90.6365 43.0695 91.2971 41.7094 91.6097C41.0957 91.7555 40.4695 91.8414 39.8393 91.8662L39.6087 91.8756ZM38.9573 90.9372C38.8291 90.9199 38.6991 90.9511 38.5926 91.0248C38.5583 91.0654 38.5552 91.1374 38.5926 91.2375C38.6986 91.5816 39.5027 91.5659 39.8081 91.5503C40.4257 91.5264 41.0394 91.4426 41.6408 91.3C42.9435 90.9999 44.1469 90.3675 45.1348 89.464C45.5493 89.0917 45.6148 88.9416 45.5992 88.8759C45.5836 88.8102 45.54 88.8102 45.4122 88.7821C45.3238 88.7701 45.2339 88.7842 45.1535 88.8227C44.842 88.9887 44.5564 89.1994 44.3057 89.4483C44.2067 89.5465 44.1027 89.6395 43.994 89.7267C42.7287 90.672 41.1612 91.1173 39.59 90.9779L39.4435 90.9622C39.2831 90.9439 39.1217 90.9366 38.9604 90.9403L38.9573 90.9372Z" fill="#C3D4ED"/>
<path d="M44.982 91.6191C44.6176 91.746 44.2659 91.9073 43.9317 92.1008C43.2825 92.5052 42.567 92.7912 41.8185 92.9453C41.538 93.0079 41.1577 92.9735 41.1047 93.3269C41.0767 93.4989 41.3323 93.9525 41.5473 93.8149C41.7584 93.8298 41.9704 93.8021 42.1707 93.7335C43.2561 93.4285 44.2795 92.9341 45.194 92.2728C45.3212 92.195 45.4281 92.0877 45.5057 91.96C45.7425 91.4783 45.409 91.4815 44.982 91.6191Z" fill="#C3D4ED"/>
<path d="M41.4538 93.9994C41.3833 93.9977 41.3149 93.9749 41.2575 93.9337C41.16 93.8616 41.0809 93.7673 41.0267 93.6585C40.9725 93.5498 40.9448 93.4297 40.9458 93.3081C41.0081 92.9109 41.3728 92.8577 41.6159 92.8233L41.7811 92.7983C42.5125 92.6455 43.2117 92.3661 43.8475 91.9725C44.1931 91.7729 44.5562 91.6054 44.9322 91.4721C45.1691 91.3939 45.5057 91.3125 45.6615 91.5002C45.8173 91.6879 45.6615 91.9506 45.6272 92.0382C45.5441 92.181 45.4274 92.3012 45.2875 92.3885C44.3595 93.0665 43.319 93.5738 42.2143 93.8868C42.0135 93.954 41.8026 93.9857 41.591 93.9806C41.5469 93.9957 41.5003 94.0021 41.4538 93.9994ZM45.3903 91.691C45.2635 91.6961 45.1383 91.7214 45.0194 91.7661C44.6676 91.8897 44.3284 92.0468 44.0065 92.2353C43.3408 92.649 42.6074 92.9413 41.8403 93.0986L41.6533 93.1299C41.3634 93.1705 41.2699 93.2081 41.2481 93.3519C41.2629 93.4518 41.3062 93.5452 41.3728 93.6209C41.3934 93.6497 41.4214 93.6724 41.4538 93.6866L41.5006 93.6553H41.5598C41.7511 93.6648 41.9424 93.6383 42.1239 93.5771C43.1942 93.2748 44.2022 92.7833 45.1005 92.1258C45.1977 92.0638 45.2805 91.9817 45.3436 91.885C45.3839 91.8256 45.4076 91.7565 45.4122 91.6848L45.3903 91.691Z" fill="#C3D4ED"/>
<path d="M39.5837 45.5171C39.6319 45.556 39.6873 45.5849 39.7467 45.6021C39.8061 45.6193 39.8683 45.6244 39.9297 45.6172C40.2414 45.5953 40.4751 45.3669 40.2663 45.0666C39.7676 44.3472 39.9328 43.2712 40.1385 42.4768C40.3727 41.681 40.7568 40.9378 41.2699 40.2872C41.4008 40.1089 41.7686 39.7868 41.6938 39.5303C41.5349 38.9735 41.0019 39.5115 40.7806 39.7305C40.1249 40.3867 39.6461 41.1995 39.3893 42.0925C39.1325 42.9854 39.1061 43.9292 39.3126 44.8352C39.3367 45.0837 39.4308 45.3202 39.5837 45.5171Z" fill="#C3D4ED"/>
<path d="M39.8954 45.7736C39.7492 45.778 39.6064 45.7291 39.4934 45.6359C39.3193 45.4493 39.2099 45.2112 39.1817 44.9572L39.1599 44.8602C38.9444 43.9198 38.9734 42.9397 39.244 42.0138C39.5122 41.1066 40.0018 40.2809 40.6684 39.6116C40.8647 39.4145 41.2263 39.0486 41.538 39.133C41.6169 39.1552 41.688 39.1993 41.7431 39.2601C41.7982 39.321 41.8351 39.3962 41.8497 39.4771C41.9307 39.7586 41.6876 40.037 41.5099 40.2403C41.4663 40.2904 41.4289 40.3341 41.4008 40.3717C40.8964 41.0067 40.5205 41.7345 40.2944 42.5143C40.0045 43.6466 40.0388 44.4536 40.4003 44.9759C40.4564 45.0438 40.4923 45.1262 40.5039 45.2136C40.5155 45.301 40.5023 45.3899 40.4658 45.4701C40.4144 45.5639 40.3392 45.6423 40.2477 45.6972C40.1562 45.7522 40.0519 45.7818 39.9453 45.7829L39.8954 45.7736ZM41.4538 39.4333C41.3759 39.4333 41.2232 39.5084 40.9021 39.8306C40.2639 40.4677 39.7979 41.2574 39.5481 42.1254C39.2983 42.9934 39.2731 43.9109 39.4747 44.7914L39.4965 44.8915C39.5142 45.0759 39.5833 45.2515 39.6959 45.3982C39.7281 45.4249 39.7657 45.4443 39.806 45.4551C39.8464 45.4659 39.8885 45.4678 39.9297 45.4608C39.9799 45.4619 40.0297 45.4508 40.0747 45.4285C40.1198 45.4062 40.1588 45.3732 40.1884 45.3325C40.198 45.3019 40.1993 45.2692 40.1922 45.2379C40.185 45.2066 40.1698 45.1777 40.1479 45.1542C39.7302 44.5537 39.6804 43.6622 39.9952 42.4361C40.2306 41.6173 40.6246 40.853 41.1546 40.1871C41.1936 40.134 41.2352 40.0828 41.2793 40.0339C41.3946 39.9025 41.591 39.6804 41.5536 39.5647C41.5162 39.449 41.5037 39.4427 41.4756 39.4364L41.4538 39.4333Z" fill="#C3D4ED"/>
<path d="M41.0486 43.1461C40.9551 43.6403 40.9458 44.1783 41.1764 44.4755C41.7562 45.2168 41.7998 44.0907 41.8341 43.7279C41.8652 43.2744 42.1115 42.7895 42.1177 42.3548C42.1177 42.042 41.9182 41.701 41.5878 41.9231C41.4706 42.0127 41.3801 42.1328 41.326 42.2703C41.1991 42.5501 41.106 42.8441 41.0486 43.1461Z" fill="#C3D4ED"/>
<path d="M41.5068 44.879C41.2949 44.879 41.1172 44.6538 41.0549 44.5662C40.7619 44.194 40.8086 43.5684 40.8959 43.1086C40.9564 42.7941 41.0526 42.4877 41.1827 42.1952C41.2497 42.034 41.3571 41.8929 41.4943 41.7855C41.5608 41.7322 41.6412 41.6994 41.7258 41.6911C41.8105 41.6827 41.8957 41.6992 41.9712 41.7386C42.071 41.8075 42.151 41.9016 42.203 42.0115C42.2549 42.1213 42.2771 42.243 42.2673 42.3641C42.2487 42.6184 42.1995 42.8694 42.1208 43.1117C42.056 43.3156 42.0101 43.525 41.9837 43.7373V43.7905C41.9494 44.269 41.8902 44.7883 41.591 44.8821C41.5629 44.8849 41.5346 44.8838 41.5068 44.879ZM41.7873 42.0076C41.7464 42.0106 41.7073 42.0259 41.6751 42.0514C41.5828 42.1272 41.511 42.225 41.4663 42.336C41.3468 42.6045 41.2579 42.8857 41.2014 43.1743C41.0954 43.7248 41.1328 44.1658 41.3011 44.3785C41.4694 44.5912 41.5068 44.5662 41.5068 44.5662C41.5068 44.5662 41.6315 44.4317 41.6782 43.7529V43.7154C41.7027 43.4794 41.7518 43.2467 41.8247 43.021C41.8963 42.8042 41.9413 42.5794 41.9587 42.3516C41.9638 42.2897 41.9543 42.2274 41.931 42.1699C41.9078 42.1123 41.8713 42.061 41.8247 42.0201C41.8136 42.0126 41.8007 42.0083 41.7873 42.0076Z" fill="#C3D4ED"/>
</svg>
