<svg width="86" height="82" viewBox="0 0 86 82" fill="none" xmlns="http://www.w3.org/2000/svg">
<path d="M83.4178 1.11378C80.754 1.9766 78.0912 2.8466 75.4295 3.72378C70.0906 5.47309 64.7419 7.18568 59.484 9.1872C52.4102 11.875 33.5698 17.4164 32.761 18.3812C28.3714 23.6124 24.3566 29.1875 20.0447 34.4279C13.387 42.5021 7.61481 50.7259 1.0124 58.5556C-0.192146 59.9867 0.0151916 61.2315 2.00741 60.7863C3.37984 60.481 11.7799 57.8645 15.4694 56.5744C16.4991 56.2155 18.3561 55.5994 19.3454 55.2846C19.2557 58.3916 22.6897 63.3766 25.706 66.8837C25.6771 66.9275 25.6574 66.973 25.6331 67.0177C25.4022 67.298 25.2031 67.6031 25.0394 67.9272C24.1581 69.7303 24.6301 71.8195 25.4629 73.5341C26.2956 75.2486 27.4764 76.8428 28.6056 78.4255C29.3007 79.4207 29.917 80.8707 31.2392 81.1349C31.4255 81.168 31.615 81.1804 31.8041 81.1719C31.3429 80.3535 30.8324 79.5638 30.2755 78.8072C28.2944 75.9706 26.029 72.8972 25.9297 69.2927C25.9233 68.9884 26.4 68.9445 26.4075 69.256C26.4414 70.2636 26.6339 71.2594 26.9778 72.2068C27.6227 73.8764 28.4795 75.4561 29.5271 76.907C30.4656 78.2904 31.5507 79.6228 32.3149 81.12C32.7957 81.0062 33.2587 80.8267 33.6906 80.5867L33.6384 80.4609C33.1446 79.4009 32.5525 78.3897 31.8698 77.4403C31.2751 76.5888 30.6767 75.732 30.0607 74.8954C29.3886 74.0459 28.7757 73.1512 28.2262 72.2177C27.762 71.3543 27.39 70.379 27.5338 69.3759C27.5787 69.0714 28.0491 69.1546 27.9861 69.4559C27.817 70.6271 28.4548 71.7731 29.0749 72.7177C29.6403 73.5897 30.2936 74.4002 30.8936 75.248C31.5236 76.15 32.1829 77.0316 32.7817 77.9515C33.2894 78.7132 33.7331 79.5155 34.1083 80.3504L34.7677 79.9493C35.0434 79.7765 35.3285 79.617 35.5903 79.4698C34.8652 78.6302 34.1931 77.7417 33.5514 76.8399C32.332 75.1223 31.1355 73.3807 29.9312 71.6564C29.9034 71.6046 29.8955 71.5443 29.9092 71.487C29.9229 71.4297 29.9572 71.3793 30.0055 71.3456C30.0538 71.3118 30.1129 71.297 30.1714 71.3039C30.2299 71.3107 30.2838 71.3389 30.3229 71.3829L32.3913 74.3445C33.393 75.7787 34.368 77.2316 35.4699 78.5879C35.642 78.8003 35.8205 79.0161 36.0024 79.2255C36.3152 79.0485 36.6105 78.8423 36.8844 78.6096C36.9563 78.5593 37.0097 78.4825 37.0723 78.4189C37.3683 78.2199 37.6475 77.9971 37.9073 77.7527C38.0344 77.6282 38.1507 77.4995 38.2632 77.3655C38.0246 77.16 37.7886 76.9527 37.5518 76.7499C36.8678 76.1508 36.1267 75.6233 35.4542 75.0122C34.7128 74.3423 33.9901 73.6198 33.2643 72.9153C31.8616 71.5146 30.3378 70.2407 28.7105 69.1083C28.4537 68.9393 28.7641 68.572 29.0138 68.7421C29.9432 69.3691 30.8333 70.0523 31.6793 70.7879C33.1499 72.0648 34.4734 73.5 35.9325 74.789C36.6101 75.3846 37.3414 75.9151 38.0134 76.5027C38.1933 76.6582 38.3706 76.8154 38.5505 76.9709C38.7126 76.7337 38.8588 76.4861 38.9882 76.2297C39.1766 75.8979 39.3305 75.5476 39.4474 75.1845C38.7516 74.6649 38.0443 74.1573 37.3151 73.6808C36.4264 73.0846 35.5917 72.4118 34.8206 71.67C34.0713 70.9661 33.4139 70.1782 32.6868 69.4548C31.62 68.3985 30.0533 67.4381 28.4963 67.8763C28.2015 67.9594 28.0389 67.5109 28.3363 67.4259C29.2074 67.2017 30.129 67.2873 30.9432 67.6678C32.6984 68.4214 33.8072 70.0658 35.1634 71.3435C36.5196 72.6212 38.0543 73.604 39.5476 74.6751C39.5615 74.3988 39.4963 74.1243 39.3597 73.8839C39.5389 73.3629 39.0552 72.9881 38.6664 72.6302C37.9633 71.9811 37.2523 71.3375 36.499 70.7472C35.7117 69.6937 34.9881 68.5839 33.9266 67.7734C33.0413 67.0811 32.0614 66.519 31.0166 66.1042C29.9532 65.6257 28.7678 65.4861 27.6214 65.7042C27.5211 65.7308 27.4289 65.7635 27.3323 65.7953C25.2878 63.6286 21.1027 57.5965 21.5769 54.6485C22.558 54.0781 23.8379 53.9127 24.6699 53.5375C26.3072 55.8817 28.7001 58.9334 30.1672 61.1986C30.7972 62.1007 31.3979 63.0232 32.0553 63.9021C34.4792 67.0945 34.543 66.8283 38.4654 66.0761C42.526 65.2948 51.6524 62.2027 53.3921 61.2767C58.4793 58.571 64.4156 55.2366 68.6807 51.3196C73.0446 47.3058 75.8076 45.2058 78.9938 39.869C80.9933 36.5168 81.7252 35.4079 80.5159 33.6594C78.5441 30.8361 73.3407 23.7774 71.5362 21.3242C75.9118 15.2952 80.194 9.20066 84.5632 3.16815C85.0063 2.55387 85.6565 2.09981 85.0744 1.3345C84.6904 0.818802 84.0193 0.919325 83.4178 1.11378ZM78.9516 34.5698C79.7043 35.778 77.4261 38.8617 76.519 40.1682C73.3542 44.7182 69.2134 49.3125 60.8717 55.1344C56.4348 58.2637 51.5259 60.663 46.3316 62.2411C43.7338 63.0193 41.076 63.5805 38.3858 63.9187C37.2891 64.0513 35.952 64.4071 34.9031 63.9441C33.9418 63.5268 33.2624 62.679 32.6397 61.8669C30.9347 59.6412 27.9058 55.2759 26.2708 52.9974C28.5225 52.2482 44.3982 47.4115 55.1429 43.407C56.6496 42.8455 68.9003 25.485 70.5041 23.0704C72.5466 25.3138 78.5617 33.9434 78.9516 34.5698ZM81.2798 4.22222C80.9298 4.72004 62.9784 30.3217 54.0683 41.4654C53.8435 41.7451 47.8396 43.6264 46.1196 44.2457C40.2468 46.3203 36.1309 47.6866 29.7981 49.5679C29.2554 49.7332 24.5874 51.5008 23.1049 52.0572C23.9997 51.0681 27.8462 46.5803 28.0535 46.3208C32.6943 40.4786 35.3733 36.8221 39.9876 30.9589C41.2243 29.3866 39.7805 28.4432 38.9817 29.2861C38.2371 30.0872 36.3187 32.4999 35.5481 33.5647C30.8046 40.1397 24.976 46.8865 19.7723 53.0466C18.9087 53.3766 3.86018 58.7678 3.16674 58.7058C3.06702 58.5063 11.9583 47.5854 17.1265 41.0622C21.4993 35.5458 28.9943 25.8892 32.7671 20.7681C33.7231 19.4749 35.0364 19.0169 36.3944 18.5831C50.5254 14.0861 64.2781 9.34255 77.9942 4.35935C78.4519 4.18527 78.9202 4.04066 79.3963 3.92638C80.4186 3.72706 82.4372 2.47957 81.2798 4.22222Z" fill="#BCC4D0"/>
<path d="M36.5347 79.0794C36.3802 79.1874 36.2336 79.2897 36.0892 79.3668L35.9773 79.445L35.8993 79.3332C35.7181 79.1192 35.537 78.9053 35.3649 78.6929C34.437 77.5516 33.5893 76.3265 32.765 75.1406L30.2022 71.4711C30.1687 71.4232 30.1285 71.4394 30.0992 71.4599C30.0699 71.4804 30.051 71.5213 30.077 71.5586C30.4617 72.1094 30.8482 72.6629 31.2348 73.2164C32.0413 74.3712 32.8757 75.566 33.6972 76.7421C34.4108 77.7639 35.0848 78.6154 35.7268 79.3587L35.8561 79.5098L35.5711 79.6693C35.3377 79.8006 35.1044 79.9319 34.8785 80.0739L34.2098 80.5013L34.0605 80.6055L33.9876 80.4387C33.6171 79.6124 33.178 78.8186 32.6751 78.0656C32.2512 77.4075 31.7879 76.7612 31.3315 76.1417C31.1456 75.8756 30.9709 75.6255 30.7907 75.3674C30.5602 75.0374 30.3298 74.7075 30.0762 74.3897C29.7015 73.8873 29.3138 73.3663 28.9797 72.8198C28.3334 71.8262 27.6985 70.6504 27.8741 69.4431C27.8762 69.4324 27.8761 69.4214 27.8739 69.4107C27.8716 69.4 27.8672 69.3899 27.861 69.381C27.8547 69.372 27.8468 69.3644 27.8375 69.3587C27.8283 69.3529 27.8179 69.349 27.8072 69.3473C27.7385 69.3398 27.7432 69.392 27.7325 69.3994C27.6143 70.2064 27.83 71.0772 28.4076 72.1425C28.8648 72.937 29.3777 73.6979 29.9425 74.4197L30.2346 74.8096C30.7922 75.5682 31.3874 76.4035 32.0474 77.3598C32.7218 78.3158 33.3068 79.3319 33.7948 80.3952L33.9058 80.6621L33.7859 80.7458C33.3403 80.9941 32.8622 81.1788 32.3654 81.2945L32.2443 81.3197L32.187 81.2093C31.621 80.1682 30.9786 79.1706 30.265 78.2246C29.9807 77.8175 29.6982 77.413 29.4157 77.0086C28.359 75.5477 27.4964 73.9558 26.8494 72.2727C26.4996 71.3134 26.3046 70.3043 26.2719 69.2833C26.2719 69.2833 26.2699 69.2293 26.2087 69.2325C26.1973 69.2314 26.1858 69.2326 26.1749 69.2363C26.1641 69.2399 26.1541 69.2458 26.1456 69.2536C26.1372 69.2613 26.1305 69.2708 26.126 69.2813C26.1215 69.2918 26.1192 69.3032 26.1194 69.3146C26.2105 72.7428 28.3442 75.7696 30.2237 78.4435L30.508 78.8507C31.0416 79.5774 31.5304 80.336 31.9716 81.1222L32.0918 81.3511L31.8333 81.3613C31.6311 81.3715 31.4284 81.3576 31.2296 81.3198C30.1164 81.0996 29.4861 80.0949 28.9295 79.2128C28.7697 78.984 28.6404 78.7535 28.4973 78.5486L28.0959 77.9739C27.0579 76.6056 26.138 75.1516 25.3459 73.6276C24.61 72.1028 23.9338 69.8632 24.9266 67.8792C25.0934 67.543 25.2984 67.2271 25.5377 66.9378C23.9624 65.0966 19.2906 59.3213 19.2111 55.5408C18.1886 55.859 16.5206 56.4222 15.5481 56.7609C11.7005 58.0744 3.41575 60.6459 2.06569 60.9435C0.905976 61.2072 0.44238 60.8896 0.255799 60.5884C-0.0627292 60.0983 0.185582 59.3073 0.895987 58.4627C4.36002 54.3411 7.68095 50.0146 10.8691 45.8442C13.7742 42.0575 16.7716 38.1588 19.9208 34.3244C21.9623 31.8495 23.9722 29.2502 25.9174 26.7396C28.0826 23.9368 30.3371 21.0519 32.6372 18.2776C33.0943 17.7288 38.0087 16.1096 46.0607 13.5225C51.1298 11.8864 56.3717 10.1969 59.4323 9.04513C64.0242 7.29895 68.7581 5.75047 73.3362 4.25141L75.3722 3.57373C78.0352 2.69832 80.6989 1.82769 83.3633 0.961858C83.9254 0.779095 84.7312 0.616121 85.2336 1.27871C85.7833 2.0033 85.3545 2.52449 84.9739 2.98425C84.8878 3.08796 84.8017 3.19167 84.7238 3.30149C82.5825 6.25778 80.4246 9.28109 78.3385 12.2028C76.193 15.2096 73.973 18.3199 71.7669 21.365L72.7698 22.7272C75.1066 25.8972 79.0169 31.2066 80.6696 33.5956C81.9054 35.3651 81.195 36.5501 79.3126 39.6898L79.1455 39.9728C76.392 44.5839 73.9361 46.8059 70.5402 49.8784C69.9874 50.3753 69.409 50.898 68.8007 51.4574C64.6471 55.2728 58.9845 58.5111 53.482 61.4396C51.6915 62.3892 42.4895 65.4866 38.5088 66.2517L37.8086 66.3844C34.5453 67.0246 34.2796 67.0755 31.9495 64.0117C31.4925 63.4084 31.0574 62.774 30.6486 62.149C30.4516 61.8669 30.2527 61.5822 30.0558 61.3002C29.1718 59.9381 27.9688 58.3119 26.8026 56.7273C26.0188 55.6675 25.2785 54.6643 24.6355 53.7436C24.2795 53.8853 23.9159 54.007 23.5464 54.1084C22.9202 54.2596 22.3132 54.4817 21.7372 54.7702C21.3774 57.5472 25.1714 63.2348 27.3927 65.6264C27.4597 65.6032 27.5279 65.5833 27.5969 65.5669C28.6345 65.3213 29.7735 65.4482 31.0821 65.9595C32.135 66.3802 33.1224 66.9491 34.0141 67.6489C34.8794 68.3854 35.638 69.2386 36.2682 70.1839C36.376 70.3383 36.4856 70.4953 36.5934 70.6496C37.3567 71.2487 38.0771 71.9056 38.7526 72.5265L38.849 72.6135C39.2083 72.9406 39.6566 73.3441 39.5111 73.8851C39.6406 74.137 39.7006 74.4188 39.6851 74.7018L39.6716 75.0002L39.4273 74.8264C39.1134 74.5983 38.7941 74.3739 38.4768 74.1522C37.265 73.3431 36.1115 72.4502 35.0248 71.4799C34.6267 71.1087 34.2468 70.701 33.8771 70.3021C32.9845 69.3419 32.0699 68.3615 30.8511 67.8311C30.0692 67.4648 29.1836 67.3832 28.3472 67.6004C28.3312 67.6116 28.296 67.6123 28.3117 67.6687C28.314 67.6803 28.3186 67.6914 28.3253 67.7011C28.332 67.7109 28.3406 67.7192 28.3506 67.7255C28.3606 67.7318 28.3717 67.7361 28.3834 67.738C28.3951 67.7399 28.407 67.7394 28.4185 67.7366C30.3276 67.1951 32.0975 68.6906 32.7676 69.3548C33.0861 69.6747 33.3977 70.0074 33.6992 70.3312C34.0847 70.7469 34.4794 71.1759 34.8995 71.5674C35.6635 72.3039 36.4915 72.9709 37.3738 73.5606C38.0089 73.9762 38.6886 74.4555 39.5144 75.0704L39.6006 75.1369L39.5722 75.2439C39.4567 75.6109 39.3067 75.9662 39.1241 76.305C38.9944 76.5644 38.8498 76.816 38.6911 77.0587L38.5871 77.2106L38.4476 77.0903C38.2979 76.9612 38.151 76.8302 38.0014 76.7012L37.9132 76.6203C37.5799 76.3304 37.2307 76.0518 36.8942 75.78C36.5578 75.5083 36.1729 75.207 35.8267 74.8985C35.1169 74.2739 34.4333 73.6072 33.7698 72.9581C33.0604 72.2659 32.3282 71.558 31.5735 70.8974C30.7354 70.1647 29.8534 69.4838 28.9324 68.8583C28.9196 68.8497 28.9048 68.8446 28.8895 68.8435C28.8741 68.8425 28.8587 68.8454 28.8448 68.8522C28.8298 68.8588 28.8165 68.869 28.8061 68.8817C28.7958 68.8945 28.7885 68.9095 28.7851 68.9256C28.7851 68.9256 28.7851 68.9256 28.8074 68.9575C30.4456 70.0924 31.9779 71.3727 33.3858 72.7829L33.9204 73.3043C34.455 73.8256 35.0098 74.3645 35.572 74.8745C35.9313 75.2015 36.3217 75.5108 36.6975 75.8105C37.0202 76.0682 37.351 76.3319 37.6571 76.617C37.8913 76.8216 38.1272 77.0289 38.364 77.2317L38.4879 77.3353L38.3841 77.4592C38.2697 77.5994 38.147 77.7327 38.0167 77.8583C37.7509 78.109 37.4652 78.3377 37.1623 78.5421L37.1183 78.5926C37.0782 78.638 37.0355 78.6811 36.9904 78.7216C36.8454 78.8494 36.6932 78.9689 36.5347 79.0794ZM36.0451 79.0255C36.3038 78.868 36.5488 78.689 36.7773 78.4903C36.8226 78.4587 36.8515 78.4148 36.8885 78.3771L36.9626 78.3016C37.2562 78.1009 37.5338 77.8779 37.793 77.6345C37.869 77.5617 37.9492 77.4779 38.0204 77.3925C37.8222 77.2222 37.6266 77.05 37.4329 76.8805C37.1198 76.6082 36.7935 76.3452 36.4825 76.0873C36.1004 75.7842 35.7081 75.4722 35.3387 75.1364C34.7746 74.6238 34.21 74.0878 33.6797 73.5555L33.147 73.0368C31.752 71.641 30.2347 70.3728 28.6134 69.2474C28.5593 69.2134 28.5153 69.1654 28.486 69.1085C28.4567 69.0517 28.4433 68.988 28.4471 68.9241C28.455 68.8515 28.4814 68.7821 28.5239 68.7226C28.5664 68.6632 28.6234 68.6156 28.6896 68.5845C28.7543 68.5508 28.8269 68.5352 28.8996 68.5394C28.9724 68.5437 29.0427 68.5676 29.1029 68.6086C30.0349 69.2399 30.9265 69.9288 31.7724 70.6714C32.5324 71.3283 33.2732 72.054 33.9852 72.7443C34.6468 73.3908 35.3286 74.0548 36.032 74.676C36.3726 74.9764 36.7338 75.2665 37.0876 75.546C37.4413 75.8255 37.7796 76.0999 38.124 76.4057L38.2149 76.4847C38.3132 76.5744 38.4161 76.6649 38.5197 76.7509C38.6331 76.5727 38.7444 76.3802 38.8475 76.1815C39.0045 75.8925 39.1392 75.592 39.2503 75.2826C38.4561 74.7129 37.8227 74.2487 37.2169 73.8524C36.3192 73.2529 35.4768 72.5747 34.6995 71.8259C34.272 71.4237 33.8708 70.9913 33.4835 70.5729C33.1839 70.2517 32.8768 69.9199 32.5593 69.6072C31.9315 68.9807 30.2761 67.5754 28.5273 68.0684C28.4749 68.0829 28.4201 68.0869 28.3662 68.08C28.3122 68.0731 28.2602 68.0555 28.2131 68.0283C28.1661 68.0011 28.1249 67.9648 28.0921 67.9215C28.0593 67.8782 28.0354 67.8287 28.0219 67.7761C28.0063 67.7283 28.0008 67.6779 28.0055 67.6279C28.0102 67.5779 28.0252 67.5293 28.0494 67.4853C28.0737 67.4413 28.1067 67.4027 28.1465 67.3719C28.1862 67.3411 28.2319 67.3188 28.2806 67.3064C29.1888 67.0693 30.1509 67.1562 31.0011 67.5521C32.2808 68.1073 33.2249 69.1186 34.1425 70.1088C34.5067 70.4997 34.8847 70.9047 35.2745 71.2699C36.3493 72.2293 37.4896 73.1128 38.6871 73.9142C38.9112 74.0705 39.1372 74.2294 39.3586 74.3875C39.3328 74.2549 39.2854 74.1276 39.2182 74.0105L39.1754 73.9493L39.2163 73.8376C39.3407 73.4934 39.079 73.2209 38.6629 72.8464L38.5691 72.7576C37.8918 72.134 37.1687 71.479 36.4118 70.8833L36.3876 70.8488C36.2743 70.6864 36.1609 70.5241 36.0334 70.3756C35.4196 69.4566 34.6833 68.6257 33.8447 67.9058C32.9758 67.2249 32.014 66.6716 30.9884 66.2625C29.748 65.7749 28.6712 65.652 27.6991 65.8835C27.6211 65.9024 27.5468 65.9266 27.4725 65.9507L27.3258 66.0017L27.2663 65.9166C25.351 63.8893 20.9638 57.7609 21.4675 54.6339L21.4786 54.5589L21.5425 54.5142C22.1563 54.1942 22.8062 53.949 23.4783 53.7838C23.8782 53.6805 24.2708 53.5504 24.6534 53.3946L24.773 53.3388L24.851 53.4506C25.5107 54.3952 26.2778 55.4311 27.0895 56.5309C28.2621 58.119 29.4737 59.7629 30.352 61.117C30.5471 61.3964 30.7441 61.6785 30.943 61.9632C31.3667 62.5699 31.8034 63.1952 32.2327 63.8099C34.4396 66.7144 34.5653 66.6899 37.7684 66.0601L38.4838 65.9208C42.4448 65.1615 51.5895 62.0843 53.3737 61.1312C58.8655 58.2102 64.5015 54.9905 68.633 51.1945C69.2412 50.6351 69.8196 50.1124 70.3706 49.6128C73.7489 46.5605 76.1918 44.3596 78.9162 39.7806L79.0851 39.5003C80.9368 36.4019 81.561 35.3602 80.4503 33.7527C78.7907 31.3765 74.8929 26.0623 72.556 22.8923L71.4148 21.3377L71.4831 21.2425C73.7023 18.1764 75.9548 15.0276 78.1249 11.9878C80.211 9.06606 82.3662 6.04461 84.5101 3.08646C84.5915 2.97025 84.6811 2.86017 84.7726 2.75273C85.1838 2.25175 85.3991 1.94701 85.0218 1.44647C84.7307 1.06382 84.2662 1.0003 83.5134 1.24496C80.8212 2.12763 78.1423 3.0049 75.4768 3.87676L73.4299 4.55019C68.8545 6.04739 64.1232 7.59399 59.5412 9.33726C56.4782 10.5026 51.2309 12.1958 46.16 13.8293C39.8457 15.8678 33.3158 17.9779 32.883 18.482C30.579 21.2393 28.3364 24.1357 26.1694 26.9358C24.2261 29.449 22.2108 32.0521 20.1693 34.5269C17.0172 38.3515 14.0227 42.26 11.1256 46.0411C7.92492 50.2163 4.62022 54.5434 1.14181 58.6671C0.543941 59.3776 0.287839 60.0553 0.515551 60.4268C0.710618 60.7458 1.22202 60.8083 1.98556 60.6472C3.30476 60.3394 11.7094 57.7238 15.4222 56.4331C16.4672 56.0676 18.309 55.4582 19.3054 55.1423L19.523 55.0735L19.5178 55.2988C19.4085 59.0133 24.3313 65.0289 25.8373 66.7879L25.9042 66.8837L25.845 66.9805L25.806 67.0553L25.7748 67.1127C25.5455 67.3912 25.3475 67.6941 25.1845 68.0158C24.2552 69.8921 24.9021 72.0215 25.6078 73.4804C26.3913 74.988 27.3016 76.4262 28.3289 77.7795L28.7303 78.3543C28.8789 78.5672 29.0313 78.7854 29.1736 79.0344C29.7209 79.9032 30.2859 80.8031 31.2615 80.9966C31.3467 81.0123 31.4327 81.0236 31.5191 81.0305C31.125 80.3358 30.6623 79.6732 30.2099 79.0311L29.9274 78.6267C28.03 75.9099 25.8566 72.8434 25.7644 69.3171C25.7622 69.263 25.771 69.2091 25.7903 69.1584C25.8096 69.1078 25.839 69.0617 25.8767 69.0228C25.9144 68.9838 25.9596 68.953 26.0096 68.932C26.0596 68.9111 26.1133 68.9006 26.1675 68.901C26.2181 68.8974 26.269 68.9043 26.3169 68.9211C26.3648 68.938 26.4087 68.9646 26.4458 68.9991C26.483 69.0337 26.5126 69.0756 26.5329 69.1221C26.5532 69.1686 26.5636 69.2188 26.5637 69.2696C26.5986 70.2556 26.7869 71.23 27.1219 72.1577C27.7613 73.8153 28.6125 75.3831 29.6542 76.8222C29.933 77.2214 30.2117 77.6205 30.4979 78.0303C31.1946 78.9561 31.8255 79.9296 32.386 80.9437C32.7622 80.8444 33.1257 80.7021 33.4693 80.5196C32.9803 79.4756 32.3958 78.479 31.7232 77.5427C31.0598 76.5927 30.4762 75.7572 29.9178 75.0031L29.6258 74.6133C29.0505 73.8802 28.5297 73.106 28.0675 72.2969C27.6812 71.5849 27.1872 70.5087 27.3558 69.3538C27.3633 69.3029 27.3811 69.2541 27.4081 69.2103C27.4351 69.1665 27.4709 69.1288 27.513 69.0993C27.5552 69.0699 27.603 69.0493 27.6534 69.039C27.7038 69.0287 27.7557 69.0288 27.8061 69.0393C27.8595 69.0452 27.9111 69.0619 27.9579 69.0883C28.0047 69.1146 28.0456 69.1502 28.0783 69.1928C28.111 69.2353 28.1348 69.2841 28.1482 69.3361C28.1616 69.3881 28.1644 69.4422 28.1563 69.4954C27.9974 70.596 28.6021 71.7058 29.2131 72.6489C29.5569 73.1808 29.9435 73.6946 30.3003 74.2055C30.5307 74.5354 30.7817 74.855 31.0167 75.1858C31.2025 75.4519 31.3772 75.702 31.5575 75.9601C31.9998 76.5934 32.4729 77.2368 32.9085 77.8946C33.3859 78.6126 33.8085 79.3656 34.1726 80.1472L34.6726 79.8415C34.8804 79.6964 35.1087 79.5805 35.3314 79.4566C34.7197 78.7397 34.0906 77.9241 33.4099 76.9665C32.5885 75.7903 31.754 74.5956 30.9456 73.4381C30.5591 72.8846 30.1725 72.3311 29.7878 71.7803C29.7379 71.6931 29.7225 71.5903 29.7446 71.4922C29.7667 71.3941 29.8246 71.3078 29.9071 71.2501C29.9896 71.1925 30.0907 71.1678 30.1904 71.1809C30.2901 71.1939 30.3813 71.2438 30.446 71.3207L33.005 74.9848C33.8264 76.1609 34.6776 77.3796 35.5901 78.5159C35.749 78.6583 35.8969 78.836 36.0449 79.0138L36.0451 79.0255ZM60.9899 55.2696L60.9633 55.2882C56.5132 58.4295 51.5884 60.8372 46.3768 62.4193C43.7697 63.1963 41.1034 63.7582 38.4049 64.0994C38.2026 64.1219 37.9933 64.1572 37.7777 64.189C36.8229 64.3373 35.7413 64.5028 34.8382 64.1122C33.8704 63.6914 33.1791 62.8718 32.5134 61.9868C31.3291 60.4386 29.5364 57.9059 27.9546 55.6694C27.2763 54.6982 26.6537 53.8067 26.1389 53.1093L26.0125 52.9284L26.221 52.858C26.707 52.6967 27.8197 52.3431 29.3577 51.8549C34.9657 50.0879 46.641 46.4112 55.0742 43.2689C56.4646 42.7452 68.3862 25.9352 70.3611 22.9961L70.4755 22.8251L70.6139 22.9779C72.6931 25.251 78.7337 33.9342 79.0761 34.4868C79.8362 35.7057 77.8983 38.4765 76.8395 39.98L76.6418 40.2645C73.9444 44.1556 69.9679 48.9795 60.986 55.2526L60.9899 55.2696ZM26.5285 53.0826C27.0006 53.7585 27.5804 54.5887 28.2171 55.4663C29.7819 57.7068 31.5889 60.2373 32.7647 61.7677C33.4116 62.6144 34.0663 63.4042 34.9702 63.7903C35.7861 64.1469 36.7742 63.9952 37.7272 63.8442L38.3642 63.7517C41.0447 63.4152 43.6931 62.8579 46.2823 62.0855C51.4606 60.5117 56.3541 58.1191 60.777 54.9987L60.8036 54.9801C69.7456 48.735 73.7036 43.9358 76.3845 40.0721L76.5822 39.7876C77.5149 38.4553 79.4573 35.6854 78.8184 34.6628C78.4872 34.1261 72.7086 25.8182 70.5199 23.3484C68.9725 25.6167 56.7806 42.9877 55.1858 43.5591C46.7464 46.7097 35.0658 50.3901 29.4514 52.1537L26.5285 53.0826ZM54.1426 41.6115C53.8176 41.8385 52.2177 42.3858 48.763 43.5238C47.6686 43.8923 46.7134 44.1991 46.1686 44.3896C39.9257 46.604 35.8058 47.9533 29.834 49.7329C29.3952 49.8652 26.162 51.0821 24.2289 51.8106L22.5283 52.452L22.9739 51.9547C23.9071 50.9071 27.7389 46.4494 27.9163 46.2265C30.4185 43.0776 32.3149 40.605 34.3281 37.9876C35.9991 35.811 37.7271 33.563 39.8504 30.8647C40.463 30.0845 40.3522 29.5285 40.0731 29.2879C40.0013 29.2322 39.9191 29.1913 39.8314 29.1674C39.7437 29.1435 39.6521 29.1372 39.5618 29.1487C39.4716 29.1603 39.3845 29.1895 39.3055 29.2347C39.2265 29.2799 39.1572 29.3402 39.1016 29.4122C38.3569 30.2134 36.4569 32.6013 35.682 33.677C31.3525 39.6699 26.2448 45.6837 21.3089 51.5063L19.8702 53.2039L19.8356 53.2281C19.6854 53.2855 3.93462 58.9652 3.16188 58.9032L3.06981 58.8962L3.01778 58.8217C2.93025 58.6453 2.90665 58.5945 11.0299 48.4753C13.1138 45.8797 15.2698 43.1943 17.001 41.0074C21.6955 35.0604 29.0075 25.6187 32.6296 20.7018C33.5795 19.4168 34.8114 18.9444 36.3297 18.462C49.5529 14.2545 63.1628 9.61871 77.9089 4.24866C78.3743 4.07479 78.8498 3.92913 79.3327 3.8125C79.6505 3.72576 79.9625 3.61893 80.2668 3.49264C80.9837 3.21365 81.5184 3.01438 81.7043 3.28047C81.8551 3.46808 81.7668 3.7673 81.3972 4.32229C81.2724 4.51243 63.3183 30.1556 54.1789 41.5782C54.1682 41.5908 54.156 41.6019 54.1426 41.6115ZM23.6495 51.6848L24.1152 51.506C26.178 50.7304 29.2914 49.5576 29.74 49.4224C35.7017 47.634 39.8378 46.2853 46.0595 44.0858C46.607 43.8934 47.5592 43.5768 48.6618 43.2144C50.6685 42.5572 53.7033 41.5501 53.9506 41.3536C63.0733 29.9466 81.0169 4.32266 81.1538 4.14396C81.5076 3.61183 81.4822 3.47908 81.4785 3.47376C81.3684 3.42397 80.7668 3.65806 80.4057 3.79941C80.0869 3.93205 79.76 4.04404 79.4269 4.13468C78.954 4.24172 78.4885 4.37905 78.0332 4.54584C63.2679 9.90552 49.6621 14.5584 36.4354 18.7722C34.9743 19.2344 33.7879 19.6869 32.8986 20.8939C29.2603 25.8103 21.9549 35.2672 17.2553 41.19C15.5242 43.3769 13.3682 46.0623 11.2816 48.6598C7.84098 52.9512 4.28781 57.3765 3.49149 58.5067C5.70907 57.9358 18.2794 53.4519 19.6724 52.9263L21.0538 51.2886C25.9844 45.4697 31.095 39.4657 35.4111 33.4821C36.1914 32.4027 38.1156 30.0098 38.8571 29.1871C39.0274 28.9809 39.2718 28.8497 39.5377 28.8218C39.8036 28.7938 40.0697 28.8712 40.2788 29.0374C40.667 29.3719 40.8545 30.1001 40.105 31.059C37.9844 33.7554 36.2564 36.0035 34.5835 38.1774C32.5722 40.7975 30.6787 43.2798 28.1709 46.4208C27.9594 46.6913 24.9563 50.1901 23.6495 51.6848Z" fill="#BCC4D0"/>
<path d="M35.9291 76.8104L35.9131 76.8215C35.9178 76.817 35.9232 76.8132 35.9291 76.8104Z" fill="#BCC4D0"/>
<path d="M35.8859 77.1572L35.781 76.8821L35.6796 76.561L35.9863 76.6596L36.1834 76.7317L36.0756 76.9179L35.8859 77.1572Z" fill="#BCC4D0"/>
<path d="M70.8684 25.7772C70.7417 25.662 70.5896 25.5783 70.4244 25.5331C69.9272 25.4171 69.5418 26.0346 69.6907 26.4691C69.8551 26.96 70.2638 27.3238 70.5697 27.7277C70.9154 28.2226 71.2815 28.7072 71.6379 29.1947L73.8204 32.1835C74.0341 32.4895 74.4578 33.0962 74.8729 33.123C75.2881 33.1498 75.4324 32.471 75.338 32.1371C75.2397 31.8593 75.097 31.5993 74.9153 31.3673L71.7347 26.8586C71.4903 26.4647 71.1995 26.1016 70.8684 25.7772Z" fill="#BCC4D0"/>
<path d="M75.1917 33.1933C75.0958 33.2618 74.9795 33.2956 74.862 33.289C74.3902 33.2661 73.9901 32.7103 73.7376 32.3601L70.433 27.8271C70.3494 27.7074 70.2487 27.5916 70.1526 27.4767C69.8878 27.2007 69.6787 26.8763 69.5367 26.5212C69.491 26.3653 69.4867 26.2001 69.5244 26.0419C69.562 25.8838 69.6401 25.7381 69.7512 25.6192C69.8357 25.5172 69.9469 25.4405 70.0723 25.3977C70.1976 25.3548 70.3324 25.3474 70.4616 25.3764C70.6519 25.4255 70.8272 25.5206 70.9721 25.6533C71.2692 25.9353 71.5299 26.2532 71.7482 26.5998L71.8671 26.7701L75.0477 31.2788C75.2407 31.5246 75.3909 31.8011 75.4921 32.0967C75.5348 32.2618 75.542 32.4341 75.5132 32.6023C75.4844 32.7704 75.4203 32.9307 75.3252 33.0724C75.2873 33.1195 75.2422 33.1603 75.1917 33.1933ZM70.0812 25.7569C69.9791 25.8297 69.9017 25.932 69.8594 26.05C69.8171 26.168 69.8119 26.2961 69.8446 26.417C69.9743 26.7333 70.1626 27.0222 70.3996 27.2685C70.4907 27.3989 70.6094 27.5179 70.6957 27.6357L74.0022 32.1713C74.188 32.4374 74.5504 32.9563 74.8759 32.9626C74.9127 32.965 74.9496 32.9578 74.9828 32.9415C75.0159 32.9253 75.0443 32.9007 75.065 32.8701C75.1285 32.7688 75.1711 32.6557 75.1901 32.5377C75.2091 32.4197 75.2043 32.2991 75.1758 32.183C75.0828 31.9232 74.9481 31.6804 74.7768 31.4641L71.5961 26.9554C71.559 26.9022 71.5181 26.8437 71.4735 26.7798C71.2717 26.4577 71.0305 26.162 70.7556 25.8995C70.6498 25.8007 70.5219 25.7285 70.3826 25.6889C70.3304 25.6783 70.2766 25.6789 70.2247 25.6906C70.1727 25.7024 70.1238 25.7249 70.0812 25.7569Z" fill="#BCC4D0"/>
</svg>
