<svg width="14" height="10" viewBox="0 0 14 10" fill="none" xmlns="http://www.w3.org/2000/svg">
<path d="M11.8238 0.31882C12.0657 0.112066 12.3877 -0.0022356 12.7217 3.31386e-05C13.0557 0.00230188 13.3757 0.120964 13.6141 0.33098C13.8525 0.540997 13.9907 0.825941 13.9995 1.12569C14.0084 1.42543 13.8871 1.71653 13.6614 1.93756L6.809 9.63046C6.69117 9.74438 6.54895 9.83581 6.39086 9.89927C6.23277 9.96273 6.06205 9.99692 5.8889 9.9998C5.71575 10.0027 5.54373 9.97418 5.38313 9.91602C5.22253 9.85786 5.07665 9.77122 4.9542 9.66129L0.409958 5.58205C0.283408 5.4762 0.181906 5.34855 0.111507 5.20672C0.0411069 5.06489 0.00325191 4.91178 0.000200455 4.75653C-0.002851 4.60128 0.0289637 4.44707 0.0937458 4.30309C0.158528 4.15912 0.254951 4.02834 0.377262 3.91854C0.499573 3.80875 0.645267 3.72219 0.805652 3.66404C0.966036 3.60588 1.13783 3.57732 1.31077 3.58006C1.48372 3.5828 1.65428 3.61678 1.81228 3.67998C1.97028 3.74318 2.11248 3.83429 2.2304 3.94789L5.82664 7.17459L11.7912 0.352737C11.8019 0.340868 11.8117 0.329544 11.8238 0.31882Z" fill="white"/>
</svg>
