<svg width="77" height="74" viewBox="0 0 77 74" fill="none" xmlns="http://www.w3.org/2000/svg">
<path d="M76.0287 41.8903C73.9702 37.6974 72.1479 33.4055 70.2641 29.1225C67.2471 22.2698 63.8987 15.558 61.3205 8.51325C60.5888 6.51855 59.8637 4.51782 59.3115 2.45992C58.8887 0.88363 58.6121 0.583204 56.9951 0.408548C56.6278 0.374364 56.2585 0.367786 55.8903 0.388863C53.719 0.464816 51.5739 0.883832 49.5345 1.63041C41.2574 4.75809 34.8973 10.0707 30.9708 18.1152C30.5203 19.0357 30.5285 19.0189 29.5159 18.6854C26.354 17.6241 23.0286 17.1403 19.6981 17.257C13.7439 17.4839 8.61281 19.8283 4.2032 23.7737C2.91539 24.8985 1.79047 26.1976 0.860781 27.6335C0.358564 28.4318 0.262945 29.1912 0.694998 30.1069C1.25141 31.2827 1.93679 32.3883 2.5144 33.5353C5.70551 39.8497 8.68384 46.27 11.9274 52.5632C14.0467 56.6737 15.8748 60.9131 17.1944 65.3701C17.5417 66.4225 17.9469 67.455 18.4082 68.4628C18.5507 68.7968 18.7251 69.2391 19.0072 69.369C19.8753 69.7713 20.1075 70.5592 20.4162 71.3252C20.6158 71.8228 20.9547 72.4048 21.4828 72.2233C22.5017 71.8683 22.7561 72.6023 23.2021 73.1506C23.9818 74.1088 24.681 74.1693 25.501 73.3089C29.1826 69.4443 33.8016 67.2432 38.8326 65.7764C41.9403 64.9042 45.1315 64.3616 48.3538 64.1575C50.5744 63.9913 52.5537 63.1604 54.0013 61.33C54.657 60.4974 55.4222 59.7532 56.0897 58.929C57.3998 57.2613 58.87 55.7264 60.4795 54.3462C62.8975 52.3203 65.4645 50.5411 68.4751 49.4865C70.4851 48.7842 72.4889 48.1519 74.653 48.0806C76.1449 48.03 76.5397 47.1202 75.7389 45.8161C75.4828 45.4569 75.2032 45.1152 74.9018 44.7931C76.4586 43.4479 76.6127 43.0806 76.0287 41.8903ZM75.0318 42.6966C75.0405 42.8369 74.9951 42.9751 74.9051 43.0828C74.8151 43.1905 74.6872 43.2594 74.5478 43.2755C74.3733 43.3162 74.1965 43.3484 74.0179 43.3815C73.5358 43.8509 73.2639 44.1419 73.1688 44.4278C73.3448 44.3763 73.5219 44.3268 73.6959 44.2715C74.063 44.1555 74.4698 44.0671 74.6138 44.5531C74.7578 45.0391 74.3718 45.2196 74.0131 45.3286C73.8257 45.3862 73.6362 45.4401 73.4477 45.4959C73.5657 45.7126 73.7338 45.9538 73.9303 46.2559C73.4558 46.6399 72.8664 46.4604 72.3441 46.5624C68.7052 47.2445 65.2518 48.6852 62.2076 50.7909C59.972 52.3354 57.9283 54.1411 56.1196 56.1698C55.8736 56.5082 55.6315 56.8495 55.3895 57.1907C54.3009 58.7321 53.3909 60.4029 52.0364 61.7538C51.7274 62.0892 51.3513 62.3559 50.9327 62.5367C50.514 62.7175 50.062 62.8083 49.6057 62.8033C48.3852 62.8195 47.1609 62.7564 45.9387 62.7242C40.4397 63.134 35.0976 64.7351 30.2819 67.4167C28.1343 68.6182 26.1606 70.107 24.4151 71.8422C23.9105 71.5205 23.7732 71.1147 23.5871 70.7502C23.5581 70.6969 23.5291 70.6437 23.5001 70.5905L23.4774 70.6029C23.1601 70.9234 22.7679 71.6076 22.2456 71.1132C21.7232 70.6187 22.2187 70.2283 22.5874 69.9118C22.449 69.9141 22.3121 69.9411 22.1832 69.9913C21.7243 70.1647 21.6288 69.8174 21.4994 69.5256C21.3544 69.1278 21.1469 68.7557 20.8847 68.4234L20.8487 68.443C20.7385 68.5251 20.6346 68.6187 20.5183 68.6943C20.3116 68.8339 20.0573 68.8861 19.8864 68.7031C19.838 68.6532 19.8 68.5943 19.7744 68.5296C19.7489 68.465 19.7365 68.3959 19.7378 68.3265C19.739 68.257 19.7541 68.1885 19.782 68.125C19.8099 68.0614 19.8501 68.0041 19.9003 67.9562L20.0216 67.8359C19.8124 67.6097 19.7579 67.2204 19.6284 66.9237C18.8784 65.2298 18.4589 63.4201 17.8407 61.679C16.4615 57.9049 14.827 54.2289 12.9485 50.6766C9.87538 44.7687 7.12815 38.7007 4.08745 32.7801C3.58124 31.7914 3.04952 30.819 2.51779 29.8467C2.15612 29.1958 2.23745 28.6586 2.68399 28.0607C4.64616 25.4188 7.1778 23.2541 10.0913 21.727C14.5811 19.3201 19.3601 18.4292 24.4155 19.2657C26.3713 19.5887 28.3707 19.7252 30.1515 20.7249C30.296 20.8109 30.4603 20.8574 30.6281 20.8598C30.4426 20.4827 30.2768 20.0653 30.7739 19.8538C31.271 19.6424 31.4885 19.9381 31.6358 20.299C31.8502 20.0158 32.027 19.7059 32.1616 19.377C35.8913 11.6935 41.8749 6.50689 49.7599 3.41767C51.9158 2.58557 54.2057 2.15337 56.5177 2.14217C57.1971 2.13464 57.6064 2.33569 57.8043 3.08314C59.5892 9.46549 62.1495 15.5514 64.9142 21.5656C68.0672 28.4108 71.1032 35.3075 74.1981 42.1769L74.2416 42.2568C74.3101 42.2515 74.3783 42.2415 74.4449 42.2373C74.5141 42.2242 74.5853 42.226 74.6538 42.2427C74.7223 42.2594 74.7865 42.2905 74.842 42.334C74.8976 42.3775 74.9433 42.4323 74.976 42.4949C75.0087 42.5574 75.0277 42.6262 75.0318 42.6966Z" fill="#F563BB"/>
<path d="M74.2454 42.2547C73.8547 42.2808 73.4668 42.3386 73.0856 42.4276C69.3215 43.3549 65.6973 44.7765 62.3071 46.6556C57.368 49.3933 53.7962 53.3558 51.8523 58.7143C51.6051 59.3984 51.3624 60.0727 50.8363 60.6104C50.434 60.3637 50.3527 59.984 50.1989 59.6562C49.5907 58.3582 49.0226 57.0434 48.3955 55.7557C46.1336 51.1486 43.6921 46.627 41.497 41.9934C38.1707 34.9789 34.8014 27.9803 31.8345 20.7996C31.7721 20.6487 31.7162 20.4647 31.6453 20.2939C31.5777 20.3753 31.502 20.4495 31.4192 20.5155C31.2045 20.7136 30.9291 20.8331 30.6376 20.8547C30.6956 20.9611 30.7535 21.0676 30.7882 21.1719C34.2303 29.2514 37.8986 37.2283 41.7929 45.1027C43.7436 49.0388 45.7598 52.9417 47.7209 56.8697C48.353 58.1349 48.8973 59.4331 49.5383 60.8364C48.6613 60.9417 48.0463 60.5617 47.3955 60.423C43.4032 59.5747 39.4443 59.7137 35.4474 60.4697C29.8779 61.5297 25.0476 64.1194 20.5339 67.3994C20.3554 67.5311 20.1885 67.6779 20.0353 67.8384C20.091 67.9037 20.1623 67.9539 20.2425 67.9843C20.4944 68.076 20.72 68.2282 20.8994 68.4277C25.8212 64.7999 31.1674 62.1733 37.2969 61.2793C40.1967 60.8567 43.0726 60.8464 45.9765 61.4838C45.7122 61.5401 45.4439 61.5757 45.174 61.5903C42.5745 61.5438 40.0273 61.9593 37.486 62.4307C31.8646 63.4722 26.8633 65.7705 22.7331 69.7955C22.6948 69.8336 22.6498 69.8729 22.601 69.9142C23.0243 69.9105 23.2909 70.2016 23.5107 70.5872C25.3217 68.7832 27.4291 67.3971 29.6703 66.2117C33.6612 64.1035 38.0133 63.3587 42.4272 62.8316C43.5961 62.7089 44.7724 62.6706 45.9471 62.7172C46.2634 62.6929 46.5807 62.6705 46.8962 62.654C49.2631 62.5216 51.4107 61.8282 52.9663 59.8577C53.7091 58.9186 54.5453 58.0519 55.3039 57.1239C55.5717 56.7983 55.8474 56.4782 56.1262 56.1638C57.5251 54.2169 58.9959 52.3344 60.8748 50.8041C64.0246 48.2345 67.6828 46.7977 71.6212 45.975C72.2392 45.8456 72.8478 45.6721 73.4543 45.4898C73.1714 45.0154 73.0688 44.7139 73.1753 44.4218C70.8749 45.0874 68.4752 45.4078 66.2579 46.3707C66.0714 46.4525 65.8089 46.7383 65.5478 46.3579C65.8437 46.1969 66.1086 46.033 66.4103 45.9008C68.7725 44.8546 71.2262 44.0281 73.7403 43.4316C73.8332 43.4081 73.9303 43.3923 74.0245 43.3755L74.1496 43.2532C74.5317 42.8801 74.4079 42.6074 74.2454 42.2547ZM53.4824 57.8246C55.3982 53.4351 58.4989 50.143 62.7242 47.9097C58.7378 50.3605 56.109 54.0906 53.4824 57.8246ZM63.4869 47.6621C63.3366 47.2732 63.6244 47.2373 63.7765 47.1644C63.9286 47.0915 64.0851 46.9274 64.2605 47.1277C64.1061 47.4582 63.7589 47.4573 63.4869 47.6621Z" fill="#F563BB"/>
<path d="M31.4098 20.5206C31.4925 20.4547 31.5682 20.3804 31.6358 20.299C31.4885 19.9381 31.2746 19.6355 30.7739 19.8538C30.2732 20.0722 30.4426 20.4827 30.6281 20.8598C30.9196 20.8383 31.195 20.7188 31.4098 20.5206Z" fill="#F563BB"/>
<path d="M52.9598 59.8637C51.4041 61.8343 49.2489 62.5317 46.8897 62.6601C46.5722 62.6776 46.2549 62.7 45.9406 62.7232C47.1628 62.7554 48.3852 62.8195 49.6076 62.8023C50.0639 62.8073 50.5159 62.7164 50.9346 62.5357C51.3532 62.3549 51.7292 62.0882 52.0383 61.7528C53.3928 60.4018 54.3028 58.731 55.3914 57.1897C55.6334 56.8484 55.8755 56.5072 56.1215 56.1687C55.8427 56.4832 55.567 56.8033 55.2993 57.1289C54.5388 58.0579 53.7025 58.9246 52.9598 59.8637Z" fill="#F563BB"/>
<path d="M20.0258 67.8435L19.9044 67.9638C19.8542 68.0117 19.814 68.069 19.7861 68.1326C19.7582 68.1961 19.7432 68.2646 19.7419 68.3341C19.7406 68.4035 19.7531 68.4726 19.7786 68.5372C19.8041 68.6019 19.8421 68.6608 19.8905 68.7107C20.0614 68.8937 20.3157 68.8415 20.5225 68.7019C20.6387 68.6263 20.7427 68.5328 20.8528 68.4506L20.8889 68.431C20.7095 68.2315 20.4839 68.0792 20.232 67.9876C20.1524 67.9575 20.0815 67.908 20.0258 67.8435Z" fill="#F563BB"/>
<path d="M22.6001 69.9172C22.2315 70.2336 21.7101 70.6037 22.2583 71.1185C22.8065 71.6334 23.1653 70.9329 23.4901 70.6082L23.5129 70.5959C23.2825 70.2087 23.0159 69.9176 22.6001 69.9172Z" fill="#F563BB"/>
<path d="M74.4487 42.2352C74.3821 42.2394 74.3138 42.2495 74.2454 42.2547C74.4058 42.6036 74.5317 42.8801 74.1431 43.2592L74.0179 43.3815C74.1965 43.3484 74.3733 43.3162 74.5478 43.2755C74.6872 43.2594 74.8151 43.1905 74.9051 43.0828C74.9951 42.9751 75.0405 42.8369 75.0318 42.6966C75.0279 42.6264 75.0092 42.5578 74.9768 42.4953C74.9445 42.4328 74.8992 42.3779 74.844 42.3343C74.7889 42.2906 74.7251 42.2592 74.6569 42.2421C74.5888 42.2251 74.5178 42.2227 74.4487 42.2352Z" fill="#F563BB"/>
<path d="M73.4477 45.4959C73.6362 45.4401 73.8257 45.3862 74.0131 45.3286C74.3718 45.2196 74.7544 45.0237 74.6138 44.5531C74.4732 44.0825 74.063 44.1555 73.6959 44.2715C73.5219 44.3268 73.3448 44.3763 73.1688 44.4278C73.0607 44.7306 73.1649 45.0214 73.4477 45.4959Z" fill="#F563BB"/>
<path d="M36.6875 21.6526C36.7192 21.5664 36.7469 21.4773 36.7892 21.3878C37.5283 19.6426 38.5736 18.0446 39.8756 16.6692C41.8606 14.5421 44.1107 12.6796 46.5707 11.1274C49.1727 9.48926 51.9493 8.29831 55.0198 7.86414C55.2019 7.83779 55.3823 7.80129 55.5602 7.75483C55.8629 7.6739 56.0534 7.48641 55.9913 7.15548C55.9814 7.08598 55.9578 7.01912 55.9218 6.95885C55.8858 6.89857 55.8382 6.8461 55.7816 6.80453C55.7251 6.76296 55.6608 6.73312 55.5926 6.71679C55.5244 6.70045 55.4537 6.69794 55.3846 6.7094C54.7412 6.75718 54.1023 6.8513 53.4726 6.99104C46.6663 8.74644 41.3738 12.6869 37.2611 18.3116C36.6147 19.2136 36.1125 20.2111 35.7726 21.2683C35.6596 21.5936 35.6132 21.9466 35.9824 22.1054C36.3516 22.2642 36.573 21.9934 36.6875 21.6526Z" fill="#F563BB"/>
<path d="M38.7444 27.1796C39.0812 26.4208 39.4814 25.6918 39.9407 25.0005C42.3457 21.2886 45.8399 18.8322 49.6408 16.7633C51.4729 15.7769 53.4744 15.1439 55.5412 14.8973C56.0906 14.8287 56.6433 14.7887 57.1969 14.7773C57.6075 14.7682 57.9792 14.7014 57.9844 14.223C57.9876 13.8269 57.6434 13.7185 57.0971 13.6634C56.9764 13.6675 56.6503 13.6602 56.3334 13.6922C53.8854 13.854 51.4986 14.5236 49.3248 15.6588C44.9055 18.01 40.9709 20.9082 38.49 25.4205C38.2419 25.8596 38.0221 26.3143 37.832 26.7817C37.7192 27.0895 37.6381 27.4688 38.02 27.633C38.402 27.7973 38.6158 27.4764 38.7444 27.1796Z" fill="#F563BB"/>
<path d="M49.1287 48.0915C49.2721 47.8039 49.3978 47.5063 49.5324 47.2162C50.5363 45.063 51.8473 43.1443 53.6922 41.6102C57.2206 38.6793 61.1321 36.5379 65.671 35.6396C66.1664 35.5427 66.6535 35.4077 67.128 35.2359C67.2368 35.1917 67.3242 35.1071 67.372 34.9998C67.4199 34.8925 67.4245 34.7707 67.3849 34.6599C67.3629 34.5456 67.2999 34.4432 67.2078 34.3721C67.1156 34.3011 67.0007 34.2662 66.8848 34.2741C66.7011 34.2826 66.5186 34.3069 66.3392 34.3468C60.9026 35.2985 55.884 37.8755 51.943 41.7392C50.2311 43.3956 49.102 45.4543 48.3287 47.4574C48.1325 48.0004 48.065 48.3279 48.4849 48.4715C48.8049 48.5807 48.9978 48.3525 49.1287 48.0915Z" fill="#F563BB"/>
<path d="M60.8335 21.5441C60.8375 21.4273 60.7986 21.3129 60.7241 21.2226C60.6496 21.1324 60.5447 21.0725 60.4292 21.0544C60.1116 21.0157 59.7912 21.0061 59.472 21.0259C56.6112 21.1044 53.9343 21.896 51.4049 23.1841C47.733 25.0521 44.6388 27.6063 42.2918 31.0229C41.8549 31.6452 41.507 32.3256 41.2581 33.0445C41.1716 33.4366 41.0868 33.7958 41.4958 33.9329C41.8024 34.0445 42.0053 33.7714 42.1398 33.5306C42.3188 33.209 42.4506 32.8686 42.6146 32.5329C43.9293 30.0158 46.0004 28.1836 48.2017 26.5049C51.567 23.9338 55.3147 22.2955 59.617 22.1323C59.8928 22.1191 60.167 22.0836 60.4369 22.0261C60.5509 22.0091 60.6545 21.9505 60.7277 21.8615C60.8009 21.7725 60.8386 21.6595 60.8335 21.5441Z" fill="#F563BB"/>
<path d="M20.3251 56.5907C21.2352 54.762 22.9005 53.9098 24.6665 53.1704C29.3094 51.2075 34.1202 50.9351 39.0416 51.7287C39.4507 51.7948 39.8631 51.8377 40.2769 51.8573C40.3931 51.8687 40.509 51.8345 40.6002 51.7618C40.6914 51.6892 40.7508 51.5838 40.7658 51.468C40.7951 51.3514 40.7794 51.2279 40.7219 51.1222C40.6643 51.0165 40.5691 50.9363 40.4553 50.8976C39.977 50.7415 39.4795 50.6451 38.9947 50.527C38.1577 50.4527 37.3326 50.3867 36.507 50.3063C31.9882 49.8224 27.4265 50.6065 23.3321 52.5708C22.1073 53.1173 21.0193 53.9292 20.1464 54.948C19.8432 55.295 19.6037 55.6932 19.4392 56.124C19.3782 56.2511 19.3671 56.3966 19.4079 56.5318C19.4487 56.6669 19.5385 56.782 19.6597 56.8543C19.9603 57.0406 20.1961 56.8506 20.3251 56.5907Z" fill="#F563BB"/>
<path d="M62.1378 28.0057C58.1449 28.8027 54.3784 30.4717 51.1064 32.8938C48.966 34.4349 47.1526 36.386 45.771 38.6345C45.5317 39.0259 45.3221 39.4358 45.195 39.6676C45.0271 40.2987 45.1232 40.6333 45.3957 40.6822C45.7287 40.7474 45.8973 40.5151 46.0423 40.2711C46.1135 40.1535 46.1648 40.022 46.2321 39.9016C47.1124 38.3323 48.2308 36.9097 49.5472 35.6845C53.0864 32.3262 57.3181 30.2989 62.02 29.1714C62.4226 29.0755 62.8318 29.0006 63.2225 28.8693C63.3359 28.8395 63.4343 28.7689 63.4989 28.671C63.5635 28.5731 63.5898 28.4548 63.5728 28.3385C63.5606 28.2215 63.505 28.1133 63.417 28.0352C63.329 27.9572 63.215 27.915 63.0976 27.917C62.7754 27.9144 62.4539 27.9441 62.1378 28.0057Z" fill="#F563BB"/>
<path d="M7.68177 30.2864C7.85613 30.1419 8.01492 29.9794 8.15557 29.8018C9.70402 27.9535 11.6586 26.7023 13.8998 25.8693C17.286 24.6103 20.7862 24.2971 24.3657 24.5766C25.4696 24.6278 26.5692 24.7513 27.6574 24.9462C27.936 25.0065 28.2386 24.9527 28.3314 24.6262C28.4386 24.245 28.2334 23.9944 27.8718 23.9127C27.4224 23.8099 26.9649 23.7508 26.6312 23.6934C25.564 23.4265 24.5885 23.4818 23.6244 23.4225C19.9451 23.19 16.3584 23.6242 12.942 25.0672C10.886 25.9052 9.05397 27.2112 7.59092 28.8819C7.32487 29.1373 7.12107 29.4506 6.99525 29.7976C6.97135 29.8864 6.97552 29.9805 7.00717 30.067C7.03883 30.1534 7.09643 30.228 7.17205 30.2805C7.24278 30.3415 7.33273 30.3756 7.42601 30.3767C7.51929 30.3778 7.60988 30.3458 7.68177 30.2864Z" fill="#F563BB"/>
<path d="M14.2336 42.7661C15.2387 40.8907 16.9687 39.9269 18.8294 39.1852C22.321 37.7948 25.9428 37.2849 29.6878 37.8415C30.7399 38.0082 31.7888 38.0878 32.8486 38.201C33.2252 38.2425 33.658 38.2878 33.7423 37.8057C33.8486 37.2106 33.3467 37.1783 32.938 37.105C32.574 37.0369 32.2125 36.9872 31.8834 36.92C30.6027 36.7939 29.3637 36.6452 28.1201 36.5557C24.5575 36.3102 20.9922 36.966 17.7526 38.4627C16.6158 38.9798 15.5676 39.6726 14.6462 40.5158C14.1047 41.02 13.6634 41.6222 13.3455 42.2909C13.1976 42.5883 13.1147 42.9464 13.4796 43.147C13.8445 43.3476 14.0814 43.0511 14.2336 42.7661Z" fill="#F563BB"/>
<path d="M10.957 35.9513C11.5604 35.2538 12.2541 34.6401 13.0196 34.1262C16.9903 31.3981 21.4299 30.507 26.1618 30.7852C27.2633 30.8486 28.3626 31.0118 29.4626 31.1129C29.8176 31.1464 30.1259 31.0353 30.1507 30.6201C30.17 30.2941 29.9337 30.1221 29.6435 30.0632C29.1916 29.9691 28.7348 29.9023 28.2813 29.8189C24.1815 29.2114 20.4951 29.7245 17.0827 30.8179C14.9884 31.4872 13.1714 32.666 11.4497 33.9974C10.9986 34.3909 10.585 34.8256 10.2142 35.2958C9.99213 35.5473 9.81594 35.865 10.1334 36.1457C10.4509 36.4263 10.7314 36.2145 10.957 35.9513Z" fill="#F563BB"/>
<path d="M34.2106 43.2733C31.7287 43.0001 29.2394 42.8173 26.7613 43.1384C23.7555 43.5423 20.9231 44.4728 18.4561 46.3184C17.8639 46.7615 17.2819 47.2237 16.888 47.8595C16.718 48.1344 16.6096 48.4818 16.9605 48.7245C17.2559 48.9284 17.4806 48.7223 17.6644 48.5089C19.4282 46.4645 21.7716 45.4625 24.302 44.7678C27.6186 43.8597 30.9638 43.998 34.3207 44.4603C34.7842 44.526 35.3109 44.7618 35.4172 44.0853C35.5235 43.4089 34.9274 43.4204 34.4866 43.3152C34.3952 43.3009 34.303 43.2895 34.2106 43.2733Z" fill="#F563BB"/>
<path d="M44.268 55.3457C43.7985 55.2735 43.4138 55.4656 43.3385 55.9281C43.2911 56.156 43.3316 56.3935 43.4516 56.5932C43.5717 56.7929 43.7626 56.9399 43.9861 57.0049C44.0941 57.0409 44.2081 57.0548 44.3215 57.0457C44.4349 57.0366 44.5452 57.0047 44.6459 56.952C44.7466 56.8992 44.8356 56.8267 44.9076 56.7387C44.9797 56.6507 45.0332 56.549 45.0651 56.4398C45.1037 56.1892 45.0414 55.9334 44.892 55.7283C44.7426 55.5232 44.5182 55.3856 44.268 55.3457Z" fill="#F563BB"/>
<path d="M69.6805 39.2659C69.6044 39.5339 69.6334 39.8211 69.7618 40.0687C69.8902 40.3163 70.1082 40.5056 70.3711 40.5978C70.5244 40.6537 70.6929 40.6497 70.8431 40.5866C70.9934 40.5236 71.1142 40.4061 71.1817 40.2577C71.3791 39.8299 71.0048 38.826 70.5745 38.6905C70.1422 38.6055 69.8269 38.7894 69.6805 39.2659Z" fill="#F563BB"/>
<path d="M49.5054 53.323C50.0832 53.3954 50.2668 52.879 50.4052 52.4512C50.5436 52.0235 50.283 51.739 49.8947 51.6127C49.5064 51.4865 49.0208 51.8592 48.919 52.4987C48.9206 52.8133 49.0032 53.2587 49.5054 53.323Z" fill="#F563BB"/>
<path d="M52.5146 49.3118C52.4853 49.7097 52.5888 50.0896 53.131 50.1371C53.4928 50.1693 53.79 49.9927 53.8153 49.6192C53.8454 49.4115 53.7947 49.2001 53.6739 49.0284C53.553 48.8567 53.371 48.7379 53.1655 48.6963C52.7504 48.6068 52.6075 48.9088 52.5146 49.3118Z" fill="#F563BB"/>
<path d="M20.8763 63.7825C20.9549 63.8023 21.0366 63.8059 21.1165 63.7932C21.1964 63.7804 21.2729 63.7516 21.3413 63.7083C21.4097 63.6651 21.4686 63.6084 21.5145 63.5417C21.5603 63.475 21.5922 63.3996 21.6081 63.3201C21.7146 62.8654 21.4161 62.6557 21.0145 62.5367C20.6118 62.4971 20.2654 62.6241 20.2096 63.0635C20.1538 63.503 20.4759 63.7244 20.8763 63.7825Z" fill="#F563BB"/>
<path d="M55.7104 4.16868C56.1056 4.16303 56.4715 4.04027 56.4773 3.58119C56.4831 3.23053 56.2344 3.00855 55.862 2.9747C55.408 2.93103 55.2016 3.18876 55.1101 3.5762C55.1003 3.65705 55.1091 3.7391 55.136 3.81604C55.1628 3.89298 55.207 3.96276 55.265 4.02C55.323 4.07724 55.3933 4.12041 55.4705 4.14618C55.5477 4.17196 55.6298 4.17966 55.7104 4.16868Z" fill="#F563BB"/>
<path d="M23.4836 58.021C23.032 57.9908 22.8615 58.3054 22.8389 58.7021C22.8164 59.0989 23.0109 59.3208 23.3811 59.3189C23.7513 59.317 23.9189 59.0557 23.9722 58.5979C23.9411 58.3782 23.8848 58.049 23.4836 58.021Z" fill="#F563BB"/>
<path d="M38.5715 54.9666C38.5051 54.9623 38.4386 54.9712 38.3757 54.993C38.3129 55.0147 38.255 55.0488 38.2055 55.0932C38.1559 55.1376 38.1158 55.1914 38.0873 55.2515C38.0588 55.3117 38.0425 55.3769 38.0395 55.4435C38.0273 55.4991 38.0266 55.5566 38.0373 55.6125C38.0481 55.6684 38.0701 55.7216 38.1019 55.7688C38.1338 55.816 38.175 55.8562 38.2228 55.887C38.2707 55.9178 38.3243 55.9385 38.3804 55.9479C38.4577 55.9696 38.5391 55.9722 38.6175 55.9554C38.6959 55.9385 38.7691 55.9029 38.8306 55.8514C38.8921 55.8 38.9402 55.7343 38.9707 55.6601C39.0012 55.5858 39.0132 55.5053 39.0056 55.4253C39.0091 55.3662 39.0004 55.307 38.9801 55.2514C38.9598 55.1958 38.9283 55.145 38.8876 55.102C38.8469 55.059 38.7979 55.0248 38.7435 55.0015C38.6892 54.9782 38.6306 54.9663 38.5715 54.9666Z" fill="#F563BB"/>
<path d="M51.0707 54.9206C51.003 54.9226 50.9365 54.9391 50.8758 54.9689C50.815 54.9988 50.7613 55.0413 50.7183 55.0936C50.6753 55.1459 50.644 55.2069 50.6265 55.2724C50.609 55.3379 50.6057 55.4064 50.6168 55.4733C50.6142 55.5883 50.6558 55.7001 50.733 55.7855C50.8101 55.8709 50.9169 55.9236 51.0315 55.9327C51.0985 55.9481 51.1682 55.9473 51.2348 55.9303C51.3013 55.9134 51.3629 55.8807 51.4143 55.8352C51.4657 55.7896 51.5055 55.7324 51.5303 55.6683C51.5552 55.6042 51.5644 55.5351 51.5572 55.4666C51.5628 55.3985 51.5545 55.3299 51.5328 55.265C51.511 55.2001 51.4763 55.1403 51.4308 55.0893C51.3853 55.0382 51.3299 54.9969 51.268 54.9679C51.2061 54.9389 51.139 54.9228 51.0707 54.9206Z" fill="#F563BB"/>
</svg>
