<svg width="58" height="60" viewBox="0 0 58 60" fill="none" xmlns="http://www.w3.org/2000/svg">
<path d="M38.1267 45.8906C39.9771 46.5322 41.9001 46.9699 43.7932 47.4883C47.1307 48.402 50.4512 49.3878 53.8955 49.8425C57.4425 50.3099 58.7245 48.8354 57.6091 45.5421C57.0995 44.0451 56.4032 42.6175 55.5365 41.2927C53.434 38.0972 51.5537 34.7742 49.6948 31.4342C48.3871 29.0843 48.3444 29.0715 50.1221 26.9171C52.2416 24.428 54.2218 21.8249 56.0536 19.1195C56.7673 18.0189 57.404 16.8758 57.5151 15.533C57.6946 13.2723 56.4254 11.955 54.169 12.1335C53.3384 12.2548 52.5163 12.428 51.7076 12.6519C48.1435 13.4126 44.5624 14.101 41.0241 14.9721C39.5711 15.3333 38.8874 14.9381 38.1481 13.6973C35.8661 9.83033 33.5371 6.01438 31.3619 2.12195C29.8363 -0.640146 27.7765 -0.678391 25.9218 1.84574C25.1375 3.00482 24.4894 4.24952 23.9903 5.55545C22.0331 10.1363 20.9989 14.9636 20.2724 19.8376C19.9476 22.0728 19.0801 23.2371 16.9263 23.968C12.9563 25.3533 8.87524 26.4497 5.08473 28.3109C3.8077 28.886 2.58614 29.5759 1.43525 30.3718C-0.547611 31.8549 -0.462143 33.7416 1.60618 35.1566C2.43884 35.7615 3.37596 36.2094 4.37108 36.4782C8.85388 37.4938 13.0504 39.4528 17.5246 40.4216C19.1271 40.7743 19.234 41.4797 18.9135 42.7503C18.184 45.8337 17.8437 48.9956 17.9007 52.1627C17.9007 53.8369 17.7511 55.5282 17.9349 57.1812C18.2254 59.7861 20.0716 60.6912 22.3407 59.4504C23.0691 59.0312 23.746 58.5293 24.3578 57.9546C28.2338 54.4403 32.0798 50.8836 35.2934 46.7447C36.1524 45.6441 36.8703 45.4656 38.1267 45.8906ZM33.4259 43.256C30.473 47.2589 26.8834 50.6626 23.2723 54.0494C22.8194 54.4743 22.4177 55.0013 21.3707 55.1585C21.392 50.9558 21.6271 46.9317 22.5459 42.9628C23.6057 38.3989 23.4219 38.1185 18.9519 37.0816C14.2298 35.9895 9.80684 33.9583 4.61039 32.8322C6.53342 31.2515 8.35816 30.6353 10.1316 29.9554C13.2655 28.7514 16.4206 27.5814 19.5972 26.4454C21.7339 25.689 22.8706 24.444 23.2467 22.06C24.0586 16.9183 25.0971 11.7978 27.2551 6.99174C27.5586 6.31609 27.9047 5.66169 28.2252 5.01578C29.2637 5.12201 29.3363 6.00589 29.6953 6.6008C31.7508 10.0385 33.8447 13.4551 35.7977 16.9565C36.9472 19.0217 38.6993 19.0812 40.6224 18.72C44.3829 17.9806 48.1265 17.1605 51.8785 16.3701C52.2332 16.2979 52.5836 16.2129 53.1605 16.0812C53.1605 17.3262 52.4298 18.0529 51.8785 18.788C49.7418 21.6096 47.5154 24.376 45.3274 27.1636C44.9106 27.664 44.5266 28.1906 44.1778 28.7401C43.6308 29.6579 43.6394 30.6438 44.6052 31.1792C45.9598 31.9101 46.4684 33.1977 47.1692 34.3875C48.8358 37.1864 50.5053 39.9868 52.1776 42.7885C52.746 43.7446 53.434 44.6455 53.6434 46.0733C51.3358 45.8821 49.37 45.2532 47.4085 44.7093C44.1693 43.8126 40.93 42.8948 37.7122 41.9174C35.4686 41.2163 34.8661 41.3182 33.4388 43.2517L33.4259 43.256Z" fill="#A2A1E0"/>
<path d="M26.5287 46.12C26.4153 46.1019 26.2994 46.1079 26.1886 46.1376C26.0778 46.1673 25.9745 46.22 25.8857 46.2923C25.7968 46.3646 25.7244 46.4548 25.6732 46.5569C25.622 46.6591 25.5931 46.7709 25.5885 46.8849C25.5462 47.0633 25.5745 47.2511 25.6676 47.4093C25.7607 47.5675 25.9114 47.6841 26.0885 47.7348C26.1959 47.7715 26.31 47.7848 26.4231 47.7737C26.5361 47.7626 26.6454 47.7275 26.7435 47.6706C26.8417 47.6138 26.9263 47.5366 26.9917 47.4442C27.0572 47.3519 27.1018 47.2467 27.1227 47.1356C27.2979 46.5832 26.9774 46.3155 26.5287 46.12Z" fill="#A2A1E0"/>
<path d="M23.5031 31.2515C23.3217 31.2654 23.1523 31.3468 23.0287 31.4796C22.9051 31.6123 22.8364 31.7866 22.8364 31.9675C22.8364 32.1484 22.9051 32.3226 23.0287 32.4554C23.1523 32.5881 23.3217 32.6696 23.5031 32.6835C23.5956 32.6876 23.688 32.6719 23.7739 32.6374C23.8598 32.6028 23.9372 32.5503 24.0008 32.4834C24.0645 32.4165 24.1129 32.3367 24.1428 32.2495C24.1727 32.1623 24.1833 32.0698 24.174 31.9781C24.1837 31.8854 24.1735 31.7916 24.144 31.7031C24.1146 31.6145 24.0665 31.5332 24.0031 31.4646C23.9397 31.3959 23.8623 31.3413 23.7761 31.3046C23.6899 31.2679 23.5969 31.2498 23.5031 31.2515Z" fill="#A2A1E0"/>
<path d="M41.9898 35.4583C42.08 35.4634 42.1702 35.4487 42.2541 35.4152C42.3379 35.3818 42.4133 35.3303 42.4749 35.2646C42.5364 35.1989 42.5827 35.1206 42.6104 35.0351C42.6381 34.9496 42.6466 34.8591 42.6351 34.7699C42.6508 34.5913 42.5957 34.4136 42.4815 34.2747C42.3674 34.1358 42.2032 34.0467 42.024 34.0263C41.8445 34.0084 41.6649 34.0584 41.5208 34.1663C41.3767 34.2742 41.2787 34.432 41.2463 34.6085C41.1352 35.1694 41.4899 35.4371 41.9898 35.4583Z" fill="#A2A1E0"/>
<path d="M45.8274 40.4854C45.9188 40.4959 46.0114 40.4878 46.0995 40.4615C46.1877 40.4352 46.2695 40.3912 46.3399 40.3323C46.4104 40.2734 46.4679 40.2008 46.5091 40.119C46.5503 40.0372 46.5743 39.9478 46.5795 39.8565C46.5538 39.4783 46.4556 39.1341 46.0282 39.0618C45.9186 39.0333 45.8036 39.0315 45.6931 39.0566C45.5826 39.0817 45.4798 39.1329 45.3934 39.2058C45.307 39.2788 45.2396 39.3714 45.1969 39.4758C45.1541 39.5802 45.1373 39.6933 45.1479 39.8055C45.149 39.9847 45.2208 40.1564 45.3479 40.2835C45.4749 40.4107 45.6471 40.4831 45.8274 40.4854Z" fill="#A2A1E0"/>
</svg>
