<svg width="117" height="117" viewBox="0 0 117 117" fill="none" xmlns="http://www.w3.org/2000/svg">
<path d="M97.0266 19.2346C83.0937 37.6092 44.7384 83.3361 17.41 99.6558M99.4549 98.6183C81.1232 84.6529 36.4185 46.9062 20.1369 19.5538M115 59.934C103.295 57.8358 92.3072 52.8151 83.05 45.3356C73.7928 37.856 66.5654 28.1589 62.0351 17.1398C60.0708 12.3032 58.7006 7.24519 57.9548 2.07702M2.40232 67.1162C20.6345 73.0017 38.8468 89.5807 48.5799 108.813C49.5598 110.758 50.4304 112.756 51.1874 114.798M42.2504 4.53095C71.5692 -5.20498 101.963 14.3068 112.074 43.2153C114.492 50.3416 115.398 57.8958 114.734 65.3936C114.069 72.8914 111.849 80.1672 108.216 86.7547C104.582 93.3421 99.615 99.0958 93.6333 103.647C87.6516 108.198 80.7871 111.446 73.48 113.182C41.8921 120.404 10.782 105.821 3.65628 74.498C-3.4694 43.1754 12.9515 14.2469 42.2504 4.53095ZM59.4078 21.5888C83.9297 7.12454 102.182 14.606 102.938 34.1178C103.694 53.6296 82.5364 83.5356 56.8799 96.6632C31.2235 109.791 11.1004 106.279 13.3297 84.1341C15.559 61.9889 34.866 35.9932 59.4078 21.5888Z" stroke="#A3E0C3" stroke-width="3" stroke-linecap="round" stroke-linejoin="round"/>
</svg>
