<svg width="89" height="69" viewBox="0 0 89 69" fill="none" xmlns="http://www.w3.org/2000/svg">
<path d="M56.5583 0.29346C56.9672 0.475028 57.3363 0.735365 57.6445 1.0596C57.9528 1.38384 58.1941 1.76562 58.3548 2.18315C58.5155 2.60068 58.5924 3.04578 58.581 3.49301C58.5697 3.94025 58.4703 4.38087 58.2887 4.78971L31.0387 66.1022C30.6719 66.9279 29.9921 67.5741 29.1489 67.8986C28.3057 68.2231 27.3681 68.1994 26.5424 67.8326C25.7167 67.4658 25.0705 66.786 24.746 65.9428C24.4215 65.0996 24.4453 64.162 24.812 63.3363L52.062 2.02383C52.2436 1.61495 52.5039 1.24585 52.8282 0.937592C53.1524 0.629338 53.5342 0.387976 53.9517 0.22729C54.3693 0.0666047 54.8144 -0.0102563 55.2616 0.00109708C55.7088 0.0124505 56.1495 0.111796 56.5583 0.29346ZM19.2939 16.187C19.6276 16.4849 19.8994 16.8456 20.0937 17.2486C20.288 17.6515 20.401 18.0888 20.4263 18.5354C20.4516 18.982 20.3887 19.4292 20.2412 19.8515C20.0936 20.2739 19.8643 20.663 19.5664 20.9966L7.96472 34.063L19.58 47.1294C19.8771 47.464 20.1053 47.8538 20.2516 48.2766C20.398 48.6994 20.4596 49.1469 20.4331 49.5935C20.4065 50.0401 20.2922 50.4771 20.0968 50.8795C19.9013 51.282 19.6285 51.642 19.2939 51.939C18.9593 52.236 18.5695 52.4642 18.1467 52.6106C17.7239 52.757 17.2765 52.8186 16.8298 52.7921C16.3832 52.7655 15.9462 52.6512 15.5438 52.4558C15.1413 52.2603 14.7813 51.9875 14.4843 51.6529L0.859286 36.3248C0.30573 35.7014 0 34.8967 0 34.063C0 33.2294 0.30573 32.4246 0.859286 31.8013L14.4843 16.4731C14.7813 16.1385 15.1412 15.8656 15.5437 15.6701C15.9462 15.4746 16.3832 15.3603 16.8298 15.3337C17.2765 15.3071 17.724 15.3688 18.1468 15.5152C18.5696 15.6616 18.9594 15.8899 19.2939 16.187ZM69.2636 16.187C69.5982 15.8899 69.988 15.6616 70.4108 15.5152C70.8335 15.3688 71.2811 15.3071 71.7277 15.3337C72.1743 15.3603 72.6114 15.4746 73.0138 15.6701C73.4163 15.8656 73.7763 16.1385 74.0732 16.4731L87.6982 31.8013C88.2518 32.4246 88.5575 33.2294 88.5575 34.063C88.5575 34.8967 88.2518 35.7014 87.6982 36.3248L74.0732 51.6529C73.7762 51.9875 73.4162 52.2603 73.0137 52.4558C72.6113 52.6512 72.1743 52.7655 71.7277 52.7921C71.2811 52.8186 70.8336 52.757 70.4108 52.6106C69.988 52.4642 69.5982 52.236 69.2636 51.939C68.929 51.642 68.6562 51.282 68.4607 50.8795C68.2653 50.4771 68.151 50.0401 68.1244 49.5935C68.0979 49.1469 68.1595 48.6994 68.3059 48.2766C68.4523 47.8538 68.6805 47.464 68.9775 47.1294L80.5928 34.063L68.9775 20.9966C68.6804 20.6621 68.4521 20.2723 68.3057 19.8495C68.1593 19.4267 68.0976 18.9792 68.1241 18.5326C68.1507 18.0859 68.265 17.6489 68.4605 17.2464C68.6561 16.844 68.9289 16.484 69.2636 16.187Z" fill="#1EC6D0"/>
</svg>
