<svg width="99" height="54" viewBox="0 0 99 54" fill="none" xmlns="http://www.w3.org/2000/svg">
<path d="M90.7994 5.01785L92.0247 2.12132C88.6768 0.728162 84.9815 0.477377 81.4986 1.40697C78.0158 2.33657 74.9354 4.39588 72.7242 7.27278C70.878 9.71967 68.2608 11.4486 65.3039 12.1746C62.347 12.9007 59.2267 12.5806 56.4571 11.2672C53.0564 9.69753 49.2444 9.32676 45.6307 10.2141C42.0169 11.1014 38.8102 13.1957 36.5232 16.1619C34.677 18.6088 32.0598 20.3377 29.1029 21.0637C26.146 21.7898 23.0258 21.4697 20.2562 20.1563C16.964 18.6307 13.2801 18.2324 9.76279 19.0217C6.24551 19.8109 3.08658 21.7448 0.764783 24.5301L3.19224 26.5297C5.02226 24.3708 7.46464 22.8385 10.1902 22.1394C13.1431 21.4449 16.2466 21.7557 19.0239 23.024C22.4114 24.5686 26.1954 24.9481 29.797 24.1042C33.3798 23.184 36.5577 21.095 38.8445 18.1571C40.6927 15.7085 43.3121 13.9784 46.2715 13.2518C49.2308 12.5251 52.3537 12.8451 55.1258 14.1592C58.524 15.7282 62.3334 16.099 65.9447 15.2123C69.556 14.3255 72.7605 12.2325 75.0455 9.26794C76.8255 6.88749 79.3371 5.17922 82.1875 4.41024C85.0379 3.64127 88.0664 3.85494 90.7994 5.01785Z" fill="#5FEDDC"/>
<path d="M6.44537 39.7782C8.32962 37.512 10.8999 35.9429 13.7609 35.3121C16.6219 34.6813 19.6153 35.0238 22.2806 36.2868C25.6775 37.8638 29.4892 38.2388 33.1024 37.3516C36.7156 36.4644 39.9201 34.3665 42.2003 31.3955C44.0535 28.9536 46.6729 27.2285 49.6302 26.5023C52.5876 25.7762 55.708 26.0918 58.4815 27.3977C61.878 28.9773 65.6905 29.3538 69.3043 28.4664C72.9182 27.579 76.1227 25.4795 78.4013 22.5064C80.1784 20.1525 82.6727 18.4626 85.5005 17.6965C88.3283 16.9304 91.333 17.1306 94.0526 18.2663L95.2778 15.3697C91.9303 13.9741 88.2342 13.722 84.7508 14.6518C81.2674 15.5815 78.187 17.6423 75.9774 20.5212C74.1261 22.9615 71.509 24.6854 68.5541 25.411C65.5992 26.1365 62.4813 25.8209 59.7103 24.5156C56.3104 22.9407 52.4969 22.567 48.8819 23.4547C45.2669 24.3424 42.0601 26.4398 39.7764 29.4103C37.9251 31.8506 35.308 33.5745 32.3531 34.3001C29.3982 35.0256 26.2803 34.71 23.5093 33.4047C20.2175 31.8767 16.533 31.477 13.0151 32.2664C9.49724 33.0558 6.33827 34.9912 4.01792 37.7785L6.44537 39.7782Z" fill="#5FEDDC"/>
<path d="M61.763 40.6392C65.1612 42.2082 68.9707 42.579 72.582 41.6922C76.1932 40.8055 79.3977 38.7124 81.6827 35.7479C83.4562 33.3902 85.949 31.6964 88.7768 30.9276C91.6045 30.1587 94.6102 30.3575 97.3305 31.4933L98.5557 28.5968C95.2079 27.2036 91.5125 26.9529 88.0297 27.8825C84.5469 28.8121 81.4664 30.8714 79.2553 33.7483C77.409 36.1952 74.7919 37.924 71.835 38.6501C68.8781 39.3762 65.7578 39.0561 62.9882 37.7426C59.5879 36.1704 55.7751 35.7982 52.1608 36.6857C48.5464 37.5732 45.3396 39.669 43.0543 42.6374C41.2081 45.0843 38.5909 46.8132 35.634 47.5392C32.6771 48.2653 29.5568 47.9452 26.7872 46.6318C23.4909 45.1 19.8005 44.699 16.2771 45.4897C12.7538 46.2805 9.59022 48.2197 7.26752 51.0125L9.69498 53.0122C11.5798 50.7456 14.1516 49.1772 17.0138 48.5489C19.8761 47.9206 22.8699 48.2672 25.5337 49.5352C28.9319 51.1042 32.7414 51.475 36.3527 50.5883C39.9639 49.7015 43.1684 47.6085 45.4534 44.644C47.2999 42.1932 49.9194 40.4614 52.8794 39.7346C55.8394 39.0078 58.9631 39.3293 61.7347 40.6461L61.763 40.6392Z" fill="#5FEDDC"/>
</svg>
