<svg width="200" height="277" viewBox="0 0 200 277" fill="none" xmlns="http://www.w3.org/2000/svg">
<path d="M148.781 9.53271C149.629 21.9493 158.355 36.7137 168.599 45.5198M148.688 9.01713C141.75 1.61183 129.396 -2.31644 114.988 6.22999M136.748 14.4322C133.568 8.95259 123.097 4.44532 115.192 6.62505M168.87 44.2778C171.427 54.0707 168.131 66.6377 153.226 74.2558M157.914 51.4722C160.821 57.0894 159.059 68.3463 152.996 73.8673M140.276 32.1273C137.733 26.5059 136.597 20.3499 136.967 14.1912C143.958 10.31 175.566 -2.62131 198.152 8.93127C195.436 22.196 170.312 44.3781 157.773 51.8909C152.745 49.9114 146.634 44.0247 142.315 36.294M155.018 29.5052C146.223 28.1315 134.953 33.7942 128.21 42.5371M155.578 30.0843C152.48 31.3013 133.764 38.969 128.89 43.2256M118.02 48.0663C87.2806 59.09 49.2286 97.5634 48.457 135.791C47.6853 174.019 88.8069 160.625 61.5334 133.013C34.2598 105.4 -53.5557 162.093 -30.9215 275.599M175.469 10.9869C180.285 12.3773 182.553 17.7541 181.267 22.5521C180.941 23.7255 180.373 24.8177 179.599 25.7583C178.825 26.6989 177.863 27.4673 176.775 28.0139C175.686 28.5605 174.495 28.8733 173.279 28.9321C172.062 28.991 170.847 28.7947 169.711 28.3557C164.817 26.4241 161.99 21.6311 163.912 16.7905C164.73 14.528 166.384 12.6652 168.534 11.5855C170.684 10.5059 173.166 10.2916 175.469 10.9869Z" stroke="#E26BAC" stroke-width="1.92" stroke-linecap="round" stroke-linejoin="round"/>
</svg>
