<svg width="90" height="90" viewBox="0 0 90 90" fill="none" xmlns="http://www.w3.org/2000/svg">
<g clip-path="url(#clip0_798_464)">
<path d="M8.73791 0.118675H81.2621C82.3947 0.116067 83.5167 0.33723 84.5636 0.769463C85.6105 1.2017 86.5617 1.83648 87.3626 2.63737C88.1635 3.43826 88.7983 4.38947 89.2305 5.43639C89.6628 6.4833 89.8839 7.60528 89.8813 8.73791V81.2621C89.8839 82.3947 89.6628 83.5167 89.2305 84.5636C88.7983 85.6105 88.1635 86.5617 87.3626 87.3626C86.5617 88.1635 85.6105 88.7983 84.5636 89.2305C83.5167 89.6628 82.3947 89.8839 81.2621 89.8813H8.73791C7.60528 89.8839 6.4833 89.6628 5.43639 89.2305C4.38947 88.7983 3.43826 88.1635 2.63737 87.3626C1.83648 86.5617 1.2017 85.6105 0.769463 84.5636C0.33723 83.5167 0.116067 82.3947 0.118675 81.2621V8.73791C0.116067 7.60528 0.33723 6.4833 0.769463 5.43639C1.2017 4.38947 1.83648 3.43826 2.63737 2.63737C3.43826 1.83648 4.38947 1.2017 5.43639 0.769463C6.4833 0.33723 7.60528 0.116067 8.73791 0.118675Z" fill="#F3F3F3"/>
<path d="M89.8813 8.73788V19.5082H0.118652V8.73788C0.118652 6.45192 1.02675 4.25959 2.64317 2.64317C4.25959 1.02675 6.45192 0.118652 8.73788 0.118652H81.2621C83.548 0.118652 85.7404 1.02675 87.3568 2.64317C88.9732 4.25959 89.8813 6.45192 89.8813 8.73788Z" fill="#455A64"/>
<path d="M12.3282 10.1721C12.3292 10.5987 12.2036 11.0161 11.9672 11.3713C11.7309 11.7265 11.3945 12.0036 11.0007 12.1675C10.6068 12.3315 10.1731 12.3749 9.75457 12.2923C9.33601 12.2096 8.95138 12.0047 8.64936 11.7033C8.34733 11.402 8.1415 11.0179 8.05791 10.5995C7.97431 10.1811 8.01672 9.74736 8.17976 9.3531C8.3428 8.95885 8.61914 8.62183 8.97381 8.3847C9.32847 8.14757 9.74552 8.021 10.1722 8.021C10.7431 8.02099 11.2908 8.24747 11.695 8.65074C12.0992 9.05401 12.3269 9.60113 12.3282 10.1721Z" fill="#E72264"/>
<path d="M35.3077 10.1721C35.3086 10.5979 35.1835 11.0144 34.9481 11.3692C34.7126 11.724 34.3774 12.0011 33.9847 12.1656C33.5919 12.3301 33.1593 12.3746 32.7413 12.2936C32.3233 12.2125 31.9386 12.0095 31.6358 11.7102C31.333 11.4108 31.1257 11.0285 31.0398 10.6115C30.954 10.1944 30.9936 9.7613 31.1536 9.36672C31.3136 8.97214 31.5869 8.63377 31.939 8.39428C32.291 8.15479 32.7061 8.0249 33.1319 8.021C33.7028 8.02099 34.2505 8.24747 34.6547 8.65074C35.0589 9.05401 35.2866 9.60113 35.2879 10.1721H35.3077Z" fill="#CCD73E"/>
<path d="M23.8155 10.1721C23.8165 10.5989 23.6907 11.0165 23.4542 11.3718C23.2177 11.7271 22.881 12.0042 22.4868 12.168C22.0927 12.3318 21.6587 12.3749 21.2401 12.2919C20.8214 12.2089 20.4367 12.0034 20.1349 11.7016C19.8331 11.3998 19.6276 11.0151 19.5446 10.5965C19.4616 10.1778 19.5047 9.74384 19.6685 9.34968C19.8323 8.95551 20.1094 8.61883 20.4647 8.3823C20.82 8.14577 21.2376 8.02002 21.6644 8.021C22.2345 8.02231 22.7809 8.24936 23.184 8.65249C23.5871 9.05561 23.8142 9.602 23.8155 10.1721Z" fill="#FCC00E"/>
<path d="M79.1209 8.021H67.6187C67.0654 8.04752 66.5435 8.28599 66.1613 8.68696C65.7791 9.08793 65.5659 9.62062 65.5659 10.1746C65.5659 10.7285 65.7791 11.2612 66.1613 11.6622C66.5435 12.0631 67.0654 12.3016 67.6187 12.3281H79.1209C79.6742 12.3016 80.1961 12.0631 80.5783 11.6622C80.9605 11.2612 81.1738 10.7285 81.1738 10.1746C81.1738 9.62062 80.9605 9.08793 80.5783 8.68696C80.1961 8.28599 79.6742 8.04752 79.1209 8.021Z" fill="white"/>
<path d="M13.7622 25.2544H76.2381C76.804 25.2531 77.3647 25.3636 77.8879 25.5796C78.411 25.7956 78.8864 26.1128 79.2866 26.513C79.6868 26.9132 80.004 27.3886 80.22 27.9117C80.436 28.4349 80.5465 28.9956 80.5452 29.5615V47.5121C80.5465 48.0783 80.436 48.6392 80.2201 49.1627C80.0042 49.6861 79.687 50.1618 79.2869 50.5624C78.8867 50.963 78.4114 51.2806 77.8882 51.4972C77.3651 51.7137 76.8043 51.8248 76.2381 51.8242H13.7622C13.196 51.8248 12.6352 51.7137 12.112 51.4972C11.5889 51.2806 11.1136 50.963 10.7134 50.5624C10.3133 50.1618 9.99613 49.6861 9.7802 49.1627C9.56427 48.6392 9.45379 48.0783 9.45509 47.5121V29.5615C9.45379 28.9956 9.5643 28.4349 9.78029 27.9117C9.99629 27.3886 10.3135 26.9132 10.7137 26.513C11.1139 26.1128 11.5893 25.7956 12.1124 25.5796C12.6356 25.3636 13.1962 25.2531 13.7622 25.2544Z" fill="#E83E90"/>
<path d="M35.3076 81.9791H61.8724L64.2312 75.511C64.5675 74.5583 64.7348 73.5542 64.7257 72.544V55.5676C64.7424 54.6564 64.4212 53.7712 63.8241 53.0828C63.2269 52.3943 62.3961 51.9513 61.4916 51.839C60.9916 51.7878 60.4864 51.8421 60.0087 51.9985C59.531 52.1549 59.0914 52.4099 58.7185 52.7469C58.3456 53.0839 58.0476 53.4955 57.8438 53.955C57.6401 54.4145 57.535 54.9116 57.5356 55.4143V51.2604C57.5522 50.3485 57.2303 49.4627 56.6321 48.7741C56.034 48.0855 55.2019 47.643 54.2966 47.5319C53.797 47.4807 53.2922 47.5349 52.8148 47.691C52.3374 47.8471 51.8982 48.1016 51.5253 48.4381C51.1525 48.7746 50.8544 49.1856 50.6503 49.6445C50.4462 50.1034 50.3407 50.6 50.3405 51.1022V46.9484C50.356 46.0367 50.0337 45.1515 49.4358 44.4632C48.8378 43.7748 48.0064 43.3319 47.1015 43.2198C46.6015 43.1685 46.0963 43.2229 45.6186 43.3793C45.1409 43.5357 44.7013 43.7906 44.3284 44.1277C43.9555 44.4647 43.6575 44.8763 43.4537 45.3358C43.25 45.7952 43.1449 46.2924 43.1455 46.7951V34.744C43.161 33.8323 42.8387 32.9471 42.2407 32.2588C41.6428 31.5704 40.8113 31.1276 39.9065 31.0154C39.4065 30.9626 38.9011 31.0157 38.4231 31.1712C37.945 31.3267 37.5051 31.5812 37.1319 31.918C36.7587 32.2548 36.4607 32.6664 36.2571 33.126C36.0535 33.5857 35.949 34.083 35.9504 34.5857V64.8643L32.2713 58.3517C31.8285 57.5551 31.1069 56.9504 30.2452 56.6537C29.3834 56.357 28.4425 56.3894 27.6032 56.7445C27.1468 56.9519 26.7388 57.2525 26.4055 57.6269C26.0722 58.0014 25.8208 58.4414 25.6676 58.9187C25.5144 59.396 25.4627 59.9001 25.5159 60.3986C25.569 60.8971 25.7258 61.3789 25.9762 61.8132L35.3076 77.9786V81.9791Z" fill="#FACBBD"/>
<path d="M35.3077 81.979H62.5945C62.8774 81.979 63.1575 82.0348 63.4188 82.1432C63.6801 82.2516 63.9175 82.4105 64.1173 82.6108C64.3171 82.8111 64.4754 83.0488 64.5833 83.3103C64.6911 83.5719 64.7462 83.8522 64.7456 84.1351V87.7252C64.7462 88.0081 64.6911 88.2883 64.5833 88.5499C64.4754 88.8114 64.3171 89.0491 64.1173 89.2494C63.9175 89.4497 63.6801 89.6086 63.4188 89.717C63.1575 89.8254 62.8774 89.8812 62.5945 89.8812H35.3077C35.0227 89.8845 34.7399 89.8311 34.4757 89.7242C34.2116 89.6172 33.9713 89.4588 33.7688 89.2582C33.5664 89.0576 33.4058 88.8188 33.2965 88.5556C33.1871 88.2924 33.1312 88.0102 33.1318 87.7252V84.1351C33.1312 83.8517 33.1865 83.5711 33.2946 83.3092C33.4028 83.0473 33.5615 82.8094 33.7619 82.609C33.9622 82.4087 34.2002 82.2499 34.462 82.1418C34.7239 82.0337 35.0046 81.9784 35.2879 81.979H35.3077Z" fill="#455A64"/>
<path d="M18.8356 56.8037C18.6327 56.6017 18.358 56.4883 18.0716 56.4883C17.7853 56.4883 17.5106 56.6017 17.3076 56.8037L12.2834 61.8131C12.0959 62.0179 11.9946 62.2872 12.0007 62.5648C12.0069 62.8424 12.1199 63.107 12.3162 63.3033C12.5126 63.4997 12.7772 63.6127 13.0548 63.6188C13.3324 63.6249 13.6017 63.5237 13.8065 63.3361L18.8356 58.3515C19.0373 58.1494 19.1506 57.8755 19.1506 57.59C19.1506 57.3044 19.0373 57.0306 18.8356 56.8284V56.8037Z" fill="#FCC13A"/>
<path d="M77.7165 61.8133L72.6923 56.804C72.4904 56.6014 72.2162 56.4873 71.9301 56.4868C71.644 56.4864 71.3694 56.5996 71.1668 56.8015C70.9642 57.0035 70.8501 57.2777 70.8496 57.5638C70.8491 57.8499 70.9624 58.1245 71.1643 58.3271L76.1934 63.3562C76.3983 63.5437 76.6675 63.645 76.9452 63.6389C77.2228 63.6328 77.4874 63.5198 77.6837 63.3234C77.8801 63.127 77.9931 62.8625 77.9992 62.5848C78.0053 62.3072 77.9041 62.0379 77.7165 61.8331V61.8133Z" fill="#FCC13A"/>
<path d="M50.3852 58.2826C50.1001 58.2826 49.8266 58.1697 49.6246 57.9686C49.4226 57.7675 49.3084 57.4946 49.3071 57.2096V50.4052C49.3071 50.1193 49.4207 49.8451 49.6229 49.6429C49.825 49.4407 50.0992 49.3271 50.3852 49.3271C50.6711 49.3271 50.9453 49.4407 51.1474 49.6429C51.3496 49.8451 51.4632 50.1193 51.4632 50.4052V57.2096C51.4619 57.4946 51.3477 57.7675 51.1457 57.9686C50.9437 58.1697 50.6702 58.2826 50.3852 58.2826Z" fill="#F5A992"/>
<path d="M57.5653 58.2823C57.2803 58.2824 57.0068 58.1695 56.8048 57.9684C56.6028 57.7673 56.4886 57.4943 56.4873 57.2093V54.1137C56.4873 53.8278 56.6009 53.5536 56.803 53.3514C57.0052 53.1492 57.2794 53.0356 57.5653 53.0356C57.8512 53.0356 58.1254 53.1492 58.3276 53.3514C58.5298 53.5536 58.6433 53.8278 58.6433 54.1137V57.2093C58.642 57.4943 58.5279 57.7673 58.3259 57.9684C58.1238 58.1695 57.8504 58.2824 57.5653 58.2823Z" fill="#F5A992"/>
<path d="M43.205 58.2824C42.9199 58.2824 42.6465 58.1695 42.4444 57.9684C42.2424 57.7673 42.1283 57.4944 42.127 57.2093V46.078C42.127 45.7921 42.2405 45.5179 42.4427 45.3157C42.6449 45.1136 42.9191 45 43.205 45C43.4909 45 43.7651 45.1136 43.9672 45.3157C44.1694 45.5179 44.283 45.7921 44.283 46.078V57.2093C44.2817 57.4944 44.1675 57.7673 43.9655 57.9684C43.7635 58.1695 43.49 58.2824 43.205 58.2824Z" fill="#F5A992"/>
</g>
<defs>
<clipPath id="clip0_798_464">
<rect width="90" height="90" fill="white"/>
</clipPath>
</defs>
</svg>
