<svg width="100" height="100" viewBox="0 0 100 100" fill="none" xmlns="http://www.w3.org/2000/svg">
<g clip-path="url(#clip0_798_519)">
<path d="M85.3928 85.2699C104.87 65.7925 104.87 34.2134 85.3928 14.7359C65.9154 -4.74151 34.3362 -4.74151 14.8588 14.7359C-4.61863 34.2134 -4.61863 65.7925 14.8588 85.2699C34.3362 104.747 65.9154 104.747 85.3928 85.2699Z" fill="white"/>
<path d="M99.9998 50.0025C99.9759 62.3808 95.3487 74.3078 87.0184 83.4637C78.6881 92.6195 67.2502 98.3497 54.9292 99.5398C42.6081 100.73 30.2849 97.2948 20.3562 89.9025C10.4275 82.5103 3.60324 71.6895 1.21056 59.5446C-1.18211 47.3996 1.02792 34.7989 7.41081 24.1931C13.7937 13.5874 23.8931 5.73476 35.7449 2.16257C47.5966 -1.40962 60.3533 -0.446002 71.5339 4.86601C82.7145 10.178 91.5197 19.4587 96.237 30.9029C98.7325 36.9609 100.011 43.4507 99.9998 50.0025ZM99.9998 50.0025C100.009 37.6574 95.4277 25.7498 87.1454 16.5952C78.8631 7.44063 67.4723 1.69331 55.1878 0.470793C42.9033 -0.751721 30.6032 2.63795 20.6792 9.9807C10.7551 17.3235 3.91645 28.0945 1.49288 40.1994C-0.930693 52.3043 1.23407 64.878 7.56624 75.4754C13.8984 86.0729 23.9454 93.9368 35.7536 97.5379C47.5619 101.139 60.2873 100.22 71.4557 94.9599C82.624 89.6996 91.437 80.4739 96.1809 69.0766C98.6912 63.0301 99.9887 56.5493 99.9998 50.0025Z" fill="#999999"/>
<path d="M86.2746 50.0023H49.6611L75.4603 24.2031C78.8911 27.5659 81.615 31.5805 83.4721 36.0109C85.3293 40.4414 86.2821 45.1984 86.2746 50.0023Z" fill="#FE3A2D"/>
<path opacity="0.3" d="M86.2746 50.0023H49.6611L75.4603 24.2031C78.8911 27.5659 81.615 31.5805 83.4721 36.0109C85.3293 40.4414 86.2821 45.1984 86.2746 50.0023Z" fill="white"/>
<path d="M75.4603 24.2032L49.6611 50.0024V13.858H50.1251C59.602 13.8404 68.7043 17.5572 75.4603 24.2032Z" fill="#FE3A2D"/>
<path opacity="0.5" d="M75.4603 24.2032L49.6611 50.0024V13.858H50.1251C59.602 13.8404 68.7043 17.5572 75.4603 24.2032Z" fill="white"/>
<path d="M49.6607 13.8584V50.0028L24.3306 24.6727C31.0078 17.8545 40.1181 13.965 49.6607 13.8584Z" fill="#FE3A2D"/>
<path opacity="0.7" d="M49.6607 13.8584V50.0028L24.3306 24.6727C31.0078 17.8545 40.1181 13.965 49.6607 13.8584Z" fill="white"/>
<path d="M49.6609 50.0025H13.9702C13.9571 40.5269 17.6753 31.4272 24.3205 24.6724L49.6609 50.0025Z" fill="#FE3A2D"/>
<path opacity="0.8" d="M49.6609 50.0025H13.9702C13.9571 40.5269 17.6753 31.4272 24.3205 24.6724L49.6609 50.0025Z" fill="white"/>
<path d="M49.6609 50.0024L24.3308 75.3275C17.6864 68.5742 13.9681 59.4763 13.9805 50.0024H49.6609Z" fill="#FE3A2D"/>
<path opacity="0.9" d="M49.6609 50.0024L24.3308 75.3275C17.6864 68.5742 13.9681 59.4763 13.9805 50.0024H49.6609Z" fill="white"/>
<path d="M86.2746 50.0024C86.2817 54.8056 85.3287 59.5617 83.4715 63.9913C81.6144 68.4209 78.8907 72.4346 75.4603 75.7966L49.6611 50.0024H86.2746Z" fill="#FE3A2D"/>
<path d="M72.1062 53.5184C74.0485 41.3785 65.7818 29.9627 53.6419 28.0203C41.502 26.078 30.0862 34.3448 28.1438 46.4846C26.2015 58.6245 34.4683 70.0404 46.6081 71.9827C58.748 73.925 70.1639 65.6583 72.1062 53.5184Z" fill="white"/>
<path d="M53.0259 52.1438C52.5414 52.8789 51.7903 53.3971 50.9311 53.5891C50.0719 53.7811 49.1717 53.6318 48.4204 53.1728C47.6691 52.7139 47.1254 51.981 46.904 51.1289C46.6827 50.2768 46.8009 49.372 47.2338 48.6054C47.3817 48.3657 66.6852 23.5098 66.6852 23.5098C66.6852 23.5098 53.1839 51.9144 53.0259 52.1438Z" fill="#060E10"/>
<path d="M53.8177 53.6948C55.8566 51.6558 55.8566 48.35 53.8177 46.3111C51.7787 44.2722 48.4729 44.2722 46.434 46.3111C44.3951 48.35 44.3951 51.6558 46.434 53.6948C48.4729 55.7337 51.7787 55.7337 53.8177 53.6948Z" fill="#E7362A"/>
<path d="M26.5742 30.8777C28.6408 27.8794 31.3272 25.36 34.4516 23.4897C37.5683 21.5943 40.9996 20.2732 44.5827 19.5892C48.1651 18.9098 51.8387 18.8615 55.4377 19.4465C59.0276 19.9981 62.4847 21.208 65.635 23.0155C64.0366 22.1779 62.3617 21.495 60.6333 20.9761C58.9158 20.4416 57.1578 20.0477 55.3765 19.7983C53.5999 19.5493 51.8065 19.4402 50.0128 19.472C48.2203 19.5176 46.4347 19.712 44.6745 20.0532C41.1477 20.7286 37.7636 22.0066 34.6709 23.8313C33.1172 24.7351 31.651 25.7814 30.2911 26.9568C28.909 28.1201 27.6622 29.4354 26.5742 30.8777Z" fill="white"/>
<path d="M33.1411 29.6333C34.6191 28.1277 36.3241 26.8632 38.1939 25.8858C40.0431 24.8563 42.022 24.0795 44.0777 23.5761C46.132 23.0667 48.2429 22.8217 50.3593 22.847C52.4645 22.8879 54.5575 23.1771 56.5949 23.7087C54.5324 23.369 52.4444 23.2087 50.3542 23.2294C48.2758 23.27 46.209 23.5506 44.195 24.0656C43.1859 24.3087 42.193 24.6152 41.2225 24.9833C40.2486 25.3504 39.3105 25.794 38.3723 26.2529C37.4393 26.7129 36.5321 27.2236 35.6548 27.7825C34.7635 28.3234 33.9222 28.9428 33.1411 29.6333Z" fill="white"/>
</g>
<defs>
<clipPath id="clip0_798_519">
<rect width="100" height="100" fill="white"/>
</clipPath>
</defs>
</svg>
