<svg width="152" height="14" viewBox="0 0 152 14" fill="none" xmlns="http://www.w3.org/2000/svg">
<path d="M3.43195 9.2933C4.63027 9.2551 5.82694 9.16352 7.01874 9.09639L8.47405 8.99171L14.8959 8.51012C17.4354 8.31583 19.9934 8.11771 22.5702 7.91575L33.5356 7.03675L36.0473 6.85468L42.4354 6.37417L48.8246 5.92763C49.6618 5.86694 50.51 5.79618 51.3306 5.74574L61.5275 5.14382L67.8008 4.77384C68.6165 4.74783 69.4363 4.66827 70.2573 4.63238L80.116 4.20154L89.8506 3.76494C90.7113 3.73751 91.5383 3.71114 92.4216 3.68299L98.7781 3.45608L108.65 3.08796L111.885 2.98485L118.636 2.76964L119.199 2.75171C114.122 2.97182 109.046 3.19517 103.969 3.42175L97.6325 3.74033C96.7211 3.76938 95.804 3.79861 94.8881 3.86181L85.6907 4.36872L75.0597 4.95533C74.4633 4.97434 73.8683 5.03703 73.2784 5.08012L67.6145 5.48897L56.1348 6.31151C55.5722 6.32944 55.0113 6.40075 54.4497 6.45266L48.8341 6.96683L38.8048 7.88886C37.8838 7.97165 36.9635 8.0787 36.043 8.17605L29.6219 8.86648L21.454 9.70489L10.0993 10.9266L7.37138 11.2176C5.74361 11.3909 4.12326 11.6223 2.50216 11.8294C2.45671 11.8256 2.41075 11.8303 2.36736 11.8431C2.32397 11.8559 2.28415 11.8765 2.25058 11.9036C2.217 11.9306 2.19044 11.9635 2.17267 12C2.1549 12.0365 2.14634 12.0757 2.14756 12.1152C2.14877 12.1546 2.15974 12.1932 2.17972 12.2285C2.1997 12.2638 2.22824 12.2949 2.26342 12.3198C2.2986 12.3446 2.3396 12.3627 2.3837 12.3727C2.42779 12.3827 2.47395 12.3844 2.51908 12.3778L4.30459 12.3889C4.232 12.524 4.19609 12.6714 4.19962 12.8197C4.20934 13.0869 4.341 13.339 4.56597 13.521C4.79093 13.703 5.09101 13.8003 5.40095 13.7917C10.0458 13.3911 14.69 12.971 19.3425 12.6333L31.457 11.7613L44.8466 10.7856L49.0663 10.4763C49.4714 10.4633 49.8752 10.4116 50.28 10.389L71.8685 9.21507L83.4048 8.58503C84.7992 8.51144 86.1879 8.43803 87.5769 8.37432L109.661 7.37406L119.125 6.94121C121.819 6.81649 124.513 6.71603 127.205 6.54278L133.876 6.11154C135.001 6.0417 136.125 5.98157 137.203 5.8889L144.757 5.2061C144.622 5.42229 144.592 5.67463 144.671 5.9083C144.751 6.13473 144.931 6.32429 145.172 6.43638C145.294 6.49506 145.43 6.53124 145.569 6.54266C145.709 6.55408 145.851 6.5405 145.985 6.50276C146.542 6.29557 147.098 6.08353 147.615 5.86789L147.582 5.86896L147.698 5.82152L147.837 5.76366L147.787 5.76527L148.649 5.42205L149.556 5.05798C149.878 4.92141 150.194 4.76075 150.505 4.60513C150.675 4.50863 150.815 4.3757 150.909 4.2194C151.002 4.06311 151.048 3.88883 151.04 3.71371C151.033 3.49365 150.943 3.2824 150.783 3.11211C150.623 2.94182 150.403 2.82184 150.155 2.77042C149.867 2.73589 149.59 2.71071 149.302 2.69074L149.111 2.69684C148.92 2.70293 148.723 2.70921 148.55 2.74874C148.122 2.76237 147.697 2.85849 147.27 2.89639L146.22 2.99786L143.413 3.26223L142.683 3.32921C142.768 3.2393 142.83 3.13454 142.865 3.02225C142.906 2.93337 142.928 2.83877 142.929 2.74331L142.957 2.53357C142.953 2.44571 142.931 2.35929 142.892 2.27817L142.965 2.24672C143.137 2.15226 143.28 2.02251 143.381 1.86914C143.47 1.71358 143.515 1.54227 143.512 1.3695C143.504 1.18895 143.442 1.0137 143.333 0.860309L143.141 0.662413C142.992 0.541627 142.809 0.45701 142.61 0.417045C142.245 0.318694 141.862 0.279844 141.48 0.302477C141.17 0.312341 140.85 0.322562 140.541 0.356689L139.18 0.400089C138.538 0.420533 137.903 0.440797 137.261 0.461242L132.198 0.622643C130.606 0.673395 129.014 0.724146 127.421 0.774898L123.078 0.913345C117.306 1.09734 111.54 1.31028 105.77 1.5428L92.7905 2.1314C90.8552 2.1931 88.9267 2.29343 86.9925 2.39394L73.9928 3.04635L70.2874 3.23247C69.5673 3.25542 68.8541 3.32187 68.1347 3.36909L55.2924 4.1962L51.3583 4.45276C50.6277 4.50034 49.8919 4.56265 49.1616 4.61994L36.4315 5.61834C34.2349 5.79037 32.0444 5.97677 29.8482 6.16336L18.5871 7.13437C15.3351 7.4129 12.0825 7.67202 8.8299 7.93115L7.28517 8.05811L4.78523 8.25438C4.04351 8.30716 3.30134 8.34539 2.53576 8.35523C2.49798 8.27159 2.43072 8.2005 2.3434 8.1519C2.25607 8.1033 2.15305 8.07961 2.04873 8.08416C1.57157 8.13337 1.09472 8.19229 0.61786 8.25121C0.506939 8.2613 0.401647 8.29955 0.315324 8.3611C0.229001 8.42266 0.165532 8.50475 0.13296 8.59697C0.102382 8.71389 0.126676 8.83601 0.200512 8.93656C0.274348 9.03711 0.391696 9.10787 0.526813 9.13332L1.15518 9.23958C1.36395 9.26991 1.57534 9.28592 1.78738 9.28743C2.33444 9.31371 2.88608 9.30584 3.43195 9.2933ZM135.03 3.53914L137.129 3.47225C137.194 3.6055 137.294 3.72367 137.421 3.81753C137.152 3.84555 136.882 3.86872 136.612 3.88703L135.084 3.98434L128.401 4.40623C127.383 4.47266 126.367 4.55365 125.349 4.60066L120.574 4.81601L109.665 5.31435L88.4865 6.28089C83.4253 6.51023 78.3662 6.8075 73.3064 7.08537L50.5037 8.332C48.9803 8.41942 47.4526 8.55069 45.9299 8.66238L32.9732 9.61458L20.2579 10.5445L19.078 10.6307L22.5026 10.2884L34.467 9.11521L38.6441 8.70518L40.8009 8.51985L53.2483 7.48674C54.0571 7.41724 54.8656 7.33803 55.6805 7.28291L59.2151 7.03909L72.057 6.19742L74.8671 6.01555C75.1147 6.00766 75.3622 5.99977 75.6154 5.9917L77.6003 5.89442L90.471 5.25585C92.4446 5.15893 94.4069 5.05752 96.398 4.97948C102.782 4.73226 109.16 4.47066 115.522 4.24357C122.03 3.99726 128.533 3.75113 135.036 3.53896L135.03 3.53914Z" fill="#FFCD1F"/>
</svg>
