<svg width="94" height="105" viewBox="0 0 94 105" fill="none" xmlns="http://www.w3.org/2000/svg">
<path d="M3.7823 85.0307C11.1282 90.2058 30.7399 75.8262 47.5861 52.9129C64.4324 29.9996 72.1339 7.22942 64.788 2.05428C57.442 -3.12087 37.8304 11.2588 20.9842 34.1721C4.1379 57.0854 -3.56363 79.8556 3.7823 85.0307Z" stroke="#41FF31" stroke-width="1.5" stroke-miterlimit="10"/>
<path d="M16.4948 93.9866C23.8408 99.1617 43.4524 84.7821 60.2986 61.8688C77.1449 38.9555 84.8464 16.1853 77.5005 11.0101C70.1546 5.835 50.5429 20.2146 33.6967 43.1279C16.8504 66.0412 9.1489 88.8114 16.4948 93.9866Z" stroke="#41FF31" stroke-width="1.5" stroke-miterlimit="10"/>
<path d="M29.212 102.946C36.558 108.121 56.1696 93.7412 73.0158 70.8279C89.8621 47.9146 97.5636 25.1444 90.2177 19.9693C82.8718 14.7942 63.2601 29.1738 46.4139 52.0871C29.5676 75.0004 21.8661 97.7706 29.212 102.946Z" stroke="#41FF31" stroke-width="1.5" stroke-miterlimit="10"/>
</svg>
