<svg width="51" height="53" viewBox="0 0 51 53" fill="none" xmlns="http://www.w3.org/2000/svg">
<path d="M3.78906 15.2903L25.4961 27.8523L47.0557 15.364" stroke="black" stroke-width="2" stroke-linecap="round" stroke-linejoin="round"/>
<path d="M25.5 50.1242V27.8271" stroke="black" stroke-width="2" stroke-linecap="round" stroke-linejoin="round"/>
<path d="M20.4108 3.09772L7.28329 10.3991C4.30871 12.0461 1.875 16.1761 1.875 19.5686V33.4582C1.875 36.8507 4.30871 40.9807 7.28329 42.6278L20.4108 49.9291C23.2133 51.4778 27.8104 51.4778 30.6129 49.9291L43.7404 42.6278C46.715 40.9807 49.1487 36.8507 49.1487 33.4582V19.5686C49.1487 16.1761 46.715 12.0461 43.7404 10.3991L30.6129 3.09772C27.7858 1.52439 23.2133 1.52439 20.4108 3.09772Z" stroke="black" stroke-width="2" stroke-linecap="round" stroke-linejoin="round"/>
<path d="M37.7905 29.549V20.5516L14.4609 7.07983" stroke="black" stroke-width="2" stroke-linecap="round" stroke-linejoin="round"/>
</svg>
