<svg width="52" height="52" viewBox="0 0 52 52" fill="none" xmlns="http://www.w3.org/2000/svg">
<path d="M17.9531 31.6305C17.9531 34.748 20.3456 37.2614 23.3181 37.2614H29.384C31.9698 37.2614 34.0723 35.0622 34.0723 32.3555C34.0723 29.4072 32.7915 28.368 30.8823 27.6914L21.1431 24.308C19.234 23.6314 17.9531 22.5922 17.9531 19.6439C17.9531 16.9372 20.0556 14.738 22.6415 14.738H28.7073C31.6798 14.738 34.0723 17.2514 34.0723 20.3689" stroke="black" stroke-width="2" stroke-linecap="round" stroke-linejoin="round"/>
<path d="M26 11.5V40.5" stroke="black" stroke-width="2" stroke-linecap="round" stroke-linejoin="round"/>
<path d="M26.0026 50.1666C39.3495 50.1666 50.1693 39.3468 50.1693 25.9999C50.1693 12.653 39.3495 1.83325 26.0026 1.83325C12.6557 1.83325 1.83594 12.653 1.83594 25.9999C1.83594 39.3468 12.6557 50.1666 26.0026 50.1666Z" stroke="black" stroke-width="2" stroke-linecap="round" stroke-linejoin="round"/>
</svg>
