<svg width="53" height="51" viewBox="0 0 53 51" fill="none" xmlns="http://www.w3.org/2000/svg">
<path d="M10.4248 41.4541V34.2757C10.4248 31.8911 12.2931 29.7524 14.9481 29.7524C17.3327 29.7524 19.4715 31.6207 19.4715 34.2757V41.1836C19.4715 45.9774 15.489 49.9599 10.6952 49.9599C5.90148 49.9599 1.91898 45.9528 1.91898 41.1836V26.0403C1.64856 12.2245 12.5636 1.03906 26.3794 1.03906C40.1952 1.03906 51.0857 12.2245 51.0857 25.7699V40.9132C51.0857 45.707 47.1032 49.6895 42.3094 49.6895C37.5157 49.6895 33.5331 45.707 33.5331 40.9132V34.0053C33.5331 31.6207 35.4015 29.482 38.0565 29.482C40.4411 29.482 42.5798 31.3503 42.5798 34.0053V41.4541" stroke="black" stroke-width="2" stroke-linecap="round" stroke-linejoin="round"/>
</svg>
