<svg width="56" height="50" viewBox="0 0 56 50" fill="none" xmlns="http://www.w3.org/2000/svg">
<path d="M1.33594 26.626H46.6693" stroke="black" stroke-width="2" stroke-miterlimit="10" stroke-linecap="round" stroke-linejoin="round"/>
<path d="M46.6693 20.4127V39.4794C46.5893 47.0794 44.5092 48.9994 36.5892 48.9994H11.416C3.36268 48.9994 1.33594 46.9994 1.33594 39.0527V20.4127C1.33594 13.2127 3.01594 10.8927 9.33594 10.5194C9.97594 10.4927 10.6693 10.4661 11.416 10.4661H36.5892C44.6425 10.4661 46.6693 12.4661 46.6693 20.4127Z" stroke="black" stroke-width="2" stroke-linecap="round" stroke-linejoin="round"/>
<path d="M54.6693 10.9467V29.5867C54.6693 36.7867 52.9893 39.1067 46.6693 39.48V20.4133C46.6693 12.4667 44.6425 10.4667 36.5892 10.4667H11.416C10.6693 10.4667 9.97594 10.4933 9.33594 10.52C9.41594 2.92 11.496 1 19.416 1H44.5892C52.6425 1 54.6693 3 54.6693 10.9467Z" stroke="black" stroke-width="2" stroke-linecap="round" stroke-linejoin="round"/>
<path d="M10 40.4933H14.5866" stroke="black" stroke-width="2" stroke-miterlimit="10" stroke-linecap="round" stroke-linejoin="round"/>
<path d="M20.2969 40.4932H29.4702" stroke="black" stroke-width="2" stroke-miterlimit="10" stroke-linecap="round" stroke-linejoin="round"/>
</svg>
