<svg width="50" height="50" viewBox="0 0 50 50" fill="none" xmlns="http://www.w3.org/2000/svg">
<path d="M4.16406 25.7305H16.2474C19.4349 25.7305 21.6224 28.1472 21.6224 31.1055V37.8139C21.6224 40.7722 19.4349 43.1888 16.2474 43.1888H9.5391C6.58076 43.1888 4.16406 40.7722 4.16406 37.8139V25.7305" stroke="black" stroke-width="2" stroke-linecap="round" stroke-linejoin="round"/>
<path d="M4.16406 25.7302C4.16406 13.126 6.51829 11.0428 13.6016 6.83447" stroke="black" stroke-width="2" stroke-linecap="round" stroke-linejoin="round"/>
<path d="M28.3906 25.7305H40.4739C43.6614 25.7305 45.849 28.1472 45.849 31.1055V37.8139C45.849 40.7722 43.6614 43.1888 40.4739 43.1888H33.7657C30.8073 43.1888 28.3906 40.7722 28.3906 37.8139V25.7305" stroke="black" stroke-width="2" stroke-linecap="round" stroke-linejoin="round"/>
<path d="M28.3906 25.7302C28.3906 13.126 30.7447 11.0428 37.8281 6.83447" stroke="black" stroke-width="2" stroke-linecap="round" stroke-linejoin="round"/>
</svg>
