<svg width="57" height="49" viewBox="0 0 57 49" fill="none" xmlns="http://www.w3.org/2000/svg">
<path d="M1.82982 32.5669C4.43064 36.4308 16.5535 32.9685 28.9069 24.8336C41.2603 16.6988 49.1664 6.97194 46.5656 3.10807C43.9647 -0.755799 31.8419 2.7065 19.4885 10.8413C7.13505 18.9762 -0.771001 28.703 1.82982 32.5669Z" stroke="#41FF31" stroke-width="1.5" stroke-miterlimit="10"/>
<path d="M6.33067 39.2535C8.93149 43.1174 21.0543 39.6551 33.4077 31.5203C45.7612 23.3854 53.6672 13.6586 51.0664 9.79471C48.4656 5.93084 36.3428 9.39313 23.9893 17.528C11.6359 25.6628 3.72986 35.3897 6.33067 39.2535Z" stroke="#41FF31" stroke-width="1.5" stroke-miterlimit="10"/>
<path d="M10.8332 45.9426C13.434 49.8065 25.5568 46.3442 37.9102 38.2094C50.2637 30.0745 58.1697 20.3477 55.5689 16.4838C52.9681 12.6199 40.8453 16.0822 28.4919 24.2171C16.1384 32.3519 8.23236 42.0788 10.8332 45.9426Z" stroke="#41FF31" stroke-width="1.5" stroke-miterlimit="10"/>
</svg>
