<svg width="44" height="44" viewBox="0 0 44 44" fill="none" xmlns="http://www.w3.org/2000/svg">
<path d="M41.3675 34.9151L41.3166 34.8889L29.2965 28.187C29.0924 28.0743 28.9125 27.9225 28.7671 27.7402C28.6218 27.5579 28.5138 27.3487 28.4496 27.1247C28.3853 26.9007 28.3659 26.6662 28.3925 26.4348C28.4191 26.2033 28.4912 25.9794 28.6046 25.776C28.7149 25.5698 28.8655 25.3879 29.0475 25.241C29.2295 25.0941 29.4392 24.9853 29.6641 24.921C29.8891 24.8567 30.1247 24.8383 30.357 24.8667C30.5893 24.8951 30.8136 24.9698 31.0165 25.0865L43.0365 31.7884C43.4506 32.0103 43.7596 32.3874 43.8956 32.8367C44.0317 33.2861 43.9836 33.7708 43.7619 34.1844C43.5403 34.5981 43.1632 34.9066 42.7137 35.0421C42.2642 35.1777 41.7791 35.1293 41.365 34.9074L41.3675 34.9151Z" fill="#FFB340"/>
<path d="M13.4014 19.321L13.3505 19.2948L1.33037 12.593C1.12726 12.4794 0.948467 12.327 0.804218 12.1445C0.659969 11.962 0.553107 11.7528 0.489688 11.5291C0.426268 11.3053 0.40753 11.0713 0.434596 10.8404C0.461661 10.6095 0.534003 10.3862 0.647433 10.1833C0.760863 9.98042 0.913171 9.8019 1.0957 9.65789C1.27822 9.51389 1.48738 9.40723 1.71121 9.34403C1.93504 9.28084 2.16918 9.26235 2.40024 9.2896C2.63131 9.31684 2.85477 9.38927 3.05789 9.50281L15.0779 16.2047C15.2828 16.3149 15.4639 16.4643 15.6111 16.6444C15.7582 16.8245 15.8684 17.0318 15.9354 17.2544C16.0024 17.477 16.0249 17.7106 16.0016 17.9418C15.9783 18.173 15.9096 18.3974 15.7995 18.602C15.6894 18.8066 15.5401 18.9875 15.36 19.1344C15.1799 19.2812 14.9726 19.3912 14.7499 19.458C14.5272 19.5248 14.2935 19.5471 14.0621 19.5236C13.8307 19.5001 13.6062 19.4312 13.4014 19.321Z" fill="#FFB340"/>
<path d="M25.828 15.799L25.7821 15.7754C25.371 15.5467 25.0672 15.1644 24.9375 14.7124C24.8078 14.2604 24.8627 13.7756 25.0902 13.3643L31.786 1.35717C31.8934 1.14756 32.0428 0.962323 32.2249 0.812935C32.4071 0.663547 32.618 0.553188 32.8447 0.488772C33.0714 0.424357 33.3089 0.407265 33.5426 0.438495C33.7762 0.469725 34.001 0.548623 34.203 0.670324C34.4071 0.783002 34.587 0.93486 34.7324 1.11715C34.8777 1.29945 34.9856 1.50857 35.0499 1.73259C35.1142 1.9566 35.1336 2.19109 35.107 2.42254C35.0804 2.65399 35.0083 2.87789 34.8949 3.08135L28.1991 15.0885C27.9754 15.4932 27.6021 15.7941 27.1589 15.9269C26.7157 16.0597 26.238 16.0138 25.828 15.799Z" fill="#FFB340"/>
<path d="M10.2482 43.7351L10.1973 43.7089C9.99313 43.5962 9.81323 43.4443 9.66789 43.262C9.52254 43.0797 9.41461 42.8706 9.35032 42.6466C9.28603 42.4226 9.26665 42.1881 9.29326 41.9566C9.31986 41.7252 9.39195 41.5013 9.50538 41.2978L16.2011 29.2907C16.3084 29.0816 16.4574 28.8967 16.639 28.7475C16.8206 28.5984 17.031 28.488 17.2571 28.4234C17.4832 28.3588 17.7201 28.3412 17.9534 28.3718C18.1866 28.4024 18.4111 28.4805 18.613 28.6012C18.8172 28.7139 18.9971 28.8657 19.1424 29.048C19.2877 29.2303 19.3956 29.4395 19.4599 29.6635C19.5242 29.8875 19.5436 30.122 19.517 30.3534C19.4904 30.5849 19.4183 30.8088 19.3049 31.0122L12.6091 43.0194C12.3854 43.4213 12.0142 43.7205 11.5738 43.854C11.1333 43.9875 10.6581 43.9449 10.2482 43.7351Z" fill="#FFB340"/>
</svg>
